<svg width="250" height="80" viewBox="0 0 250 80" fill="none" xmlns="http://www.w3.org/2000/svg">
<g id="Alphamatic" clip-path="url(#clip0_1_3)">
<rect id="Rectangle 1" width="250" height="79" rx="7" fill="#8CF45B"/>
<g id="Letter A">
<path id="Polygon 1" d="M19.6301 27.9312C20.8297 22.7753 28.1703 22.7753 29.3699 27.9312L34.7644 51.117C35.4939 54.2523 33.1136 57.25 29.8945 57.25H19.1055C15.8864 57.25 13.5061 54.2523 14.2356 51.1169L19.6301 27.9312Z" fill="#F9F9F9"/>
<path id="Polygon 2" d="M22.5915 41.0892C23.1774 39.22 25.8226 39.22 26.4085 41.0892L31.9129 58.6519C32.3167 59.94 31.3545 61.25 30.0045 61.25H18.9955C17.6455 61.25 16.6833 59.94 17.0871 58.6519L22.5915 41.0892Z" fill="#8CF45B"/>
<path id="Polygon 3" d="M22.6916 31.8283C23.4133 30.3006 25.5867 30.3006 26.3084 31.8283L27.0488 33.3958C27.6755 34.7225 26.7077 36.25 25.2404 36.25H23.7596C22.2923 36.25 21.3245 34.7225 21.9512 33.3958L22.6916 31.8283Z" fill="#8CF45B"/>
</g>
<g id="Letter A_2">
<path id="Polygon 1_2" d="M105.63 27.9312C106.83 22.7753 114.17 22.7753 115.37 27.9312L120.764 51.117C121.494 54.2523 119.114 57.25 115.894 57.25H105.106C101.886 57.25 99.5061 54.2523 100.236 51.1169L105.63 27.9312Z" fill="#F9F9F9"/>
<path id="Polygon 2_2" d="M108.592 41.0892C109.177 39.22 111.823 39.22 112.408 41.0892L117.913 58.6519C118.317 59.94 117.354 61.25 116.004 61.25H104.996C103.646 61.25 102.683 59.94 103.087 58.6519L108.592 41.0892Z" fill="#8CF45B"/>
<path id="Polygon 3_2" d="M108.692 31.8283C109.413 30.3006 111.587 30.3006 112.308 31.8283L113.049 33.3958C113.676 34.7225 112.708 36.25 111.24 36.25H109.76C108.292 36.25 107.324 34.7225 107.951 33.3958L108.692 31.8283Z" fill="#8CF45B"/>
</g>
<g id="Letter A_3">
<path id="Polygon 1_3" d="M164.63 27.9312C165.83 22.7753 173.17 22.7753 174.37 27.9312L179.764 51.117C180.494 54.2523 178.114 57.25 174.894 57.25H164.106C160.886 57.25 158.506 54.2523 159.236 51.1169L164.63 27.9312Z" fill="#555555"/>
<path id="Polygon 2_3" d="M167.592 41.0892C168.177 39.22 170.823 39.22 171.408 41.0892L176.913 58.6519C177.317 59.94 176.354 61.25 175.004 61.25H163.996C162.646 61.25 161.683 59.94 162.087 58.6519L167.592 41.0892Z" fill="#8CF45B"/>
<path id="Polygon 3_3" d="M167.692 31.8283C168.413 30.3006 170.587 30.3006 171.308 31.8283L172.049 33.3958C172.676 34.7225 171.708 36.25 170.24 36.25H168.76C167.292 36.25 166.324 34.7225 166.951 33.3958L167.692 31.8283Z" fill="#8CF45B"/>
</g>
<g id="Letter M">
<path id="Polygon 4" d="M128.63 27.9312C129.83 22.7753 137.17 22.7753 138.37 27.9312L143.764 51.117C144.494 54.2523 142.114 57.25 138.894 57.25H128.106C124.886 57.25 122.506 54.2523 123.236 51.1169L128.63 27.9312Z" fill="#555555"/>
<path id="Polygon 5" d="M141.63 27.9312C142.83 22.7753 150.17 22.7753 151.37 27.9312L156.764 51.117C157.494 54.2523 155.114 57.25 151.894 57.25H141.106C137.886 57.25 135.506 54.2523 136.236 51.1169L141.63 27.9312Z" fill="#555555"/>
<path id="Polygon 6" d="M131.592 41.0892C132.177 39.22 134.823 39.22 135.408 41.0892L140.913 58.6519C141.317 59.94 140.354 61.25 139.004 61.25H127.996C126.646 61.25 125.683 59.94 126.087 58.6519L131.592 41.0892Z" fill="#8CF45B"/>
<path id="Polygon 7" d="M144.592 41.0892C145.177 39.22 147.823 39.22 148.408 41.0892L153.913 58.6519C154.317 59.94 153.354 61.25 152.004 61.25H140.996C139.646 61.25 138.683 59.94 139.087 58.6519L144.592 41.0892Z" fill="#8CF45B"/>
</g>
<g id="Letter I">
<line id="Line 9" x1="205.5" y1="26.5" x2="205.5" y2="53.5" stroke="#555555" stroke-width="5" stroke-linecap="round"/>
</g>
<g id="Letter L">
<line id="Line 2" x1="40.5" y1="26.5" x2="40.5" y2="53.5" stroke="#F9F9F9" stroke-width="5" stroke-linecap="round"/>
<line id="Line 3" x1="40.5" y1="53.5" x2="52.5" y2="53.5" stroke="#F9F9F9" stroke-width="5" stroke-linecap="round"/>
</g>
<g id="Letter T">
<line id="Line 7" x1="189.5" y1="26.5" x2="189.5" y2="53.5" stroke="#555555" stroke-width="5" stroke-linecap="round"/>
<line id="Line 8" x1="182.5" y1="26.5" x2="196.5" y2="26.5" stroke="#555555" stroke-width="5" stroke-linecap="round"/>
</g>
<g id="Letter H">
<line id="Line 4" x1="79.5" y1="26.5" x2="79.5" y2="53.5" stroke="#F9F9F9" stroke-width="5" stroke-linecap="round"/>
<line id="Line 6" x1="92.5" y1="26.5" x2="92.5" y2="53.5" stroke="#F9F9F9" stroke-width="5" stroke-linecap="round"/>
<line id="Line 5" x1="79.5" y1="43.5" x2="91.5" y2="43.5" stroke="#F9F9F9" stroke-width="5" stroke-linecap="round"/>
</g>
<g id="Letter P">
<circle id="Ellipse 1" cx="64" cy="35" r="11" fill="#F9F9F9"/>
<circle id="Ellipse 2" cx="64.5" cy="34.5" r="7.5" fill="#8CF45B"/>
<line id="Line 1" x1="60.5" y1="26.5" x2="60.5" y2="53.5" stroke="#F9F9F9" stroke-width="5" stroke-linecap="round"/>
<line id="Line 10" x1="55.5" y1="18.5" x2="55.5" y2="45.5" stroke="#8CF45B" stroke-width="5" stroke-linecap="round"/>
</g>
<g id="Letter C">
<circle id="Ellipse 3" cx="229" cy="40" r="16" fill="#555555"/>
<ellipse id="Ellipse 4" cx="232" cy="40" rx="13" ry="11" fill="#8CF45B"/>
<line id="Line 10_2" x1="238" y1="25" x2="238" y2="56" stroke="#8CF45B" stroke-width="16" stroke-linecap="round"/>
<ellipse id="Ellipse 5" cx="229.5" cy="26.575" rx="3.5" ry="2.575" fill="#555555"/>
<ellipse id="Ellipse 6" cx="229.5" cy="53.425" rx="3.5" ry="2.575" fill="#555555"/>
</g>
<path id="The automatic font and alphabet generator" d="M43.1286 63.8068V63.1818H47.4922V63.8068H45.6626V69H44.9581V63.8068H43.1286ZM49.1591 66.375V69H48.4886V63.1818H49.1591V65.3182H49.2159C49.3182 65.0928 49.4716 64.9138 49.6761 64.7812C49.8826 64.6468 50.1572 64.5795 50.5 64.5795C50.7973 64.5795 51.0578 64.6392 51.2812 64.7585C51.5047 64.8759 51.678 65.0568 51.8011 65.3011C51.9261 65.5436 51.9886 65.8523 51.9886 66.2273V69H51.3182V66.2727C51.3182 65.9261 51.2282 65.6581 51.0483 65.4688C50.8703 65.2775 50.6231 65.1818 50.3068 65.1818C50.0871 65.1818 49.8902 65.2282 49.7159 65.321C49.5436 65.4138 49.4072 65.5492 49.3068 65.7273C49.2083 65.9053 49.1591 66.1212 49.1591 66.375ZM55.0447 69.0909C54.6243 69.0909 54.2616 68.9981 53.9567 68.8125C53.6536 68.625 53.4197 68.3636 53.255 68.0284C53.0921 67.6913 53.0107 67.2992 53.0107 66.8523C53.0107 66.4053 53.0921 66.0114 53.255 65.6705C53.4197 65.3277 53.6489 65.0606 53.9425 64.8693C54.2379 64.6761 54.5826 64.5795 54.9766 64.5795C55.2038 64.5795 55.4283 64.6174 55.6499 64.6932C55.8714 64.7689 56.0732 64.892 56.255 65.0625C56.4368 65.2311 56.5817 65.4545 56.6896 65.733C56.7976 66.0114 56.8516 66.3542 56.8516 66.7614V67.0455H53.4879V66.4659H56.1697C56.1697 66.2197 56.1205 66 56.022 65.8068C55.9254 65.6136 55.7872 65.4612 55.6072 65.3494C55.4292 65.2377 55.219 65.1818 54.9766 65.1818C54.7095 65.1818 54.4785 65.2481 54.2834 65.3807C54.0902 65.5114 53.9415 65.6818 53.8374 65.892C53.7332 66.1023 53.6811 66.3277 53.6811 66.5682V66.9545C53.6811 67.2841 53.7379 67.5634 53.8516 67.7926C53.9671 68.0199 54.1271 68.1932 54.3317 68.3125C54.5362 68.4299 54.7739 68.4886 55.0447 68.4886C55.2209 68.4886 55.38 68.464 55.522 68.4148C55.666 68.3636 55.79 68.2879 55.8942 68.1875C55.9983 68.0852 56.0788 67.9583 56.1357 67.8068L56.7834 67.9886C56.7152 68.2083 56.6006 68.4015 56.4396 68.5682C56.2786 68.733 56.0798 68.8617 55.843 68.9545C55.6063 69.0455 55.3402 69.0909 55.0447 69.0909ZM61.4055 69.1023C61.129 69.1023 60.8781 69.0502 60.6527 68.946C60.4273 68.84 60.2483 68.6875 60.1158 68.4886C59.9832 68.2879 59.9169 68.0455 59.9169 67.7614C59.9169 67.5114 59.9661 67.3087 60.0646 67.1534C60.1631 66.9962 60.2947 66.8731 60.4595 66.7841C60.6243 66.6951 60.8061 66.6288 61.005 66.5852C61.2057 66.5398 61.4074 66.5038 61.6101 66.4773C61.8752 66.4432 62.0902 66.4176 62.255 66.4006C62.4216 66.3816 62.5429 66.3504 62.6186 66.3068C62.6963 66.2633 62.7351 66.1875 62.7351 66.0795V66.0568C62.7351 65.7765 62.6584 65.5587 62.505 65.4034C62.3535 65.2481 62.1233 65.1705 61.8146 65.1705C61.4946 65.1705 61.2436 65.2405 61.0618 65.3807C60.88 65.5208 60.7521 65.6705 60.6783 65.8295L60.0419 65.6023C60.1555 65.3371 60.3071 65.1307 60.4964 64.983C60.6877 64.8333 60.8961 64.7292 61.1214 64.6705C61.3487 64.6098 61.5722 64.5795 61.7919 64.5795C61.9321 64.5795 62.093 64.5966 62.2749 64.6307C62.4586 64.6629 62.6357 64.7301 62.8061 64.8324C62.9785 64.9347 63.1214 65.089 63.2351 65.2955C63.3487 65.5019 63.4055 65.7784 63.4055 66.125V69H62.7351V68.4091H62.701C62.6555 68.5038 62.5798 68.6051 62.4737 68.7131C62.3677 68.821 62.2266 68.9129 62.0504 68.9886C61.8743 69.0644 61.6593 69.1023 61.4055 69.1023ZM61.5078 68.5C61.773 68.5 61.9964 68.4479 62.1783 68.3438C62.362 68.2396 62.5002 68.1051 62.593 67.9403C62.6877 67.7756 62.7351 67.6023 62.7351 67.4205V66.8068C62.7067 66.8409 62.6442 66.8722 62.5476 66.9006C62.4529 66.9271 62.343 66.9508 62.218 66.9716C62.0949 66.9905 61.9747 67.0076 61.8572 67.0227C61.7417 67.036 61.648 67.0473 61.576 67.0568C61.4018 67.0795 61.2389 67.1165 61.0874 67.1676C60.9377 67.2169 60.8165 67.2917 60.7237 67.392C60.6328 67.4905 60.5874 67.625 60.5874 67.7955C60.5874 68.0284 60.6735 68.2045 60.8459 68.3239C61.0201 68.4413 61.2408 68.5 61.5078 68.5ZM67.3793 67.2159V64.6364H68.0497V69H67.3793V68.2614H67.3338C67.2315 68.483 67.0724 68.6714 66.8565 68.8267C66.6406 68.9801 66.3679 69.0568 66.0384 69.0568C65.7656 69.0568 65.5232 68.9972 65.3111 68.8778C65.099 68.7566 64.9323 68.5748 64.8111 68.3324C64.6899 68.0881 64.6293 67.7803 64.6293 67.4091V64.6364H65.2997V67.3636C65.2997 67.6818 65.3887 67.9356 65.5668 68.125C65.7467 68.3144 65.9759 68.4091 66.2543 68.4091C66.4209 68.4091 66.5904 68.3665 66.7628 68.2812C66.937 68.196 67.0829 68.0653 67.2003 67.8892C67.3196 67.7131 67.3793 67.4886 67.3793 67.2159ZM71.1754 64.6364V65.2045H68.9141V64.6364H71.1754ZM69.5732 63.5909H70.2436V67.75C70.2436 67.9394 70.2711 68.0814 70.326 68.1761C70.3828 68.2689 70.4548 68.3314 70.5419 68.3636C70.6309 68.3939 70.7247 68.4091 70.8232 68.4091C70.897 68.4091 70.9576 68.4053 71.005 68.3977C71.0523 68.3883 71.0902 68.3807 71.1186 68.375L71.255 68.9773C71.2095 68.9943 71.1461 69.0114 71.0646 69.0284C70.9832 69.0473 70.88 69.0568 70.755 69.0568C70.5656 69.0568 70.38 69.0161 70.1982 68.9347C70.0182 68.8532 69.8686 68.7292 69.7493 68.5625C69.6319 68.3958 69.5732 68.1856 69.5732 67.9318V63.5909ZM73.9098 69.0909C73.5159 69.0909 73.1702 68.9972 72.8729 68.8097C72.5774 68.6222 72.3464 68.3598 72.1797 68.0227C72.0149 67.6856 71.9325 67.2917 71.9325 66.8409C71.9325 66.3864 72.0149 65.9896 72.1797 65.6506C72.3464 65.3116 72.5774 65.0483 72.8729 64.8608C73.1702 64.6733 73.5159 64.5795 73.9098 64.5795C74.3037 64.5795 74.6484 64.6733 74.9439 64.8608C75.2412 65.0483 75.4723 65.3116 75.6371 65.6506C75.8037 65.9896 75.8871 66.3864 75.8871 66.8409C75.8871 67.2917 75.8037 67.6856 75.6371 68.0227C75.4723 68.3598 75.2412 68.6222 74.9439 68.8097C74.6484 68.9972 74.3037 69.0909 73.9098 69.0909ZM73.9098 68.4886C74.209 68.4886 74.4553 68.4119 74.6484 68.2585C74.8416 68.1051 74.9846 67.9034 75.0774 67.6534C75.1702 67.4034 75.2166 67.1326 75.2166 66.8409C75.2166 66.5492 75.1702 66.2775 75.0774 66.0256C74.9846 65.7737 74.8416 65.5701 74.6484 65.4148C74.4553 65.2595 74.209 65.1818 73.9098 65.1818C73.6106 65.1818 73.3643 65.2595 73.1712 65.4148C72.978 65.5701 72.835 65.7737 72.7422 66.0256C72.6494 66.2775 72.603 66.5492 72.603 66.8409C72.603 67.1326 72.6494 67.4034 72.7422 67.6534C72.835 67.9034 72.978 68.1051 73.1712 68.2585C73.3643 68.4119 73.6106 68.4886 73.9098 68.4886ZM76.9105 69V64.6364H77.5582V65.3182H77.6151C77.706 65.0852 77.8527 64.9044 78.0554 64.7756C78.258 64.6449 78.5014 64.5795 78.7855 64.5795C79.0734 64.5795 79.313 64.6449 79.5043 64.7756C79.6974 64.9044 79.848 65.0852 79.956 65.3182H80.0014C80.1132 65.0928 80.2808 64.9138 80.5043 64.7812C80.7277 64.6468 80.9957 64.5795 81.3082 64.5795C81.6984 64.5795 82.0175 64.7017 82.2656 64.946C82.5137 65.1884 82.6378 65.5663 82.6378 66.0795V69H81.9673V66.0795C81.9673 65.7576 81.8793 65.5275 81.7031 65.3892C81.527 65.2509 81.3196 65.1818 81.081 65.1818C80.7741 65.1818 80.5365 65.2746 80.3679 65.4602C80.1993 65.6439 80.1151 65.8769 80.1151 66.1591V69H79.4332V66.0114C79.4332 65.7633 79.3527 65.5634 79.1918 65.4119C79.0308 65.2585 78.8234 65.1818 78.5696 65.1818C78.3954 65.1818 78.2325 65.2282 78.081 65.321C77.9313 65.4138 77.8101 65.5426 77.7173 65.7074C77.6264 65.8703 77.581 66.0587 77.581 66.2727V69H76.9105ZM85.1477 69.1023C84.8712 69.1023 84.6203 69.0502 84.3949 68.946C84.1695 68.84 83.9905 68.6875 83.858 68.4886C83.7254 68.2879 83.6591 68.0455 83.6591 67.7614C83.6591 67.5114 83.7083 67.3087 83.8068 67.1534C83.9053 66.9962 84.0369 66.8731 84.2017 66.7841C84.3665 66.6951 84.5483 66.6288 84.7472 66.5852C84.9479 66.5398 85.1496 66.5038 85.3523 66.4773C85.6174 66.4432 85.8324 66.4176 85.9972 66.4006C86.1638 66.3816 86.285 66.3504 86.3608 66.3068C86.4384 66.2633 86.4773 66.1875 86.4773 66.0795V66.0568C86.4773 65.7765 86.4006 65.5587 86.2472 65.4034C86.0956 65.2481 85.8655 65.1705 85.5568 65.1705C85.2367 65.1705 84.9858 65.2405 84.804 65.3807C84.6222 65.5208 84.4943 65.6705 84.4205 65.8295L83.7841 65.6023C83.8977 65.3371 84.0492 65.1307 84.2386 64.983C84.4299 64.8333 84.6383 64.7292 84.8636 64.6705C85.0909 64.6098 85.3144 64.5795 85.5341 64.5795C85.6742 64.5795 85.8352 64.5966 86.017 64.6307C86.2008 64.6629 86.3778 64.7301 86.5483 64.8324C86.7206 64.9347 86.8636 65.089 86.9773 65.2955C87.0909 65.5019 87.1477 65.7784 87.1477 66.125V69H86.4773V68.4091H86.4432C86.3977 68.5038 86.322 68.6051 86.2159 68.7131C86.1098 68.821 85.9688 68.9129 85.7926 68.9886C85.6165 69.0644 85.4015 69.1023 85.1477 69.1023ZM85.25 68.5C85.5152 68.5 85.7386 68.4479 85.9205 68.3438C86.1042 68.2396 86.2424 68.1051 86.3352 67.9403C86.4299 67.7756 86.4773 67.6023 86.4773 67.4205V66.8068C86.4489 66.8409 86.3864 66.8722 86.2898 66.9006C86.1951 66.9271 86.0852 66.9508 85.9602 66.9716C85.8371 66.9905 85.7169 67.0076 85.5994 67.0227C85.4839 67.036 85.3902 67.0473 85.3182 67.0568C85.1439 67.0795 84.9811 67.1165 84.8295 67.1676C84.6799 67.2169 84.5587 67.2917 84.4659 67.392C84.375 67.4905 84.3295 67.625 84.3295 67.7955C84.3295 68.0284 84.4157 68.2045 84.5881 68.3239C84.7623 68.4413 84.983 68.5 85.25 68.5ZM90.2692 64.6364V65.2045H88.0078V64.6364H90.2692ZM88.6669 63.5909H89.3374V67.75C89.3374 67.9394 89.3648 68.0814 89.4197 68.1761C89.4766 68.2689 89.5485 68.3314 89.6357 68.3636C89.7247 68.3939 89.8184 68.4091 89.9169 68.4091C89.9908 68.4091 90.0514 68.4053 90.0987 68.3977C90.1461 68.3883 90.1839 68.3807 90.2124 68.375L90.3487 68.9773C90.3033 68.9943 90.2398 69.0114 90.1584 69.0284C90.0769 69.0473 89.9737 69.0568 89.8487 69.0568C89.6593 69.0568 89.4737 69.0161 89.2919 68.9347C89.112 68.8532 88.9624 68.7292 88.843 68.5625C88.7256 68.3958 88.6669 68.1856 88.6669 67.9318V63.5909ZM91.2777 69V64.6364H91.9482V69H91.2777ZM91.6186 63.9091C91.4879 63.9091 91.3752 63.8646 91.2805 63.7756C91.1877 63.6866 91.1413 63.5795 91.1413 63.4545C91.1413 63.3295 91.1877 63.2225 91.2805 63.1335C91.3752 63.0445 91.4879 63 91.6186 63C91.7493 63 91.861 63.0445 91.9538 63.1335C92.0485 63.2225 92.0959 63.3295 92.0959 63.4545C92.0959 63.5795 92.0485 63.6866 91.9538 63.7756C91.861 63.8646 91.7493 63.9091 91.6186 63.9091ZM94.9489 69.0909C94.5398 69.0909 94.1875 68.9943 93.892 68.8011C93.5966 68.608 93.3693 68.3419 93.2102 68.0028C93.0511 67.6638 92.9716 67.2765 92.9716 66.8409C92.9716 66.3977 93.053 66.0066 93.2159 65.6676C93.3807 65.3267 93.6098 65.0606 93.9034 64.8693C94.1989 64.6761 94.5436 64.5795 94.9375 64.5795C95.2443 64.5795 95.5208 64.6364 95.767 64.75C96.0133 64.8636 96.215 65.0227 96.3722 65.2273C96.5294 65.4318 96.6269 65.6705 96.6648 65.9432H95.9943C95.9432 65.7443 95.8295 65.5682 95.6534 65.4148C95.4792 65.2595 95.2443 65.1818 94.9489 65.1818C94.6875 65.1818 94.4583 65.25 94.2614 65.3864C94.0663 65.5208 93.9138 65.7112 93.804 65.9574C93.696 66.2017 93.642 66.4886 93.642 66.8182C93.642 67.1553 93.6951 67.4489 93.8011 67.6989C93.9091 67.9489 94.0606 68.143 94.2557 68.2812C94.4527 68.4195 94.6837 68.4886 94.9489 68.4886C95.1231 68.4886 95.2812 68.4583 95.4233 68.3977C95.5653 68.3371 95.6856 68.25 95.7841 68.1364C95.8826 68.0227 95.9527 67.8864 95.9943 67.7273H96.6648C96.6269 67.9848 96.5331 68.2169 96.3835 68.4233C96.2358 68.6278 96.0398 68.7907 95.7955 68.9119C95.553 69.0312 95.2708 69.0909 94.9489 69.0909ZM101.838 64.6364V65.2045H99.4858V64.6364H101.838ZM100.19 69V64.0341C100.19 63.7841 100.249 63.5758 100.366 63.4091C100.484 63.2424 100.636 63.1174 100.824 63.0341C101.011 62.9508 101.209 62.9091 101.418 62.9091C101.582 62.9091 101.717 62.9223 101.821 62.9489C101.925 62.9754 102.003 63 102.054 63.0227L101.861 63.6023C101.827 63.5909 101.779 63.5767 101.719 63.5597C101.66 63.5426 101.582 63.5341 101.486 63.5341C101.264 63.5341 101.104 63.59 101.006 63.7017C100.909 63.8134 100.861 63.9773 100.861 64.1932V69H100.19ZM104.371 69.0909C103.977 69.0909 103.631 68.9972 103.334 68.8097C103.038 68.6222 102.807 68.3598 102.641 68.0227C102.476 67.6856 102.393 67.2917 102.393 66.8409C102.393 66.3864 102.476 65.9896 102.641 65.6506C102.807 65.3116 103.038 65.0483 103.334 64.8608C103.631 64.6733 103.977 64.5795 104.371 64.5795C104.765 64.5795 105.109 64.6733 105.405 64.8608C105.702 65.0483 105.933 65.3116 106.098 65.6506C106.265 65.9896 106.348 66.3864 106.348 66.8409C106.348 67.2917 106.265 67.6856 106.098 68.0227C105.933 68.3598 105.702 68.6222 105.405 68.8097C105.109 68.9972 104.765 69.0909 104.371 69.0909ZM104.371 68.4886C104.67 68.4886 104.916 68.4119 105.109 68.2585C105.303 68.1051 105.446 67.9034 105.538 67.6534C105.631 67.4034 105.678 67.1326 105.678 66.8409C105.678 66.5492 105.631 66.2775 105.538 66.0256C105.446 65.7737 105.303 65.5701 105.109 65.4148C104.916 65.2595 104.67 65.1818 104.371 65.1818C104.071 65.1818 103.825 65.2595 103.632 65.4148C103.439 65.5701 103.296 65.7737 103.203 66.0256C103.11 66.2775 103.064 66.5492 103.064 66.8409C103.064 67.1326 103.11 67.4034 103.203 67.6534C103.296 67.9034 103.439 68.1051 103.632 68.2585C103.825 68.4119 104.071 68.4886 104.371 68.4886ZM108.042 66.375V69H107.371V64.6364H108.019V65.3182H108.076C108.178 65.0966 108.334 64.9186 108.542 64.7841C108.75 64.6477 109.019 64.5795 109.349 64.5795C109.644 64.5795 109.903 64.6402 110.124 64.7614C110.346 64.8807 110.518 65.0625 110.641 65.3068C110.764 65.5492 110.826 65.8561 110.826 66.2273V69H110.156V66.2727C110.156 65.9299 110.067 65.6629 109.888 65.4716C109.71 65.2784 109.466 65.1818 109.156 65.1818C108.942 65.1818 108.75 65.2282 108.582 65.321C108.415 65.4138 108.283 65.5492 108.187 65.7273C108.09 65.9053 108.042 66.1212 108.042 66.375ZM113.949 64.6364V65.2045H111.688V64.6364H113.949ZM112.347 63.5909H113.017V67.75C113.017 67.9394 113.045 68.0814 113.099 68.1761C113.156 68.2689 113.228 68.3314 113.315 68.3636C113.404 68.3939 113.498 68.4091 113.597 68.4091C113.67 68.4091 113.731 68.4053 113.778 68.3977C113.826 68.3883 113.864 68.3807 113.892 68.375L114.028 68.9773C113.983 68.9943 113.92 69.0114 113.838 69.0284C113.757 69.0473 113.653 69.0568 113.528 69.0568C113.339 69.0568 113.153 69.0161 112.972 68.9347C112.792 68.8532 112.642 68.7292 112.523 68.5625C112.405 68.3958 112.347 68.1856 112.347 67.9318V63.5909ZM118.491 69.1023C118.215 69.1023 117.964 69.0502 117.739 68.946C117.513 68.84 117.334 68.6875 117.202 68.4886C117.069 68.2879 117.003 68.0455 117.003 67.7614C117.003 67.5114 117.052 67.3087 117.151 67.1534C117.249 66.9962 117.381 66.8731 117.545 66.7841C117.71 66.6951 117.892 66.6288 118.091 66.5852C118.292 66.5398 118.493 66.5038 118.696 66.4773C118.961 66.4432 119.176 66.4176 119.341 66.4006C119.508 66.3816 119.629 66.3504 119.705 66.3068C119.782 66.2633 119.821 66.1875 119.821 66.0795V66.0568C119.821 65.7765 119.744 65.5587 119.591 65.4034C119.439 65.2481 119.209 65.1705 118.901 65.1705C118.58 65.1705 118.33 65.2405 118.148 65.3807C117.966 65.5208 117.838 65.6705 117.764 65.8295L117.128 65.6023C117.241 65.3371 117.393 65.1307 117.582 64.983C117.774 64.8333 117.982 64.7292 118.207 64.6705C118.435 64.6098 118.658 64.5795 118.878 64.5795C119.018 64.5795 119.179 64.5966 119.361 64.6307C119.545 64.6629 119.722 64.7301 119.892 64.8324C120.064 64.9347 120.207 65.089 120.321 65.2955C120.435 65.5019 120.491 65.7784 120.491 66.125V69H119.821V68.4091H119.787C119.741 68.5038 119.666 68.6051 119.56 68.7131C119.454 68.821 119.313 68.9129 119.136 68.9886C118.96 69.0644 118.745 69.1023 118.491 69.1023ZM118.594 68.5C118.859 68.5 119.082 68.4479 119.264 68.3438C119.448 68.2396 119.586 68.1051 119.679 67.9403C119.774 67.7756 119.821 67.6023 119.821 67.4205V66.8068C119.793 66.8409 119.73 66.8722 119.634 66.9006C119.539 66.9271 119.429 66.9508 119.304 66.9716C119.181 66.9905 119.061 67.0076 118.943 67.0227C118.828 67.036 118.734 67.0473 118.662 67.0568C118.488 67.0795 118.325 67.1165 118.173 67.1676C118.024 67.2169 117.902 67.2917 117.81 67.392C117.719 67.4905 117.673 67.625 117.673 67.7955C117.673 68.0284 117.759 68.2045 117.932 68.3239C118.106 68.4413 118.327 68.5 118.594 68.5ZM122.386 66.375V69H121.715V64.6364H122.363V65.3182H122.42C122.522 65.0966 122.677 64.9186 122.886 64.7841C123.094 64.6477 123.363 64.5795 123.692 64.5795C123.988 64.5795 124.246 64.6402 124.468 64.7614C124.69 64.8807 124.862 65.0625 124.985 65.3068C125.108 65.5492 125.17 65.8561 125.17 66.2273V69H124.499V66.2727C124.499 65.9299 124.41 65.6629 124.232 65.4716C124.054 65.2784 123.81 65.1818 123.499 65.1818C123.285 65.1818 123.094 65.2282 122.925 65.321C122.759 65.4138 122.627 65.5492 122.531 65.7273C122.434 65.9053 122.386 66.1212 122.386 66.375ZM128.043 69.0909C127.679 69.0909 127.358 68.9991 127.08 68.8153C126.801 68.6297 126.583 68.3684 126.426 68.0312C126.269 67.6922 126.19 67.2917 126.19 66.8295C126.19 66.3712 126.269 65.9735 126.426 65.6364C126.583 65.2992 126.802 65.0388 127.082 64.8551C127.363 64.6714 127.687 64.5795 128.054 64.5795C128.338 64.5795 128.563 64.6269 128.727 64.7216C128.894 64.8144 129.021 64.9205 129.108 65.0398C129.197 65.1572 129.266 65.2538 129.315 65.3295H129.372V63.1818H130.043V69H129.395V68.3295H129.315C129.266 68.4091 129.196 68.5095 129.105 68.6307C129.014 68.75 128.884 68.857 128.716 68.9517C128.547 69.0445 128.323 69.0909 128.043 69.0909ZM128.134 68.4886C128.402 68.4886 128.63 68.4186 128.815 68.2784C129.001 68.1364 129.142 67.9403 129.239 67.6903C129.335 67.4384 129.384 67.1477 129.384 66.8182C129.384 66.4924 129.336 66.2074 129.241 65.9631C129.147 65.7169 129.007 65.5256 128.821 65.3892C128.635 65.2509 128.406 65.1818 128.134 65.1818C127.849 65.1818 127.613 65.2547 127.423 65.4006C127.236 65.5445 127.095 65.7405 127 65.9886C126.907 66.2348 126.861 66.5114 126.861 66.8182C126.861 67.1288 126.908 67.411 127.003 67.6648C127.099 67.9167 127.241 68.1174 127.429 68.267C127.618 68.4148 127.853 68.4886 128.134 68.4886ZM134.898 69.1023C134.621 69.1023 134.37 69.0502 134.145 68.946C133.92 68.84 133.741 68.6875 133.608 68.4886C133.475 68.2879 133.409 68.0455 133.409 67.7614C133.409 67.5114 133.458 67.3087 133.557 67.1534C133.655 66.9962 133.787 66.8731 133.952 66.7841C134.116 66.6951 134.298 66.6288 134.497 66.5852C134.698 66.5398 134.9 66.5038 135.102 66.4773C135.367 66.4432 135.582 66.4176 135.747 66.4006C135.914 66.3816 136.035 66.3504 136.111 66.3068C136.188 66.2633 136.227 66.1875 136.227 66.0795V66.0568C136.227 65.7765 136.151 65.5587 135.997 65.4034C135.846 65.2481 135.616 65.1705 135.307 65.1705C134.987 65.1705 134.736 65.2405 134.554 65.3807C134.372 65.5208 134.244 65.6705 134.17 65.8295L133.534 65.6023C133.648 65.3371 133.799 65.1307 133.989 64.983C134.18 64.8333 134.388 64.7292 134.614 64.6705C134.841 64.6098 135.064 64.5795 135.284 64.5795C135.424 64.5795 135.585 64.5966 135.767 64.6307C135.951 64.6629 136.128 64.7301 136.298 64.8324C136.471 64.9347 136.614 65.089 136.727 65.2955C136.841 65.5019 136.898 65.7784 136.898 66.125V69H136.227V68.4091H136.193C136.148 68.5038 136.072 68.6051 135.966 68.7131C135.86 68.821 135.719 68.9129 135.543 68.9886C135.366 69.0644 135.152 69.1023 134.898 69.1023ZM135 68.5C135.265 68.5 135.489 68.4479 135.67 68.3438C135.854 68.2396 135.992 68.1051 136.085 67.9403C136.18 67.7756 136.227 67.6023 136.227 67.4205V66.8068C136.199 66.8409 136.136 66.8722 136.04 66.9006C135.945 66.9271 135.835 66.9508 135.71 66.9716C135.587 66.9905 135.467 67.0076 135.349 67.0227C135.234 67.036 135.14 67.0473 135.068 67.0568C134.894 67.0795 134.731 67.1165 134.58 67.1676C134.43 67.2169 134.309 67.2917 134.216 67.392C134.125 67.4905 134.08 67.625 134.08 67.7955C134.08 68.0284 134.166 68.2045 134.338 68.3239C134.512 68.4413 134.733 68.5 135 68.5ZM138.792 63.1818V69H138.121V63.1818H138.792ZM140.02 70.6364V64.6364H140.668V65.3295H140.747C140.796 65.2538 140.865 65.1572 140.952 65.0398C141.041 64.9205 141.168 64.8144 141.332 64.7216C141.499 64.6269 141.724 64.5795 142.009 64.5795C142.376 64.5795 142.7 64.6714 142.98 64.8551C143.26 65.0388 143.479 65.2992 143.636 65.6364C143.794 65.9735 143.872 66.3712 143.872 66.8295C143.872 67.2917 143.794 67.6922 143.636 68.0312C143.479 68.3684 143.261 68.6297 142.983 68.8153C142.705 68.9991 142.384 69.0909 142.02 69.0909C141.74 69.0909 141.515 69.0445 141.347 68.9517C141.178 68.857 141.048 68.75 140.957 68.6307C140.866 68.5095 140.796 68.4091 140.747 68.3295H140.69V70.6364H140.02ZM140.679 66.8182C140.679 67.1477 140.727 67.4384 140.824 67.6903C140.92 67.9403 141.062 68.1364 141.247 68.2784C141.433 68.4186 141.66 68.4886 141.929 68.4886C142.209 68.4886 142.443 68.4148 142.631 68.267C142.82 68.1174 142.962 67.9167 143.057 67.6648C143.153 67.411 143.202 67.1288 143.202 66.8182C143.202 66.5114 143.154 66.2348 143.06 65.9886C142.967 65.7405 142.826 65.5445 142.636 65.4006C142.449 65.2547 142.213 65.1818 141.929 65.1818C141.656 65.1818 141.427 65.2509 141.241 65.3892C141.056 65.5256 140.916 65.7169 140.821 65.9631C140.726 66.2074 140.679 66.4924 140.679 66.8182ZM145.565 66.375V69H144.895V63.1818H145.565V65.3182H145.622C145.724 65.0928 145.878 64.9138 146.082 64.7812C146.289 64.6468 146.563 64.5795 146.906 64.5795C147.204 64.5795 147.464 64.6392 147.688 64.7585C147.911 64.8759 148.084 65.0568 148.207 65.3011C148.332 65.5436 148.395 65.8523 148.395 66.2273V69H147.724V66.2727C147.724 65.9261 147.634 65.6581 147.455 65.4688C147.277 65.2775 147.029 65.1818 146.713 65.1818C146.493 65.1818 146.296 65.2282 146.122 65.321C145.95 65.4138 145.813 65.5492 145.713 65.7273C145.615 65.9053 145.565 66.1212 145.565 66.375ZM150.906 69.1023C150.629 69.1023 150.378 69.0502 150.153 68.946C149.927 68.84 149.748 68.6875 149.616 68.4886C149.483 68.2879 149.417 68.0455 149.417 67.7614C149.417 67.5114 149.466 67.3087 149.565 67.1534C149.663 66.9962 149.795 66.8731 149.96 66.7841C150.124 66.6951 150.306 66.6288 150.505 66.5852C150.706 66.5398 150.907 66.5038 151.11 66.4773C151.375 66.4432 151.59 66.4176 151.755 66.4006C151.922 66.3816 152.043 66.3504 152.119 66.3068C152.196 66.2633 152.235 66.1875 152.235 66.0795V66.0568C152.235 65.7765 152.158 65.5587 152.005 65.4034C151.853 65.2481 151.623 65.1705 151.315 65.1705C150.995 65.1705 150.744 65.2405 150.562 65.3807C150.38 65.5208 150.252 65.6705 150.178 65.8295L149.542 65.6023C149.656 65.3371 149.807 65.1307 149.996 64.983C150.188 64.8333 150.396 64.7292 150.621 64.6705C150.849 64.6098 151.072 64.5795 151.292 64.5795C151.432 64.5795 151.593 64.5966 151.775 64.6307C151.959 64.6629 152.136 64.7301 152.306 64.8324C152.478 64.9347 152.621 65.089 152.735 65.2955C152.849 65.5019 152.906 65.7784 152.906 66.125V69H152.235V68.4091H152.201C152.156 68.5038 152.08 68.6051 151.974 68.7131C151.868 68.821 151.727 68.9129 151.55 68.9886C151.374 69.0644 151.159 69.1023 150.906 69.1023ZM151.008 68.5C151.273 68.5 151.496 68.4479 151.678 68.3438C151.862 68.2396 152 68.1051 152.093 67.9403C152.188 67.7756 152.235 67.6023 152.235 67.4205V66.8068C152.207 66.8409 152.144 66.8722 152.048 66.9006C151.953 66.9271 151.843 66.9508 151.718 66.9716C151.595 66.9905 151.475 67.0076 151.357 67.0227C151.242 67.036 151.148 67.0473 151.076 67.0568C150.902 67.0795 150.739 67.1165 150.587 67.1676C150.438 67.2169 150.317 67.2917 150.224 67.392C150.133 67.4905 150.087 67.625 150.087 67.7955C150.087 68.0284 150.174 68.2045 150.346 68.3239C150.52 68.4413 150.741 68.5 151.008 68.5ZM154.22 69V63.1818H154.891V65.3295H154.947C154.997 65.2538 155.065 65.1572 155.152 65.0398C155.241 64.9205 155.368 64.8144 155.533 64.7216C155.699 64.6269 155.925 64.5795 156.209 64.5795C156.576 64.5795 156.9 64.6714 157.18 64.8551C157.461 65.0388 157.679 65.2992 157.837 65.6364C157.994 65.9735 158.072 66.3712 158.072 66.8295C158.072 67.2917 157.994 67.6922 157.837 68.0312C157.679 68.3684 157.462 68.6297 157.183 68.8153C156.905 68.9991 156.584 69.0909 156.22 69.0909C155.94 69.0909 155.715 69.0445 155.547 68.9517C155.378 68.857 155.249 68.75 155.158 68.6307C155.067 68.5095 154.997 68.4091 154.947 68.3295H154.868V69H154.22ZM154.879 66.8182C154.879 67.1477 154.928 67.4384 155.024 67.6903C155.121 67.9403 155.262 68.1364 155.447 68.2784C155.633 68.4186 155.86 68.4886 156.129 68.4886C156.41 68.4886 156.643 68.4148 156.831 68.267C157.02 68.1174 157.162 67.9167 157.257 67.6648C157.354 67.411 157.402 67.1288 157.402 66.8182C157.402 66.5114 157.355 66.2348 157.26 65.9886C157.167 65.7405 157.026 65.5445 156.837 65.4006C156.649 65.2547 156.413 65.1818 156.129 65.1818C155.857 65.1818 155.627 65.2509 155.442 65.3892C155.256 65.5256 155.116 65.7169 155.021 65.9631C154.927 66.2074 154.879 66.4924 154.879 66.8182ZM160.928 69.0909C160.507 69.0909 160.144 68.9981 159.839 68.8125C159.536 68.625 159.303 68.3636 159.138 68.0284C158.975 67.6913 158.893 67.2992 158.893 66.8523C158.893 66.4053 158.975 66.0114 159.138 65.6705C159.303 65.3277 159.532 65.0606 159.825 64.8693C160.121 64.6761 160.465 64.5795 160.859 64.5795C161.087 64.5795 161.311 64.6174 161.533 64.6932C161.754 64.7689 161.956 64.892 162.138 65.0625C162.32 65.2311 162.464 65.4545 162.572 65.733C162.68 66.0114 162.734 66.3542 162.734 66.7614V67.0455H159.371V66.4659H162.053C162.053 66.2197 162.003 66 161.905 65.8068C161.808 65.6136 161.67 65.4612 161.49 65.3494C161.312 65.2377 161.102 65.1818 160.859 65.1818C160.592 65.1818 160.361 65.2481 160.166 65.3807C159.973 65.5114 159.824 65.6818 159.72 65.892C159.616 66.1023 159.564 66.3277 159.564 66.5682V66.9545C159.564 67.2841 159.621 67.5634 159.734 67.7926C159.85 68.0199 160.01 68.1932 160.214 68.3125C160.419 68.4299 160.657 68.4886 160.928 68.4886C161.104 68.4886 161.263 68.464 161.405 68.4148C161.549 68.3636 161.673 68.2879 161.777 68.1875C161.881 68.0852 161.962 67.9583 162.018 67.8068L162.666 67.9886C162.598 68.2083 162.483 68.4015 162.322 68.5682C162.161 68.733 161.963 68.8617 161.726 68.9545C161.489 69.0455 161.223 69.0909 160.928 69.0909ZM165.652 64.6364V65.2045H163.391V64.6364H165.652ZM164.05 63.5909H164.72V67.75C164.72 67.9394 164.748 68.0814 164.803 68.1761C164.859 68.2689 164.931 68.3314 165.018 68.3636C165.107 68.3939 165.201 68.4091 165.3 68.4091C165.374 68.4091 165.434 68.4053 165.482 68.3977C165.529 68.3883 165.567 68.3807 165.595 68.375L165.732 68.9773C165.686 68.9943 165.623 69.0114 165.541 69.0284C165.46 69.0473 165.357 69.0568 165.232 69.0568C165.042 69.0568 164.857 69.0161 164.675 68.9347C164.495 68.8532 164.345 68.7292 164.226 68.5625C164.108 68.3958 164.05 68.1856 164.05 67.9318V63.5909ZM170.672 70.7273C170.348 70.7273 170.07 70.6856 169.837 70.6023C169.604 70.5208 169.41 70.4129 169.254 70.2784C169.101 70.1458 168.979 70.0038 168.888 69.8523L169.422 69.4773C169.482 69.5568 169.559 69.6477 169.652 69.75C169.745 69.8542 169.872 69.9441 170.033 70.0199C170.196 70.0975 170.409 70.1364 170.672 70.1364C171.024 70.1364 171.315 70.0511 171.544 69.8807C171.773 69.7102 171.888 69.4432 171.888 69.0795V68.1932H171.831C171.782 68.2727 171.712 68.3712 171.621 68.4886C171.532 68.6042 171.403 68.7074 171.234 68.7983C171.068 68.8873 170.842 68.9318 170.558 68.9318C170.206 68.9318 169.89 68.8485 169.609 68.6818C169.331 68.5152 169.11 68.2727 168.947 67.9545C168.786 67.6364 168.706 67.25 168.706 66.7955C168.706 66.3485 168.785 65.9593 168.942 65.6278C169.099 65.2945 169.318 65.0369 169.598 64.8551C169.878 64.6714 170.202 64.5795 170.57 64.5795C170.854 64.5795 171.079 64.6269 171.246 64.7216C171.414 64.8144 171.543 64.9205 171.632 65.0398C171.723 65.1572 171.793 65.2538 171.842 65.3295H171.911V64.6364H172.558V69.125C172.558 69.5 172.473 69.8049 172.303 70.0398C172.134 70.2765 171.907 70.4498 171.621 70.5597C171.337 70.6714 171.02 70.7273 170.672 70.7273ZM170.649 68.3295C170.918 68.3295 171.145 68.268 171.331 68.1449C171.517 68.0218 171.658 67.8447 171.754 67.6136C171.851 67.3826 171.899 67.1061 171.899 66.7841C171.899 66.4697 171.852 66.1922 171.757 65.9517C171.662 65.7112 171.522 65.5227 171.337 65.3864C171.151 65.25 170.922 65.1818 170.649 65.1818C170.365 65.1818 170.128 65.2538 169.939 65.3977C169.751 65.5417 169.61 65.7348 169.516 65.9773C169.423 66.2197 169.376 66.4886 169.376 66.7841C169.376 67.0871 169.424 67.3551 169.518 67.5881C169.615 67.8191 169.757 68.0009 169.945 68.1335C170.134 68.2642 170.369 68.3295 170.649 68.3295ZM175.615 69.0909C175.195 69.0909 174.832 68.9981 174.527 68.8125C174.224 68.625 173.99 68.3636 173.825 68.0284C173.662 67.6913 173.581 67.2992 173.581 66.8523C173.581 66.4053 173.662 66.0114 173.825 65.6705C173.99 65.3277 174.219 65.0606 174.513 64.8693C174.808 64.6761 175.153 64.5795 175.547 64.5795C175.774 64.5795 175.999 64.6174 176.22 64.6932C176.442 64.7689 176.643 64.892 176.825 65.0625C177.007 65.2311 177.152 65.4545 177.26 65.733C177.368 66.0114 177.422 66.3542 177.422 66.7614V67.0455H174.058V66.4659H176.74C176.74 66.2197 176.691 66 176.592 65.8068C176.496 65.6136 176.357 65.4612 176.178 65.3494C176 65.2377 175.789 65.1818 175.547 65.1818C175.28 65.1818 175.049 65.2481 174.854 65.3807C174.661 65.5114 174.512 65.6818 174.408 65.892C174.304 66.1023 174.251 66.3277 174.251 66.5682V66.9545C174.251 67.2841 174.308 67.5634 174.422 67.7926C174.537 68.0199 174.697 68.1932 174.902 68.3125C175.107 68.4299 175.344 68.4886 175.615 68.4886C175.791 68.4886 175.95 68.464 176.092 68.4148C176.236 68.3636 176.36 68.2879 176.464 68.1875C176.569 68.0852 176.649 67.9583 176.706 67.8068L177.354 67.9886C177.286 68.2083 177.171 68.4015 177.01 68.5682C176.849 68.733 176.65 68.8617 176.413 68.9545C176.177 69.0455 175.911 69.0909 175.615 69.0909ZM179.112 66.375V69H178.442V64.6364H179.089V65.3182H179.146C179.249 65.0966 179.404 64.9186 179.612 64.7841C179.821 64.6477 180.089 64.5795 180.419 64.5795C180.714 64.5795 180.973 64.6402 181.195 64.7614C181.416 64.8807 181.589 65.0625 181.712 65.3068C181.835 65.5492 181.896 65.8561 181.896 66.2273V69H181.226V66.2727C181.226 65.9299 181.137 65.6629 180.959 65.4716C180.781 65.2784 180.536 65.1818 180.226 65.1818C180.012 65.1818 179.821 65.2282 179.652 65.321C179.485 65.4138 179.354 65.5492 179.257 65.7273C179.161 65.9053 179.112 66.1212 179.112 66.375ZM184.951 69.0909C184.531 69.0909 184.168 68.9981 183.863 68.8125C183.56 68.625 183.326 68.3636 183.161 68.0284C182.998 67.6913 182.917 67.2992 182.917 66.8523C182.917 66.4053 182.998 66.0114 183.161 65.6705C183.326 65.3277 183.555 65.0606 183.849 64.8693C184.144 64.6761 184.489 64.5795 184.883 64.5795C185.11 64.5795 185.335 64.6174 185.556 64.6932C185.778 64.7689 185.979 64.892 186.161 65.0625C186.343 65.2311 186.488 65.4545 186.596 65.733C186.704 66.0114 186.758 66.3542 186.758 66.7614V67.0455H183.394V66.4659H186.076C186.076 66.2197 186.027 66 185.928 65.8068C185.832 65.6136 185.693 65.4612 185.513 65.3494C185.335 65.2377 185.125 65.1818 184.883 65.1818C184.616 65.1818 184.385 65.2481 184.19 65.3807C183.996 65.5114 183.848 65.6818 183.744 65.892C183.639 66.1023 183.587 66.3277 183.587 66.5682V66.9545C183.587 67.2841 183.644 67.5634 183.758 67.7926C183.873 68.0199 184.033 68.1932 184.238 68.3125C184.442 68.4299 184.68 68.4886 184.951 68.4886C185.127 68.4886 185.286 68.464 185.428 68.4148C185.572 68.3636 185.696 68.2879 185.8 68.1875C185.905 68.0852 185.985 67.9583 186.042 67.8068L186.69 67.9886C186.621 68.2083 186.507 68.4015 186.346 68.5682C186.185 68.733 185.986 68.8617 185.749 68.9545C185.513 69.0455 185.246 69.0909 184.951 69.0909ZM187.778 69V64.6364H188.425V65.2955H188.471C188.55 65.0795 188.694 64.9044 188.903 64.7699C189.111 64.6354 189.346 64.5682 189.607 64.5682C189.656 64.5682 189.718 64.5691 189.792 64.571C189.866 64.5729 189.922 64.5758 189.96 64.5795V65.2614C189.937 65.2557 189.885 65.2472 189.803 65.2358C189.724 65.2225 189.639 65.2159 189.55 65.2159C189.338 65.2159 189.149 65.2604 188.982 65.3494C188.817 65.4366 188.687 65.5578 188.59 65.7131C188.496 65.8665 188.448 66.0417 188.448 66.2386V69H187.778ZM192.038 69.1023C191.762 69.1023 191.511 69.0502 191.286 68.946C191.06 68.84 190.881 68.6875 190.749 68.4886C190.616 68.2879 190.55 68.0455 190.55 67.7614C190.55 67.5114 190.599 67.3087 190.697 67.1534C190.796 66.9962 190.928 66.8731 191.092 66.7841C191.257 66.6951 191.439 66.6288 191.638 66.5852C191.839 66.5398 192.04 66.5038 192.243 66.4773C192.508 66.4432 192.723 66.4176 192.888 66.4006C193.054 66.3816 193.176 66.3504 193.251 66.3068C193.329 66.2633 193.368 66.1875 193.368 66.0795V66.0568C193.368 65.7765 193.291 65.5587 193.138 65.4034C192.986 65.2481 192.756 65.1705 192.447 65.1705C192.127 65.1705 191.876 65.2405 191.695 65.3807C191.513 65.5208 191.385 65.6705 191.311 65.8295L190.675 65.6023C190.788 65.3371 190.94 65.1307 191.129 64.983C191.321 64.8333 191.529 64.7292 191.754 64.6705C191.982 64.6098 192.205 64.5795 192.425 64.5795C192.565 64.5795 192.726 64.5966 192.908 64.6307C193.091 64.6629 193.268 64.7301 193.439 64.8324C193.611 64.9347 193.754 65.089 193.868 65.2955C193.982 65.5019 194.038 65.7784 194.038 66.125V69H193.368V68.4091H193.334C193.288 68.5038 193.213 68.6051 193.107 68.7131C193 68.821 192.859 68.9129 192.683 68.9886C192.507 69.0644 192.292 69.1023 192.038 69.1023ZM192.141 68.5C192.406 68.5 192.629 68.4479 192.811 68.3438C192.995 68.2396 193.133 68.1051 193.226 67.9403C193.321 67.7756 193.368 67.6023 193.368 67.4205V66.8068C193.339 66.8409 193.277 66.8722 193.18 66.9006C193.086 66.9271 192.976 66.9508 192.851 66.9716C192.728 66.9905 192.607 67.0076 192.49 67.0227C192.375 67.036 192.281 67.0473 192.209 67.0568C192.035 67.0795 191.872 67.1165 191.72 67.1676C191.571 67.2169 191.449 67.2917 191.357 67.392C191.266 67.4905 191.22 67.625 191.22 67.7955C191.22 68.0284 191.306 68.2045 191.479 68.3239C191.653 68.4413 191.874 68.5 192.141 68.5ZM197.16 64.6364V65.2045H194.898V64.6364H197.16ZM195.558 63.5909H196.228V67.75C196.228 67.9394 196.255 68.0814 196.31 68.1761C196.367 68.2689 196.439 68.3314 196.526 68.3636C196.615 68.3939 196.709 68.4091 196.808 68.4091C196.881 68.4091 196.942 68.4053 196.989 68.3977C197.037 68.3883 197.075 68.3807 197.103 68.375L197.239 68.9773C197.194 68.9943 197.13 69.0114 197.049 69.0284C196.968 69.0473 196.864 69.0568 196.739 69.0568C196.55 69.0568 196.364 69.0161 196.183 68.9347C196.003 68.8532 195.853 68.7292 195.734 68.5625C195.616 68.3958 195.558 68.1856 195.558 67.9318V63.5909ZM199.894 69.0909C199.5 69.0909 199.155 68.9972 198.857 68.8097C198.562 68.6222 198.331 68.3598 198.164 68.0227C197.999 67.6856 197.917 67.2917 197.917 66.8409C197.917 66.3864 197.999 65.9896 198.164 65.6506C198.331 65.3116 198.562 65.0483 198.857 64.8608C199.155 64.6733 199.5 64.5795 199.894 64.5795C200.288 64.5795 200.633 64.6733 200.928 64.8608C201.226 65.0483 201.457 65.3116 201.621 65.6506C201.788 65.9896 201.871 66.3864 201.871 66.8409C201.871 67.2917 201.788 67.6856 201.621 68.0227C201.457 68.3598 201.226 68.6222 200.928 68.8097C200.633 68.9972 200.288 69.0909 199.894 69.0909ZM199.894 68.4886C200.193 68.4886 200.44 68.4119 200.633 68.2585C200.826 68.1051 200.969 67.9034 201.062 67.6534C201.155 67.4034 201.201 67.1326 201.201 66.8409C201.201 66.5492 201.155 66.2775 201.062 66.0256C200.969 65.7737 200.826 65.5701 200.633 65.4148C200.44 65.2595 200.193 65.1818 199.894 65.1818C199.595 65.1818 199.349 65.2595 199.156 65.4148C198.962 65.5701 198.819 65.7737 198.727 66.0256C198.634 66.2775 198.587 66.5492 198.587 66.8409C198.587 67.1326 198.634 67.4034 198.727 67.6534C198.819 67.9034 198.962 68.1051 199.156 68.2585C199.349 68.4119 199.595 68.4886 199.894 68.4886ZM202.895 69V64.6364H203.543V65.2955H203.588C203.668 65.0795 203.812 64.9044 204.02 64.7699C204.228 64.6354 204.463 64.5682 204.724 64.5682C204.774 64.5682 204.835 64.5691 204.909 64.571C204.983 64.5729 205.039 64.5758 205.077 64.5795V65.2614C205.054 65.2557 205.002 65.2472 204.92 65.2358C204.841 65.2225 204.757 65.2159 204.668 65.2159C204.455 65.2159 204.266 65.2604 204.099 65.3494C203.935 65.4366 203.804 65.5578 203.707 65.7131C203.613 65.8665 203.565 66.0417 203.565 66.2386V69H202.895Z" fill="black"/>
<line id="Line 11" x1="-28.5524" y1="46.0395" x2="62.4476" y2="-22.9605" stroke="#795DF4" stroke-width="25"/>
<line id="Line 12" x1="101.88" y1="-12.9019" x2="265.88" y2="24.0981" stroke="#F45DD8" stroke-width="8"/>
</g>
<defs>
<clipPath id="clip0_1_3">
<rect width="250" height="80" fill="white"/>
</clipPath>
</defs>
</svg>
