<svg width="250" height="80" viewBox="0 0 250 80" fill="none" xmlns="http://www.w3.org/2000/svg">
<g id="Betastosterone" clip-path="url(#clip0_1_3)">
<rect id="Rectangle 1" width="250" height="79" rx="7" fill="#1151AC"/>
<path id="Testing the boundaries of Test!" d="M52.2305 65.54H50.3455V71H49.3055V65.54H47.4205V64.63H52.2305V65.54ZM57.7539 71H54.1139C53.8626 71 53.6459 70.9133 53.4639 70.74C53.2906 70.558 53.2039 70.3413 53.2039 70.09V67.36C53.2039 67.1087 53.2906 66.8963 53.4639 66.723C53.6459 66.541 53.8626 66.45 54.1139 66.45H56.8439C57.0953 66.45 57.3076 66.541 57.4809 66.723C57.6629 66.8963 57.7539 67.1087 57.7539 67.36V68.27L56.8439 69.18H54.2439L55.0239 68.4H56.8439V67.23H54.1139V70.22H57.7539V71ZM62.8884 66.45L62.0954 67.23H59.8984V68.27H61.7184C61.9698 68.27 62.1821 68.361 62.3554 68.543C62.5374 68.7163 62.6284 68.9287 62.6284 69.18V70.09C62.6284 70.3413 62.5374 70.558 62.3554 70.74C62.1821 70.9133 61.9698 71 61.7184 71H58.9884V70.22H61.7184V69.05H59.8984C59.6471 69.05 59.4304 68.9633 59.2484 68.79C59.0751 68.608 58.9884 68.3913 58.9884 68.14V67.36C58.9884 67.1087 59.0751 66.8963 59.2484 66.723C59.4304 66.541 59.6471 66.45 59.8984 66.45H62.8884ZM67.2389 71H65.4189C65.1675 71 64.9509 70.9133 64.7689 70.74C64.5955 70.558 64.5089 70.3413 64.5089 70.09V67.23H63.2089L63.9889 66.45H64.5089V65.54L65.4189 64.63V66.45H67.2389V67.23H65.4189V70.22H67.2389V71ZM69.4499 65.67H68.5399V64.63H69.4499V65.67ZM69.4499 71H68.5399V67.1L69.4499 66.19V71ZM75.8194 71H74.9094V67.23H72.1794V71H71.2694V66.45H72.1794V67.1L72.8294 66.45H74.9094C75.1607 66.45 75.373 66.541 75.5464 66.723C75.7284 66.8963 75.8194 67.1087 75.8194 67.36V71ZM82.7124 66.45L81.9324 67.23H78.6824V70.22H81.4124V67.62H82.3224V72.82C82.3224 73.0713 82.2314 73.2837 82.0494 73.457C81.8761 73.639 81.6638 73.73 81.4124 73.73H77.6424L78.4224 72.95H81.4124V70.337L80.6324 71H78.6824C78.4311 71 78.2144 70.9133 78.0324 70.74C77.8591 70.558 77.7724 70.3413 77.7724 70.09V67.36C77.7724 67.1087 77.8591 66.8963 78.0324 66.723C78.2144 66.541 78.4311 66.45 78.6824 66.45H82.7124ZM89.7984 71H87.9784C87.7271 71 87.5104 70.9133 87.3284 70.74C87.1551 70.558 87.0684 70.3413 87.0684 70.09V67.23H85.7684L86.5484 66.45H87.0684V65.54L87.9784 64.63V66.45H89.7984V67.23H87.9784V70.22H89.7984V71ZM95.7795 71H94.8695V67.23H92.1395V71H91.2295V64.37L92.1395 63.46V67.1L92.7895 66.45H94.8695C95.1208 66.45 95.3331 66.541 95.5065 66.723C95.6885 66.8963 95.7795 67.1087 95.7795 67.36V71ZM102.149 71H98.5095C98.2581 71 98.0415 70.9133 97.8595 70.74C97.6861 70.558 97.5995 70.3413 97.5995 70.09V67.36C97.5995 67.1087 97.6861 66.8963 97.8595 66.723C98.0415 66.541 98.2581 66.45 98.5095 66.45H101.239C101.491 66.45 101.703 66.541 101.876 66.723C102.058 66.8963 102.149 67.1087 102.149 67.36V68.27L101.239 69.18H98.6395L99.4195 68.4H101.239V67.23H98.5095V70.22H102.149V71ZM110.861 70.09C110.861 70.3413 110.77 70.558 110.588 70.74C110.415 70.9133 110.203 71 109.951 71H107.221V70.233L106.311 71.13V64.37L107.221 63.46V67.1L107.871 66.45H109.951C110.203 66.45 110.415 66.541 110.588 66.723C110.77 66.8963 110.861 67.1087 110.861 67.36V70.09ZM109.951 70.22V67.23H107.221V70.22H109.951ZM117.231 70.09C117.231 70.3413 117.14 70.558 116.958 70.74C116.785 70.9133 116.573 71 116.321 71H113.591C113.34 71 113.123 70.9133 112.941 70.74C112.768 70.558 112.681 70.3413 112.681 70.09V67.36C112.681 67.1087 112.768 66.8963 112.941 66.723C113.123 66.541 113.34 66.45 113.591 66.45H116.321C116.573 66.45 116.785 66.541 116.958 66.723C117.14 66.8963 117.231 67.1087 117.231 67.36V70.09ZM116.321 70.22V67.23H113.591V70.22H116.321ZM123.605 71H122.695V70.35L122.045 71H119.965C119.713 71 119.497 70.9133 119.315 70.74C119.141 70.558 119.055 70.3413 119.055 70.09V66.45H119.965V70.22H122.695V66.45H123.605V71ZM129.978 71H129.068V67.23H126.338V71H125.428V66.45H126.338V67.1L126.988 66.45H129.068C129.319 66.45 129.531 66.541 129.705 66.723C129.887 66.8963 129.978 67.1087 129.978 67.36V71ZM136.351 71H135.441V70.35L134.791 71H132.711C132.459 71 132.243 70.9133 132.061 70.74C131.887 70.558 131.801 70.3413 131.801 70.09V67.36C131.801 67.1087 131.887 66.8963 132.061 66.723C132.243 66.541 132.459 66.45 132.711 66.45H135.441V64.37L136.351 63.46V71ZM135.441 70.22V66.58L134.791 67.23H132.711V70.22H135.441ZM142.656 71H141.746V70.337L140.966 71H139.016C138.764 71 138.548 70.9133 138.366 70.74C138.192 70.558 138.106 70.3413 138.106 70.09V69.18C138.106 68.9287 138.192 68.7163 138.366 68.543C138.548 68.361 138.764 68.27 139.016 68.27H141.616L140.836 69.037H139.016V70.22H141.746V67.23H138.106L138.886 66.45H141.746C141.997 66.45 142.209 66.541 142.383 66.723C142.565 66.8963 142.656 67.1087 142.656 67.36V71ZM148.111 68.27H147.201V67.23H145.381V71H144.471V66.45H145.381V67.1L146.031 66.45H147.201C147.452 66.45 147.664 66.541 147.838 66.723C148.02 66.8963 148.111 67.1087 148.111 67.36V68.27ZM150.446 65.67H149.536V64.63H150.446V65.67ZM150.446 71H149.536V67.1L150.446 66.19V71ZM156.815 71H153.175C152.924 71 152.707 70.9133 152.525 70.74C152.352 70.558 152.265 70.3413 152.265 70.09V67.36C152.265 67.1087 152.352 66.8963 152.525 66.723C152.707 66.541 152.924 66.45 153.175 66.45H155.905C156.157 66.45 156.369 66.541 156.542 66.723C156.724 66.8963 156.815 67.1087 156.815 67.36V68.27L155.905 69.18H153.305L154.085 68.4H155.905V67.23H153.175V70.22H156.815V71ZM161.95 66.45L161.157 67.23H158.96V68.27H160.78C161.031 68.27 161.244 68.361 161.417 68.543C161.599 68.7163 161.69 68.9287 161.69 69.18V70.09C161.69 70.3413 161.599 70.558 161.417 70.74C161.244 70.9133 161.031 71 160.78 71H158.05V70.22H160.78V69.05H158.96C158.709 69.05 158.492 68.9633 158.31 68.79C158.137 68.608 158.05 68.3913 158.05 68.14V67.36C158.05 67.1087 158.137 66.8963 158.31 66.723C158.492 66.541 158.709 66.45 158.96 66.45H161.95ZM170.463 70.09C170.463 70.3413 170.372 70.558 170.19 70.74C170.017 70.9133 169.804 71 169.553 71H166.823C166.572 71 166.355 70.9133 166.173 70.74C166 70.558 165.913 70.3413 165.913 70.09V67.36C165.913 67.1087 166 66.8963 166.173 66.723C166.355 66.541 166.572 66.45 166.823 66.45H169.553C169.804 66.45 170.017 66.541 170.19 66.723C170.372 66.8963 170.463 67.1087 170.463 67.36V70.09ZM169.553 70.22V67.23H166.823V70.22H169.553ZM176.316 63.72L175.523 64.5H173.326V66.97L173.859 66.45H176.186L175.393 67.23H173.326V71H172.416V64.63C172.416 64.3787 172.503 64.1663 172.676 63.993C172.858 63.811 173.075 63.72 173.326 63.72H176.316ZM183.602 65.54H181.717V71H180.677V65.54H178.792V64.63H183.602V65.54ZM189.125 71H185.485C185.234 71 185.017 70.9133 184.835 70.74C184.662 70.558 184.575 70.3413 184.575 70.09V67.36C184.575 67.1087 184.662 66.8963 184.835 66.723C185.017 66.541 185.234 66.45 185.485 66.45H188.215C188.466 66.45 188.679 66.541 188.852 66.723C189.034 66.8963 189.125 67.1087 189.125 67.36V68.27L188.215 69.18H185.615L186.395 68.4H188.215V67.23H185.485V70.22H189.125V71ZM194.26 66.45L193.467 67.23H191.27V68.27H193.09C193.341 68.27 193.553 68.361 193.727 68.543C193.909 68.7163 194 68.9287 194 69.18V70.09C194 70.3413 193.909 70.558 193.727 70.74C193.553 70.9133 193.341 71 193.09 71H190.36V70.22H193.09V69.05H191.27C191.018 69.05 190.802 68.9633 190.62 68.79C190.446 68.608 190.36 68.3913 190.36 68.14V67.36C190.36 67.1087 190.446 66.8963 190.62 66.723C190.802 66.541 191.018 66.45 191.27 66.45H194.26ZM198.61 71H196.79C196.539 71 196.322 70.9133 196.14 70.74C195.967 70.558 195.88 70.3413 195.88 70.09V67.23H194.58L195.36 66.45H195.88V65.54L196.79 64.63V66.45H198.61V67.23H196.79V70.22H198.61V71ZM201.341 68.166L200.301 69.18V64.63H201.341V68.166ZM201.341 71H200.171V69.96H201.341V71Z" fill="#9FAC11"/>
<g id="Letter T">
<path id="Line 5" d="M46 49L43.6132 54L49.3867 54L47 49L46 49ZM46 14L46 49.5L47 49.5L47 14L46 14Z" fill="#E9E9E9"/>
<path id="Line 11" d="M55 14.5L50 11.6132V17.3868L55 14.5ZM50.5 14L46.5 14V15L50.5 15V14Z" fill="#E9E9E9"/>
<path id="Line 12" d="M38 14.5L43 17.3868V11.6132L38 14.5ZM46.5 14H42.5V15H46.5V14Z" fill="#E9E9E9"/>
<path id="top blueout" d="M55 12L38 12" stroke="#1151AC" stroke-width="4"/>
</g>
<g id="Letter T_2">
<path id="Line 5_2" d="M97 49L94.6132 54L100.387 54L98 49L97 49ZM97 14L97 49.5L98 49.5L98 14L97 14Z" fill="#E82817"/>
<path id="Line 11_2" d="M106 14.5L101 11.6132V17.3868L106 14.5ZM101.5 14L97.5 14V15L101.5 15V14Z" fill="#E82817"/>
<path id="Line 12_2" d="M89 14.5L94 17.3868V11.6132L89 14.5ZM97.5 14H93.5V15H97.5V14Z" fill="#E82817"/>
<path id="top blueout_2" d="M106 12L89 12" stroke="#1151AC" stroke-width="4"/>
</g>
<g id="Letter T_3">
<path id="Line 5_3" d="M148 49L145.613 54L151.387 54L149 49L148 49ZM148 14L148 49.5L149 49.5L149 14L148 14Z" fill="#E82817"/>
<path id="Line 11_3" d="M157 14.5L152 11.6132V17.3868L157 14.5ZM152.5 14L148.5 14V15L152.5 15V14Z" fill="#E82817"/>
<path id="Line 12_3" d="M140 14.5L145 17.3868V11.6132L140 14.5ZM148.5 14H144.5V15H148.5V14Z" fill="#E82817"/>
<path id="top blueout_3" d="M157 12L140 12" stroke="#1151AC" stroke-width="4"/>
</g>
<g id="Letter E">
<path id="Line 5_4" d="M23 14L20.1132 19L25.8868 19L23 14ZM22.5 49L20.1132 54L25.8867 54L23.5 49L22.5 49ZM22.5 18.5L22.5 49.5L23.5 49.5L23.5 18.5L22.5 18.5Z" fill="#E9E9E9"/>
<path id="Line 6" d="M38 14.5L33 11.6132L33 17.3868L38 14.5ZM33.5 14L23 14L23 15L33.5 15L33.5 14Z" fill="#E9E9E9"/>
<path id="Line 9" d="M38 12L23 12" stroke="#1151AC" stroke-width="4"/>
<path id="Line 7" d="M38 53.5L33 50.6132L33 56.3868L38 53.5ZM33.5 53L23 53L23 54L33.5 54L33.5 53Z" fill="#E9E9E9"/>
<path id="Line 8" d="M38 34L33 31.1132L33 36.8868L38 34ZM33.5 33.5L23 33.5L23 34.5L33.5 34.5L33.5 33.5Z" fill="#E9E9E9"/>
<path id="Line 10" d="M38 56L23 56" stroke="#1151AC" stroke-width="4"/>
</g>
<g id="Letter E_2">
<path id="Line 5_5" d="M227 14L224.113 19L229.887 19L227 14ZM226.5 49L224.113 54L229.887 54L227.5 49L226.5 49ZM226.5 18.5L226.5 49.5L227.5 49.5L227.5 18.5L226.5 18.5Z" fill="#E82817"/>
<path id="Line 6_2" d="M242 14.5L237 11.6132L237 17.3868L242 14.5ZM237.5 14L227 14L227 15L237.5 15L237.5 14Z" fill="#E82817"/>
<path id="Line 9_2" d="M242 12L227 12" stroke="#1151AC" stroke-width="4"/>
<path id="Line 7_2" d="M242 53.5L237 50.6132L237 56.3868L242 53.5ZM237.5 53L227 53L227 54L237.5 54L237.5 53Z" fill="#E82817"/>
<path id="Line 8_2" d="M242 34L237 31.1132L237 36.8868L242 34ZM237.5 33.5L227 33.5L227 34.5L237.5 34.5L237.5 33.5Z" fill="#E82817"/>
<path id="Line 10_2" d="M242 56L227 56" stroke="#1151AC" stroke-width="4"/>
</g>
<g id="Letter E_3">
<path id="Line 5_6" d="M159 14L156.113 19L161.887 19L159 14ZM158.5 49L156.113 54L161.887 54L159.5 49L158.5 49ZM158.5 18.5L158.5 49.5L159.5 49.5L159.5 18.5L158.5 18.5Z" fill="#E82817"/>
<path id="Line 6_3" d="M174 14.5L169 11.6132L169 17.3868L174 14.5ZM169.5 14L159 14L159 15L169.5 15L169.5 14Z" fill="#E82817"/>
<path id="Line 9_3" d="M174 12L159 12" stroke="#1151AC" stroke-width="4"/>
<path id="Line 7_3" d="M174 53.5L169 50.6132L169 56.3868L174 53.5ZM169.5 53L159 53L159 54L169.5 54L169.5 53Z" fill="#E82817"/>
<path id="Line 8_3" d="M174 34L169 31.1132L169 36.8868L174 34ZM169.5 33.5L159 33.5L159 34.5L169.5 34.5L169.5 33.5Z" fill="#E82817"/>
<path id="Line 10_3" d="M174 56L159 56" stroke="#1151AC" stroke-width="4"/>
</g>
<g id="Letter B">
<circle id="Ellipse 1" cx="10.5" cy="24.5" r="10.5" fill="#E9E9E9"/>
<circle id="Ellipse 3" cx="10.5" cy="43.5" r="10.5" fill="#E9E9E9"/>
<circle id="Ellipse 2" cx="10.5" cy="24.5" r="9.5" fill="#1151AC"/>
<circle id="Ellipse 4" cx="10.5" cy="43.5" r="9.5" fill="#1151AC"/>
<path id="Line 1" d="M7 14L4.11325 19L9.88675 19L7 14ZM6.5 49L4.11325 54L9.88675 54L7.5 49L6.5 49ZM6.5 18.5L6.5 49.5L7.5 49.5L7.5 18.5L6.5 18.5Z" fill="#E9E9E9"/>
<line id="Line 2" x1="-4.72185" y1="29.9825" x2="8.27815" y2="7.98254" stroke="#1151AC" stroke-width="4"/>
<line id="Line 4" x1="-2.2699" y1="61.9524" x2="3.7301" y2="48.9524" stroke="#1151AC" stroke-width="5"/>
<line id="Line 3" x1="2.5" y1="49" x2="2.5" y2="23" stroke="#1151AC" stroke-width="7"/>
</g>
<g id="Letter A">
<path id="Line 13" d="M63.5 13.8674L61.8196 19.7261L67.259 17.7903L63.5 13.8674ZM70.4896 49.1443L69.2803 54.8353L74.7197 52.8995L71.4318 48.809L70.4896 49.1443ZM63.9643 18.4368L70.5936 49.6333L71.5357 49.2981L64.9064 18.1015L63.9643 18.4368Z" fill="#E9E9E9"/>
<path id="Line 14" d="M63.5 14.1326L59.741 18.0555L65.1804 19.9913L63.5 14.1326ZM55.5682 49.0741L52.2803 53.1647L57.7197 55.1005L56.5104 49.4094L55.5682 49.0741ZM62.0936 18.3667L55.4643 49.5632L56.4064 49.8985L63.0357 18.7019L62.0936 18.3667Z" fill="#E9E9E9"/>
<line id="Line 15" x1="59.2638" y1="33.5" x2="67.7638" y2="33.5" stroke="#E9E9E9"/>
</g>
<g id="Letter S">
<path id="Line 16" d="M89 14L83.7933 15.2701L87.2388 19.9027L89 14ZM78.5855 24.0124L73.6772 25.6837L77.1228 30.3163L79.1823 24.8148L78.5855 24.0124ZM85.5661 16.8266L78.2371 24.371L78.8339 25.1734L86.1629 17.629L85.5661 16.8266Z" fill="#E82817"/>
<path id="Line 18" d="M83.1457 43.8888L88.1055 42.3649L84.7946 37.6351L82.5723 43.0696L83.1457 43.8888ZM72 54L77.2465 52.8857L73.9356 48.1559L72 54ZM82.9314 42.7216L74.9452 50.4591L75.5187 51.2784L83.5048 43.5409L82.9314 42.7216Z" fill="#E82817"/>
<path id="Line 17" d="M88.15 42L73.7 26" stroke="#E82817"/>
</g>
<g id="Letter S_2">
<path id="Line 16_2" d="M140 14L134.793 15.2701L138.239 19.9027L140 14ZM129.586 24.0124L124.677 25.6837L128.123 30.3163L130.182 24.8148L129.586 24.0124ZM136.566 16.8266L129.237 24.371L129.834 25.1734L137.163 17.629L136.566 16.8266Z" fill="#E82817"/>
<path id="Line 18_2" d="M134.146 43.8888L139.105 42.3649L135.795 37.6351L133.572 43.0696L134.146 43.8888ZM123 54L128.246 52.8857L124.936 48.1559L123 54ZM133.931 42.7216L125.945 50.4591L126.519 51.2784L134.505 43.5409L133.931 42.7216Z" fill="#E82817"/>
<path id="Line 17_2" d="M139.15 42L124.7 26" stroke="#E82817"/>
</g>
<g id="Spacing Group">
<line id="Line 19" x1="4" y1="3.5" x2="21" y2="3.5" stroke="#E82817"/>
<line id="Line 20" x1="21" y1="6.5" x2="38" y2="6.5" stroke="#E82817"/>
<line id="Line 21" x1="38" y1="3.5" x2="55" y2="3.5" stroke="#E82817"/>
<line id="Line 22" x1="55" y1="6.5" x2="72" y2="6.5" stroke="#E82817"/>
<line id="Line 23" x1="72" y1="3.5" x2="89" y2="3.5" stroke="#E9E9E9"/>
<line id="Line 24" x1="89" y1="6.5" x2="106" y2="6.5" stroke="#E9E9E9"/>
<line id="Line 25" x1="106" y1="3.5" x2="123" y2="3.5" stroke="#E9E9E9"/>
<line id="Line 26" x1="123" y1="6.5" x2="140" y2="6.5" stroke="#E9E9E9"/>
<line id="Line 27" x1="140" y1="3.5" x2="157" y2="3.5" stroke="#E9E9E9"/>
<line id="Line 28" x1="157" y1="6.5" x2="174" y2="6.5" stroke="#E9E9E9"/>
<line id="Line 29" x1="174" y1="3.5" x2="191" y2="3.5" stroke="#E9E9E9"/>
<line id="Line 30" x1="191" y1="6.5" x2="208" y2="6.5" stroke="#E9E9E9"/>
<line id="Line 31" x1="208" y1="3.5" x2="225" y2="3.5" stroke="#E9E9E9"/>
<line id="Line 32" x1="225" y1="6.5" x2="242" y2="6.5" stroke="#E9E9E9"/>
</g>
<g id="Letter O">
<path id="Line 33" d="M106.37 22L103.483 27H109.256L106.37 22ZM106.87 47V26.5H105.87V47H106.87Z" fill="#E82817"/>
<path id="Line 34" d="M122.63 47L125.517 42H119.744L122.63 47ZM123.13 42.5V22H122.13V42.5H123.13Z" fill="#E82817"/>
<line id="Line 35" y1="-0.5" x2="10.1799" y2="-0.5" transform="matrix(0.726065 -0.687626 0.459528 0.888163 106.739 23)" stroke="#E82817"/>
<line id="Line 36" y1="-0.5" x2="11.8881" y2="-0.5" transform="matrix(-0.808261 -0.588824 0.369783 -0.929118 123 22)" stroke="#E82817"/>
<line id="Line 37" y1="-0.5" x2="10.1457" y2="-0.5" transform="matrix(-0.734074 0.679069 -0.451049 -0.892499 122.268 46)" stroke="#E82817"/>
<line id="Line 38" y1="-0.5" x2="11.9265" y2="-0.5" transform="matrix(0.800843 0.598875 -0.378193 0.925727 106 46.7581)" stroke="#E82817"/>
</g>
<g id="Letter O_2">
<path id="Line 33_2" d="M191.37 22L188.483 27H194.256L191.37 22ZM191.87 47V26.5H190.87V47H191.87Z" fill="#E82817"/>
<path id="Line 34_2" d="M207.63 47L210.517 42H204.744L207.63 47ZM208.13 42.5V22H207.13V42.5H208.13Z" fill="#E82817"/>
<line id="Line 35_2" y1="-0.5" x2="10.1799" y2="-0.5" transform="matrix(0.726065 -0.687626 0.459528 0.888163 191.739 23)" stroke="#E82817"/>
<line id="Line 36_2" y1="-0.5" x2="11.8881" y2="-0.5" transform="matrix(-0.808261 -0.588824 0.369783 -0.929118 208 22)" stroke="#E82817"/>
<line id="Line 37_2" y1="-0.5" x2="10.1457" y2="-0.5" transform="matrix(-0.734074 0.679069 -0.451049 -0.892499 207.268 46)" stroke="#E82817"/>
<line id="Line 38_2" y1="-0.5" x2="11.9265" y2="-0.5" transform="matrix(0.800843 0.598875 -0.378193 0.925727 191 46.7581)" stroke="#E82817"/>
</g>
<g id="Letter R">
<path id="Line 39" d="M175 14L172.113 19H177.887L175 14ZM175.5 54V18.5H174.5V54H175.5Z" fill="#E82817"/>
<line id="Line 40" x1="175.224" y1="15.5528" x2="187.224" y2="21.5528" stroke="#E82817"/>
<line id="Line 41" x1="175.142" y1="34.578" x2="187.732" y2="26.578" stroke="#E82817"/>
<path id="Line 43" d="M191 54L190.164 48.2874L185.635 51.8679L191 54ZM175.308 34.9565L187.817 50.7799L188.602 50.1598L176.093 34.3364L175.308 34.9565Z" fill="#E82817"/>
<line id="Line 42" x1="186.998" y1="20.9585" x2="187.498" y2="26.9585" stroke="#E82817"/>
</g>
<g id="Letter N">
<path id="Line 44" d="M210 14L207.113 19L212.887 19L210 14ZM210.5 54L210.5 18.5L209.5 18.5L209.5 54L210.5 54Z" fill="#E82817"/>
<path id="Line 45" d="M224 54L224.419 47.3295L220.192 51.2623L224 54ZM222.841 49.4257L210.677 15.6594L209.945 16.3406L222.109 50.1069L222.841 49.4257Z" fill="#E82817"/>
<path id="Line 46" d="M223.689 14L220.802 19L226.576 19L223.689 14ZM224.189 52L224.189 18.5L223.189 18.5L223.189 52L224.189 52Z" fill="#E82817"/>
</g>
</g>
<defs>
<clipPath id="clip0_1_3">
<rect width="250" height="80" fill="white"/>
</clipPath>
</defs>
</svg>
