<svg width="250" height="80" viewBox="0 0 250 80" fill="none" xmlns="http://www.w3.org/2000/svg">
<g id="Deltangled" clip-path="url(#clip0_1_3)">
<rect id="Rectangle 1" width="250" height="79" rx="7" fill="#652C00"/>
<path id="Stay firmly grounded by knowing your roots" d="M9.37973 72.066C9.03506 72.066 8.7069 72.0165 8.39523 71.9175C8.08723 71.8148 7.80306 71.6828 7.54273 71.5215C7.28606 71.3565 7.0624 71.1768 6.87173 70.9825C6.68106 70.7882 6.53623 70.5975 6.43723 70.4105C6.45923 70.3812 6.5014 70.3372 6.56373 70.2785C6.62606 70.2162 6.69756 70.152 6.77823 70.086C6.8589 70.0163 6.93773 69.9522 7.01473 69.8935C7.0954 69.8312 7.1614 69.7853 7.21273 69.756C7.2934 69.8697 7.39973 70.0053 7.53173 70.163C7.66373 70.3207 7.81956 70.4765 7.99923 70.6305C8.18256 70.7808 8.38973 70.9073 8.62073 71.01C8.8554 71.109 9.11206 71.1585 9.39073 71.1585C9.74273 71.1585 10.0269 71.0925 10.2432 70.9605C10.4596 70.8248 10.6172 70.658 10.7162 70.46C10.8152 70.2583 10.8647 70.0585 10.8647 69.8605C10.8647 69.6735 10.8152 69.5085 10.7162 69.3655C10.6172 69.2225 10.4816 69.096 10.3092 68.986C10.1369 68.8723 9.93706 68.7697 9.70973 68.678C9.4824 68.5863 9.24223 68.502 8.98923 68.425C8.55656 68.2893 8.17523 68.1353 7.84523 67.963C7.51523 67.7907 7.25673 67.5762 7.06973 67.3195C6.88273 67.0628 6.78923 66.7402 6.78923 66.3515C6.78923 65.9555 6.8974 65.6273 7.11373 65.367C7.33006 65.103 7.6179 64.9068 7.97723 64.7785C8.33656 64.6465 8.72523 64.5805 9.14323 64.5805C9.52823 64.5805 9.88756 64.6318 10.2212 64.7345C10.5586 64.8372 10.8519 64.9655 11.1012 65.1195C11.3506 65.2698 11.5357 65.4238 11.6567 65.5815C11.6237 65.6328 11.5706 65.7062 11.4972 65.8015C11.4239 65.8968 11.3469 65.9903 11.2662 66.082C11.1892 66.1737 11.1214 66.2452 11.0627 66.2965C10.9637 66.1865 10.8207 66.0655 10.6337 65.9335C10.4504 65.7978 10.2286 65.6823 9.96823 65.587C9.71156 65.488 9.4164 65.4385 9.08273 65.4385C8.71606 65.4385 8.42273 65.5265 8.20273 65.7025C7.98273 65.8748 7.87273 66.1077 7.87273 66.401C7.87273 66.5587 7.91123 66.6943 7.98823 66.808C8.06523 66.9217 8.16606 67.0188 8.29073 67.0995C8.4154 67.1765 8.5529 67.2443 8.70323 67.303C8.85356 67.3617 9.0039 67.4112 9.15423 67.4515C9.51723 67.5615 9.86556 67.677 10.1992 67.798C10.5366 67.919 10.8372 68.0638 11.1012 68.2325C11.3689 68.4012 11.5797 68.6102 11.7337 68.8595C11.8877 69.1052 11.9647 69.4077 11.9647 69.767C11.9647 70.0677 11.9061 70.3555 11.7887 70.6305C11.6714 70.9055 11.5009 71.1512 11.2772 71.3675C11.0572 71.5838 10.7877 71.7543 10.4687 71.879C10.1497 72.0037 9.78673 72.066 9.37973 72.066ZM16.8675 70.977C16.8125 71.153 16.7281 71.3382 16.6145 71.5325C16.5008 71.7232 16.3431 71.8845 16.1415 72.0165C15.9398 72.1522 15.6795 72.22 15.3605 72.22C14.9498 72.22 14.6235 72.1302 14.3815 71.9505C14.1431 71.7708 13.9726 71.5343 13.87 71.241C13.7673 70.9477 13.716 70.6287 13.716 70.284C13.716 70.1043 13.7178 69.8917 13.7215 69.646C13.7288 69.4003 13.7361 69.1455 13.7435 68.8815C13.7508 68.6175 13.7581 68.3627 13.7655 68.117C13.7765 67.8677 13.7856 67.6495 13.793 67.4625C13.8003 67.2718 13.8058 67.1307 13.8095 67.039C13.4501 67.0757 13.1385 67.116 12.8745 67.16C12.6141 67.2003 12.4473 67.2315 12.374 67.2535C12.352 67.1362 12.3336 67.0133 12.319 66.885C12.308 66.753 12.2988 66.6338 12.2915 66.5275C12.2878 66.4212 12.286 66.3497 12.286 66.313C12.4913 66.2837 12.7296 66.2525 13.001 66.2195C13.276 66.1865 13.5473 66.1608 13.815 66.1425C13.8186 65.9995 13.8205 65.8235 13.8205 65.6145C13.8205 65.4018 13.8205 65.202 13.8205 65.015C13.8168 64.8573 13.8095 64.7052 13.7985 64.5585C13.7875 64.4082 13.7783 64.2835 13.771 64.1845L14.805 64.124C14.8123 64.179 14.8196 64.311 14.827 64.52C14.838 64.7253 14.8435 64.9747 14.8435 65.268C14.8435 65.378 14.8435 65.5118 14.8435 65.6695C14.8435 65.8235 14.8435 65.961 14.8435 66.082C14.9535 66.0747 15.0891 66.0673 15.2505 66.06C15.4118 66.0527 15.542 66.049 15.641 66.049C15.8133 66.0453 15.9783 66.0435 16.136 66.0435C16.2936 66.0435 16.4293 66.0453 16.543 66.049C16.6566 66.0527 16.7263 66.0563 16.752 66.06C16.7703 66.159 16.7813 66.2965 16.785 66.4725C16.7923 66.6485 16.796 66.7952 16.796 66.9125C16.7593 66.9088 16.6328 66.907 16.4165 66.907C16.2038 66.9033 15.993 66.9033 15.784 66.907C15.6336 66.9107 15.4686 66.918 15.289 66.929C15.1093 66.9363 14.9553 66.9437 14.827 66.951C14.8233 67.0463 14.816 67.1875 14.805 67.3745C14.7976 67.5615 14.7903 67.7723 14.783 68.007C14.7756 68.238 14.7683 68.4745 14.761 68.7165C14.7536 68.9548 14.7481 69.1785 14.7445 69.3875C14.7408 69.5928 14.739 69.7597 14.739 69.888C14.739 70.119 14.7518 70.339 14.7775 70.548C14.8068 70.757 14.8728 70.9293 14.9755 71.065C15.0818 71.197 15.2486 71.263 15.476 71.263C15.63 71.263 15.7546 71.208 15.85 71.098C15.9453 70.988 16.0186 70.8615 16.07 70.7185C16.125 70.5755 16.1653 70.4563 16.191 70.361C16.224 70.3977 16.2716 70.4472 16.334 70.5095C16.4 70.5682 16.4696 70.6305 16.543 70.6965C16.62 70.7625 16.6878 70.8212 16.7465 70.8725C16.8088 70.9238 16.8491 70.9587 16.8675 70.977ZM20.1333 72.1155C19.6749 72.1155 19.2588 72.055 18.8848 71.934C18.5144 71.8093 18.2193 71.6113 17.9993 71.34C17.7793 71.065 17.6693 70.7002 17.6693 70.2455C17.6693 69.8092 17.7921 69.448 18.0378 69.162C18.2834 68.876 18.6153 68.6652 19.0333 68.5295C19.4549 68.3902 19.9261 68.3205 20.4468 68.3205C20.6888 68.3205 20.9253 68.3388 21.1563 68.3755C21.3873 68.4085 21.5871 68.4488 21.7558 68.4965C21.9244 68.5405 22.0381 68.5753 22.0968 68.601C22.0858 68.48 22.0638 68.3572 22.0308 68.2325C22.0014 68.1042 21.9556 67.9923 21.8933 67.897C21.7539 67.6513 21.5504 67.4497 21.2828 67.292C21.0188 67.1307 20.6869 67.05 20.2873 67.05C19.8656 67.05 19.5081 67.1417 19.2148 67.325C18.9214 67.5047 18.7014 67.7192 18.5548 67.9685L17.6638 67.38C17.8251 67.1417 18.0378 66.9308 18.3018 66.7475C18.5658 66.5642 18.8701 66.4193 19.2148 66.313C19.5594 66.2067 19.9298 66.1535 20.3258 66.1535C20.9418 66.1535 21.4514 66.2708 21.8548 66.5055C22.2581 66.7402 22.5533 67.05 22.7403 67.435C22.8356 67.6293 22.9108 67.842 22.9658 68.073C23.0208 68.304 23.0538 68.59 23.0648 68.931C23.0721 69.2903 23.0794 69.5965 23.0868 69.8495C23.0978 70.1025 23.1088 70.3207 23.1198 70.504C23.1381 70.7423 23.1748 70.8963 23.2298 70.966C23.2848 71.0357 23.3636 71.0705 23.4663 71.0705C23.5836 71.0705 23.6826 71.021 23.7633 70.922C23.8439 70.8193 23.8898 70.6763 23.9008 70.493L24.4288 71.076C24.4068 71.384 24.2986 71.6187 24.1043 71.78C23.9099 71.9413 23.6826 72.022 23.4223 72.022C23.2169 72.022 23.0354 71.9835 22.8778 71.9065C22.7238 71.8258 22.6009 71.7232 22.5093 71.5985C22.4176 71.4738 22.3644 71.3455 22.3498 71.2135C22.2764 71.3492 22.1334 71.4867 21.9208 71.626C21.7118 71.7653 21.4533 71.8827 21.1453 71.978C20.8409 72.0697 20.5036 72.1155 20.1333 72.1155ZM20.3313 71.252C20.5696 71.252 20.8024 71.2153 21.0298 71.142C21.2571 71.0687 21.4661 70.9715 21.6568 70.8505C21.8511 70.7295 22.0106 70.5957 22.1353 70.449C22.1316 70.2217 22.1316 70.02 22.1353 69.844C22.1389 69.6643 22.1444 69.4993 22.1518 69.349C22.0454 69.3123 21.8419 69.2647 21.5413 69.206C21.2406 69.1437 20.9014 69.1125 20.5238 69.1125C20.1974 69.1125 19.9004 69.1565 19.6328 69.2445C19.3688 69.3288 19.1579 69.4517 19.0003 69.613C18.8463 69.7743 18.7693 69.9687 18.7693 70.196C18.7693 70.471 18.8353 70.6855 18.9673 70.8395C19.1029 70.9898 19.2881 71.0962 19.5228 71.1585C19.7574 71.2208 20.0269 71.252 20.3313 71.252ZM26.6118 74.904C26.0985 74.904 25.642 74.8233 25.2423 74.662C24.8427 74.5007 24.531 74.3412 24.3073 74.1835C24.333 74.1138 24.377 74.0185 24.4393 73.8975C24.5017 73.7802 24.5677 73.6628 24.6373 73.5455C24.707 73.4282 24.7657 73.3383 24.8133 73.276C24.9123 73.3493 25.059 73.4355 25.2533 73.5345C25.4477 73.6372 25.6677 73.727 25.9133 73.804C26.159 73.881 26.4065 73.9195 26.6558 73.9195C26.9822 73.9195 27.259 73.8333 27.4863 73.661C27.7137 73.4923 27.897 73.2613 28.0363 72.968C28.1757 72.6783 28.2765 72.3502 28.3388 71.9835C28.4048 71.6168 28.4397 71.2392 28.4433 70.8505C28.381 70.9862 28.282 71.1273 28.1463 71.274C28.0143 71.417 27.8383 71.538 27.6183 71.637C27.3983 71.7323 27.1288 71.78 26.8098 71.78C26.2855 71.78 25.8803 71.6278 25.5943 71.3235C25.3083 71.0155 25.1085 70.5975 24.9948 70.0695C24.8848 69.5378 24.8298 68.9365 24.8298 68.2655C24.8298 68.0088 24.8353 67.743 24.8463 67.468C24.8573 67.193 24.8702 66.9088 24.8848 66.6155C24.9325 66.6045 25.0022 66.5972 25.0938 66.5935C25.1855 66.5898 25.2827 66.588 25.3853 66.588C25.5063 66.588 25.6218 66.5917 25.7318 66.599C25.8455 66.6027 25.9225 66.61 25.9628 66.621C25.9555 66.665 25.9445 66.7695 25.9298 66.9345C25.9152 67.0995 25.9005 67.2993 25.8858 67.534C25.8712 67.7687 25.8638 68.0107 25.8638 68.26C25.8638 68.5533 25.8767 68.8485 25.9023 69.1455C25.928 69.4388 25.9775 69.7083 26.0508 69.954C26.1278 70.1997 26.2397 70.3977 26.3863 70.548C26.533 70.6947 26.7292 70.768 26.9748 70.768C27.2498 70.768 27.4863 70.6892 27.6843 70.5315C27.8823 70.3738 28.04 70.1428 28.1573 69.8385C28.2783 69.5305 28.3553 69.1528 28.3883 68.7055C28.403 68.5332 28.414 68.3407 28.4213 68.128C28.4323 67.9117 28.4415 67.7045 28.4488 67.5065C28.4562 67.3048 28.4598 67.1343 28.4598 66.995C28.4635 66.852 28.4635 66.7658 28.4598 66.7365C28.5185 66.7292 28.579 66.7237 28.6413 66.72C28.7037 66.7163 28.766 66.7145 28.8283 66.7145C29.052 66.7145 29.2555 66.7365 29.4388 66.7805C29.4535 67.0885 29.4608 67.4552 29.4608 67.8805C29.4608 68.2288 29.4553 68.6175 29.4443 69.0465C29.4333 69.4718 29.4168 69.91 29.3948 70.361C29.3765 70.812 29.3563 71.2557 29.3343 71.692C29.3013 72.3117 29.1803 72.8617 28.9713 73.342C28.766 73.826 28.4672 74.2073 28.0748 74.486C27.6862 74.7647 27.1985 74.904 26.6118 74.904ZM33.8848 69.0355C33.8738 68.9952 33.8628 68.9402 33.8518 68.8705C33.8408 68.7972 33.828 68.7183 33.8133 68.634C33.8023 68.546 33.7913 68.4617 33.7803 68.381C33.773 68.2967 33.7675 68.2233 33.7638 68.161C34.1341 68.0583 34.5338 67.9685 34.9628 67.8915C35.3955 67.8145 35.8318 67.754 36.2718 67.71C36.7155 67.666 37.139 67.644 37.5423 67.644C37.997 67.644 38.4095 67.6532 38.7798 67.6715C39.1538 67.6862 39.515 67.71 39.8633 67.743C39.8633 67.776 39.856 67.8383 39.8413 67.93C39.8266 68.018 39.8065 68.117 39.7808 68.227C39.7588 68.3333 39.7368 68.4323 39.7148 68.524C39.6965 68.612 39.6818 68.6725 39.6708 68.7055C39.5351 68.6798 39.3738 68.6578 39.1868 68.6395C39.0035 68.6175 38.8036 68.5992 38.5873 68.5845C38.3746 68.5698 38.1546 68.5588 37.9273 68.5515C37.7036 68.5405 37.4818 68.535 37.2618 68.535C36.9758 68.535 36.6641 68.5515 36.3268 68.5845C35.9931 68.6175 35.665 68.6597 35.3423 68.711C35.0233 68.7623 34.7336 68.8173 34.4733 68.876C34.2166 68.931 34.0205 68.9842 33.8848 69.0355ZM39.7148 72.0825C39.6708 72.0825 39.603 72.0788 39.5113 72.0715C39.4233 72.0642 39.3261 72.055 39.2198 72.044C39.1171 72.033 39.0236 72.022 38.9393 72.011C38.855 72.0037 38.7963 71.9982 38.7633 71.9945C38.778 71.8992 38.7926 71.7305 38.8073 71.4885C38.8256 71.2465 38.8421 70.9642 38.8568 70.6415C38.8715 70.3152 38.8861 69.976 38.9008 69.624C38.9155 69.272 38.9265 68.9347 38.9338 68.612C38.9411 68.2893 38.9448 68.0107 38.9448 67.776C38.9961 67.776 39.0621 67.776 39.1428 67.776C39.2271 67.7723 39.3151 67.7687 39.4068 67.765C39.4985 67.7613 39.5846 67.7577 39.6653 67.754C39.746 67.7503 39.812 67.7467 39.8633 67.743C39.867 67.9117 39.8688 68.1445 39.8688 68.4415C39.8688 68.7348 39.8615 69.0575 39.8468 69.4095C39.8395 69.7578 39.8285 70.1135 39.8138 70.4765C39.7991 70.8358 39.7845 71.1603 39.7698 71.45C39.7551 71.736 39.7368 71.9468 39.7148 72.0825ZM39.4453 66.7365C39.251 66.7365 39.086 66.665 38.9503 66.522C38.8146 66.3753 38.7468 66.1993 38.7468 65.994C38.7468 65.7923 38.8146 65.6218 38.9503 65.4825C39.086 65.3395 39.2491 65.268 39.4398 65.268C39.6488 65.268 39.8138 65.3395 39.9348 65.4825C40.0595 65.6218 40.1218 65.8125 40.1218 66.0545C40.1218 66.2745 40.0521 66.4432 39.9128 66.5605C39.7735 66.6778 39.6176 66.7365 39.4453 66.7365ZM35.4248 72C35.3881 71.8167 35.3386 71.5637 35.2763 71.241C35.214 70.9183 35.148 70.5572 35.0783 70.1575C35.0123 69.7578 34.9481 69.3527 34.8858 68.942C34.8271 68.5277 34.7776 68.139 34.7373 67.776C34.7006 67.413 34.6823 67.1068 34.6823 66.8575C34.6823 66.3662 34.7465 65.9243 34.8748 65.532C35.0031 65.136 35.2066 64.8225 35.4853 64.5915C35.7676 64.3568 36.1325 64.2395 36.5798 64.2395C36.8475 64.2395 37.0858 64.2853 37.2948 64.377C37.5075 64.4687 37.6908 64.5787 37.8448 64.707C38.0025 64.8317 38.129 64.9545 38.2243 65.0755C38.3196 65.1928 38.3801 65.279 38.4058 65.334C38.3875 65.367 38.3563 65.422 38.3123 65.499C38.272 65.576 38.2261 65.6603 38.1748 65.752C38.1271 65.84 38.0795 65.9225 38.0318 65.9995C37.9878 66.0728 37.9548 66.1242 37.9328 66.1535C37.9181 66.1242 37.8778 66.0618 37.8118 65.9665C37.7458 65.8712 37.656 65.7685 37.5423 65.6585C37.4286 65.5448 37.293 65.4477 37.1353 65.367C36.9813 65.2863 36.809 65.246 36.6183 65.246C36.391 65.246 36.2131 65.323 36.0848 65.477C35.9601 65.6273 35.8721 65.8198 35.8208 66.0545C35.7731 66.2892 35.7493 66.5367 35.7493 66.797C35.7493 67.0317 35.7676 67.3342 35.8043 67.7045C35.841 68.0748 35.8886 68.4727 35.9473 68.898C36.006 69.3233 36.0683 69.7395 36.1343 70.1465C36.2003 70.5535 36.2626 70.9147 36.3213 71.23C36.38 71.5417 36.4276 71.7672 36.4643 71.9065C36.4166 71.9138 36.3451 71.923 36.2498 71.934C36.1545 71.9413 36.05 71.9505 35.9363 71.9615C35.8263 71.9725 35.7236 71.9817 35.6283 71.989C35.533 71.9963 35.4651 72 35.4248 72ZM42.7026 67.127C42.8126 66.94 42.9721 66.7695 43.1811 66.6155C43.3938 66.4615 43.6321 66.3387 43.8961 66.247C44.1638 66.1553 44.4314 66.1095 44.6991 66.1095C44.8714 66.1095 45.0456 66.126 45.2216 66.159C45.3976 66.1883 45.5351 66.2305 45.6341 66.2855L45.4141 67.391C45.3261 67.3543 45.2124 67.3158 45.0731 67.2755C44.9374 67.2315 44.7688 67.2095 44.5671 67.2095C44.3508 67.2095 44.1344 67.2498 43.9181 67.3305C43.7054 67.4075 43.5093 67.5138 43.3296 67.6495C43.1499 67.7852 42.9996 67.941 42.8786 68.117C42.9299 68.3737 42.9794 68.6872 43.0271 69.0575C43.0784 69.4278 43.1243 69.8073 43.1646 70.196C43.2049 70.5847 43.2379 70.9403 43.2636 71.263C43.2893 71.582 43.3021 71.8222 43.3021 71.9835C43.1444 71.9982 42.9519 72.0073 42.7246 72.011C42.4973 72.0147 42.2883 72.0147 42.0976 72.011C42.0976 71.67 42.0903 71.3107 42.0756 70.933C42.0609 70.5517 42.0371 70.163 42.0041 69.767C41.9748 69.3673 41.9363 68.9695 41.8886 68.5735C41.8409 68.1775 41.7841 67.7943 41.7181 67.424C41.6558 67.05 41.5843 66.6962 41.5036 66.3625C41.6026 66.3332 41.7181 66.3038 41.8501 66.2745C41.9858 66.2452 42.1104 66.2195 42.2241 66.1975C42.3378 66.1755 42.4148 66.1627 42.4551 66.159C42.5028 66.2837 42.5523 66.445 42.6036 66.643C42.6549 66.841 42.6879 67.0023 42.7026 67.127ZM47.0673 72.0495C47.0379 71.7855 47.0123 71.4702 46.9903 71.1035C46.9683 70.7368 46.9481 70.3463 46.9298 69.932C46.9114 69.5177 46.8968 69.1015 46.8858 68.6835C46.8748 68.2655 46.8656 67.8695 46.8583 67.4955C46.8509 67.1178 46.8473 66.7878 46.8473 66.5055C46.9023 66.4872 46.9756 66.4688 47.0673 66.4505C47.1589 66.4322 47.2561 66.4157 47.3588 66.401C47.4614 66.3863 47.5586 66.3753 47.6503 66.368C47.7419 66.357 47.8171 66.3515 47.8758 66.3515C47.8794 66.4102 47.8831 66.4963 47.8868 66.61C47.8904 66.72 47.8941 66.8373 47.8978 66.962C47.9051 67.0867 47.9088 67.2003 47.9088 67.303C47.9124 67.402 47.9143 67.4717 47.9143 67.512C47.9436 67.435 48.0004 67.3305 48.0848 67.1985C48.1728 67.0665 48.2919 66.9327 48.4423 66.797C48.5963 66.6613 48.7869 66.5477 49.0143 66.456C49.2416 66.3643 49.5093 66.3185 49.8173 66.3185C50.0959 66.3185 50.3306 66.3772 50.5213 66.4945C50.7156 66.6118 50.8733 66.7658 50.9943 66.9565C51.1189 67.1435 51.2124 67.347 51.2748 67.567C51.3114 67.6953 51.3371 67.8237 51.3518 67.952C51.3701 68.0803 51.3829 68.205 51.3903 68.326C51.4526 67.9777 51.5699 67.6458 51.7423 67.3305C51.9183 67.0115 52.1548 66.7512 52.4518 66.5495C52.7524 66.3478 53.1191 66.247 53.5518 66.247C53.9514 66.247 54.2796 66.3295 54.5363 66.4945C54.7929 66.6595 54.9928 66.8923 55.1358 67.193C55.2788 67.4937 55.3778 67.8512 55.4328 68.2655C55.4914 68.6762 55.5208 69.1308 55.5208 69.6295C55.5208 69.8935 55.5134 70.174 55.4988 70.471C55.4878 70.768 55.4713 71.0577 55.4493 71.34C55.4309 71.6187 55.4108 71.868 55.3888 72.088C55.3008 72.099 55.2109 72.1063 55.1193 72.11C55.0276 72.1173 54.9359 72.121 54.8443 72.121C54.7563 72.121 54.6628 72.1173 54.5638 72.11C54.4684 72.1063 54.3713 72.1008 54.2723 72.0935C54.3456 71.5508 54.4024 71.0485 54.4428 70.5865C54.4868 70.1245 54.5088 69.712 54.5088 69.349C54.5088 68.656 54.4263 68.1298 54.2613 67.7705C54.0963 67.4112 53.8249 67.2315 53.4473 67.2315C53.1063 67.2315 52.8313 67.3323 52.6223 67.534C52.4169 67.7357 52.2593 68.007 52.1493 68.348C52.0429 68.689 51.9696 69.074 51.9293 69.503C51.8889 69.932 51.8651 70.3738 51.8578 70.8285C51.8541 71.0228 51.8504 71.2245 51.8468 71.4335C51.8431 71.6388 51.8413 71.8442 51.8413 72.0495C51.7863 72.0532 51.7129 72.0568 51.6213 72.0605C51.5333 72.0678 51.4434 72.0715 51.3518 72.0715C51.2454 72.0715 51.1391 72.0678 51.0328 72.0605C50.9264 72.0568 50.8439 72.0495 50.7853 72.0385C50.7889 71.7928 50.7908 71.5563 50.7908 71.329C50.7944 71.1017 50.7963 70.8743 50.7963 70.647C50.7963 70.218 50.7816 69.8037 50.7523 69.404C50.7266 69.0043 50.6734 68.645 50.5928 68.326C50.5121 68.0033 50.3893 67.7467 50.2243 67.556C50.0593 67.3653 49.8393 67.27 49.5643 67.27C49.3589 67.27 49.1628 67.3232 48.9758 67.4295C48.7924 67.5358 48.6274 67.6697 48.4808 67.831C48.3341 67.9887 48.2168 68.1555 48.1288 68.3315C48.0408 68.5038 47.9894 68.656 47.9748 68.788C47.9968 69.3747 48.0224 69.9008 48.0518 70.3665C48.0848 70.8322 48.1141 71.2135 48.1398 71.5105C48.1691 71.8038 48.1893 71.9908 48.2003 72.0715C48.1673 72.0752 48.1086 72.0788 48.0243 72.0825C47.9399 72.0862 47.8648 72.088 47.7988 72.088C47.6594 72.088 47.5201 72.0843 47.3808 72.077C47.2451 72.0697 47.1406 72.0605 47.0673 72.0495ZM59.6976 71.648C59.6133 71.769 59.4629 71.89 59.2466 72.011C59.0303 72.1357 58.7718 72.198 58.4711 72.198C58.0494 72.198 57.7359 72.088 57.5306 71.868C57.3253 71.6443 57.1896 71.3363 57.1236 70.944C57.0613 70.5517 57.0301 70.1043 57.0301 69.602C57.0301 69.2793 57.0338 68.9273 57.0411 68.546C57.0484 68.1647 57.0576 67.7705 57.0686 67.3635C57.0833 66.9565 57.0979 66.5568 57.1126 66.1645C57.1273 65.7685 57.1419 65.3982 57.1566 65.0535C57.1713 64.7052 57.1859 64.4008 57.2006 64.1405C57.3693 64.1258 57.5233 64.1185 57.6626 64.1185C57.7579 64.1185 57.8533 64.1222 57.9486 64.1295C58.0439 64.1368 58.1411 64.146 58.2401 64.157C58.2254 64.421 58.2089 64.7345 58.1906 65.0975C58.1723 65.4568 58.1521 65.84 58.1301 66.247C58.1118 66.654 58.0953 67.061 58.0806 67.468C58.0659 67.875 58.0531 68.2545 58.0421 68.6065C58.0311 68.9585 58.0256 69.2592 58.0256 69.5085C58.0256 69.7872 58.0403 70.0567 58.0696 70.317C58.0989 70.5737 58.1613 70.7845 58.2566 70.9495C58.3519 71.1145 58.4968 71.197 58.6911 71.197C58.8414 71.197 58.9569 71.1603 59.0376 71.087C59.1183 71.0137 59.1879 70.9202 59.2466 70.8065C59.2686 70.8358 59.3016 70.8908 59.3456 70.9715C59.3933 71.0485 59.4409 71.1365 59.4886 71.2355C59.5399 71.3308 59.5839 71.417 59.6206 71.494C59.6609 71.571 59.6866 71.6223 59.6976 71.648ZM62.3189 74.904C61.8055 74.904 61.349 74.8233 60.9494 74.662C60.5497 74.5007 60.238 74.3412 60.0144 74.1835C60.04 74.1138 60.084 74.0185 60.1464 73.8975C60.2087 73.7802 60.2747 73.6628 60.3444 73.5455C60.414 73.4282 60.4727 73.3383 60.5204 73.276C60.6194 73.3493 60.766 73.4355 60.9604 73.5345C61.1547 73.6372 61.3747 73.727 61.6204 73.804C61.866 73.881 62.1135 73.9195 62.3629 73.9195C62.6892 73.9195 62.966 73.8333 63.1934 73.661C63.4207 73.4923 63.604 73.2613 63.7434 72.968C63.8827 72.6783 63.9835 72.3502 64.0459 71.9835C64.1119 71.6168 64.1467 71.2392 64.1504 70.8505C64.088 70.9862 63.989 71.1273 63.8534 71.274C63.7214 71.417 63.5454 71.538 63.3254 71.637C63.1054 71.7323 62.8359 71.78 62.5169 71.78C61.9925 71.78 61.5874 71.6278 61.3014 71.3235C61.0154 71.0155 60.8155 70.5975 60.7019 70.0695C60.5919 69.5378 60.5369 68.9365 60.5369 68.2655C60.5369 68.0088 60.5424 67.743 60.5534 67.468C60.5644 67.193 60.5772 66.9088 60.5919 66.6155C60.6395 66.6045 60.7092 66.5972 60.8009 66.5935C60.8925 66.5898 60.9897 66.588 61.0924 66.588C61.2134 66.588 61.3289 66.5917 61.4389 66.599C61.5525 66.6027 61.6295 66.61 61.6699 66.621C61.6625 66.665 61.6515 66.7695 61.6369 66.9345C61.6222 67.0995 61.6075 67.2993 61.5929 67.534C61.5782 67.7687 61.5709 68.0107 61.5709 68.26C61.5709 68.5533 61.5837 68.8485 61.6094 69.1455C61.635 69.4388 61.6845 69.7083 61.7579 69.954C61.8349 70.1997 61.9467 70.3977 62.0934 70.548C62.24 70.6947 62.4362 70.768 62.6819 70.768C62.9569 70.768 63.1934 70.6892 63.3914 70.5315C63.5894 70.3738 63.747 70.1428 63.8644 69.8385C63.9854 69.5305 64.0624 69.1528 64.0954 68.7055C64.11 68.5332 64.121 68.3407 64.1284 68.128C64.1394 67.9117 64.1485 67.7045 64.1559 67.5065C64.1632 67.3048 64.1669 67.1343 64.1669 66.995C64.1705 66.852 64.1705 66.7658 64.1669 66.7365C64.2255 66.7292 64.286 66.7237 64.3484 66.72C64.4107 66.7163 64.473 66.7145 64.5354 66.7145C64.759 66.7145 64.9625 66.7365 65.1459 66.7805C65.1605 67.0885 65.1679 67.4552 65.1679 67.8805C65.1679 68.2288 65.1624 68.6175 65.1514 69.0465C65.1404 69.4718 65.1239 69.91 65.1019 70.361C65.0835 70.812 65.0634 71.2557 65.0414 71.692C65.0084 72.3117 64.8874 72.8617 64.6784 73.342C64.473 73.826 64.1742 74.2073 63.7819 74.486C63.3932 74.7647 62.9055 74.904 62.3189 74.904ZM72.8863 70.7295C72.208 70.7295 71.669 70.6195 71.2693 70.3995C70.8733 70.1795 70.5873 69.8953 70.4113 69.547C70.239 69.195 70.1528 68.8283 70.1528 68.447C70.1528 67.9667 70.2683 67.5597 70.4993 67.226C70.734 66.8923 71.0493 66.6375 71.4453 66.4615C71.8413 66.2818 72.2832 66.192 72.7708 66.192C73.5922 66.192 74.2192 66.39 74.6518 66.786C75.0882 67.1783 75.3063 67.7137 75.3063 68.392C75.3063 68.8907 75.2 69.3142 74.9873 69.6625C74.7783 70.0072 74.4923 70.2712 74.1293 70.4545C73.7663 70.6378 73.352 70.7295 72.8863 70.7295ZM72.6058 74.7445C72.0558 74.7445 71.5608 74.6932 71.1208 74.5905C70.6845 74.4915 70.338 74.3155 70.0813 74.0625C69.8283 73.8095 69.7018 73.4557 69.7018 73.001C69.7018 72.7077 69.7898 72.4382 69.9658 72.1925C70.1455 71.9468 70.3985 71.7488 70.7248 71.5985C71.0512 71.4445 71.4398 71.3602 71.8908 71.3455C72.1218 71.3382 72.3712 71.3327 72.6388 71.329C72.9102 71.3253 73.1852 71.3235 73.4638 71.3235C74.0468 71.3235 74.5272 71.4445 74.9048 71.6865C75.2862 71.9248 75.4768 72.3025 75.4768 72.8195C75.4768 73.2778 75.3577 73.6482 75.1193 73.9305C74.8847 74.2128 74.551 74.4182 74.1183 74.5465C73.6893 74.6785 73.1852 74.7445 72.6058 74.7445ZM72.6828 74.0185C72.9982 74.0185 73.286 73.9855 73.5463 73.9195C73.8103 73.8572 74.0212 73.749 74.1788 73.595C74.3365 73.4447 74.4153 73.2393 74.4153 72.979C74.4153 72.7517 74.3512 72.5775 74.2228 72.4565C74.0945 72.3355 73.9368 72.253 73.7498 72.209C73.5628 72.165 73.3795 72.143 73.1998 72.143C73.0568 72.143 72.8973 72.143 72.7213 72.143C72.549 72.143 72.3858 72.143 72.2318 72.143C72.0778 72.143 71.9587 72.143 71.8743 72.143C71.7203 72.143 71.5608 72.1687 71.3958 72.22C71.2345 72.2713 71.0988 72.3612 70.9888 72.4895C70.8825 72.6215 70.8293 72.8067 70.8293 73.045C70.8293 73.298 70.9137 73.4942 71.0823 73.6335C71.251 73.7765 71.4747 73.8755 71.7533 73.9305C72.0357 73.9892 72.3455 74.0185 72.6828 74.0185ZM71.3848 71.7965C70.9668 71.7232 70.6625 71.5912 70.4718 71.4005C70.2812 71.2098 70.1858 71.0063 70.1858 70.79C70.1858 70.6397 70.2225 70.5022 70.2958 70.3775C70.3728 70.2528 70.4682 70.1483 70.5818 70.064C70.6992 69.9797 70.8238 69.9247 70.9558 69.899L71.6158 70.2895C71.4325 70.3482 71.3005 70.4233 71.2198 70.515C71.1428 70.6067 71.1043 70.702 71.1043 70.801C71.1043 70.9367 71.1758 71.0632 71.3188 71.1805C71.4618 71.2942 71.6525 71.351 71.8908 71.351L71.3848 71.7965ZM72.7653 69.8605C73.1247 69.8605 73.4162 69.7982 73.6398 69.6735C73.8635 69.5452 74.0285 69.3692 74.1348 69.1455C74.2448 68.9182 74.2998 68.6615 74.2998 68.3755C74.2998 68.1188 74.2375 67.8933 74.1128 67.699C73.9918 67.501 73.8232 67.3452 73.6068 67.2315C73.3905 67.1142 73.1412 67.0555 72.8588 67.0555C72.4078 67.0555 72.0302 67.16 71.7258 67.369C71.4252 67.5743 71.2748 67.9227 71.2748 68.414C71.2748 68.854 71.4123 69.206 71.6873 69.47C71.9623 69.7303 72.3217 69.8605 72.7653 69.8605ZM74.7123 67.391L74.1018 66.885C74.1605 66.742 74.2467 66.5917 74.3603 66.434C74.4777 66.2763 74.6042 66.1278 74.7398 65.9885C74.8755 65.8492 75.002 65.741 75.1193 65.664C75.156 65.7117 75.2092 65.785 75.2788 65.884C75.3522 65.9793 75.4273 66.0747 75.5043 66.17C75.5813 66.2653 75.6418 66.3405 75.6858 66.3955C75.6272 66.4322 75.5502 66.489 75.4548 66.566C75.3595 66.643 75.2623 66.731 75.1633 66.83C75.0643 66.929 74.9727 67.028 74.8883 67.127C74.8077 67.226 74.749 67.314 74.7123 67.391ZM77.6684 67.127C77.7784 66.94 77.9379 66.7695 78.1469 66.6155C78.3596 66.4615 78.5979 66.3387 78.8619 66.247C79.1296 66.1553 79.3973 66.1095 79.6649 66.1095C79.8373 66.1095 80.0114 66.126 80.1874 66.159C80.3634 66.1883 80.5009 66.2305 80.5999 66.2855L80.3799 67.391C80.2919 67.3543 80.1783 67.3158 80.0389 67.2755C79.9033 67.2315 79.7346 67.2095 79.5329 67.2095C79.3166 67.2095 79.1003 67.2498 78.8839 67.3305C78.6713 67.4075 78.4751 67.5138 78.2954 67.6495C78.1158 67.7852 77.9654 67.941 77.8444 68.117C77.8958 68.3737 77.9453 68.6872 77.9929 69.0575C78.0443 69.4278 78.0901 69.8073 78.1304 70.196C78.1708 70.5847 78.2038 70.9403 78.2294 71.263C78.2551 71.582 78.2679 71.8222 78.2679 71.9835C78.1103 71.9982 77.9178 72.0073 77.6904 72.011C77.4631 72.0147 77.2541 72.0147 77.0634 72.011C77.0634 71.67 77.0561 71.3107 77.0414 70.933C77.0268 70.5517 77.0029 70.163 76.9699 69.767C76.9406 69.3673 76.9021 68.9695 76.8544 68.5735C76.8068 68.1775 76.7499 67.7943 76.6839 67.424C76.6216 67.05 76.5501 66.6962 76.4694 66.3625C76.5684 66.3332 76.6839 66.3038 76.8159 66.2745C76.9516 66.2452 77.0763 66.2195 77.1899 66.1975C77.3036 66.1755 77.3806 66.1627 77.4209 66.159C77.4686 66.2837 77.5181 66.445 77.5694 66.643C77.6208 66.841 77.6538 67.0023 77.6684 67.127ZM83.9564 72.1705C82.9957 72.1705 82.2862 71.9028 81.8279 71.3675C81.3695 70.8322 81.1404 70.0622 81.1404 69.0575C81.1404 68.4232 81.2577 67.8878 81.4924 67.4515C81.7307 67.0152 82.0607 66.6833 82.4824 66.456C82.9077 66.2287 83.4027 66.115 83.9674 66.115C84.565 66.115 85.0582 66.2543 85.4469 66.533C85.8355 66.808 86.1234 67.193 86.3104 67.688C86.501 68.1793 86.5964 68.7513 86.5964 69.404C86.5964 69.965 86.4919 70.4527 86.2829 70.867C86.0739 71.2777 85.7714 71.5985 85.3754 71.8295C84.983 72.0568 84.51 72.1705 83.9564 72.1705ZM83.9124 71.186C84.2094 71.186 84.4642 71.131 84.6769 71.021C84.8895 70.911 85.0619 70.7643 85.1939 70.581C85.3259 70.394 85.423 70.185 85.4854 69.954C85.5514 69.723 85.5844 69.4865 85.5844 69.2445C85.5844 68.8045 85.5239 68.4122 85.4029 68.0675C85.2819 67.7228 85.0985 67.4533 84.8529 67.259C84.6072 67.061 84.2937 66.962 83.9124 66.962C83.5384 66.962 83.2249 67.0518 82.9719 67.2315C82.7189 67.4112 82.5282 67.6587 82.3999 67.974C82.2752 68.2893 82.2129 68.6505 82.2129 69.0575C82.2129 69.6845 82.3577 70.196 82.6474 70.592C82.937 70.988 83.3587 71.186 83.9124 71.186ZM91.4632 66.5C91.5182 66.4853 91.597 66.4725 91.6997 66.4615C91.806 66.4505 91.9124 66.445 92.0187 66.445C92.1067 66.445 92.202 66.4487 92.3047 66.456C92.411 66.4597 92.4954 66.467 92.5577 66.478C92.6164 66.8337 92.6659 67.1967 92.7062 67.567C92.7465 67.9373 92.7667 68.3022 92.7667 68.6615C92.7667 69.1528 92.7245 69.6167 92.6402 70.053C92.5559 70.4893 92.4165 70.8743 92.2222 71.208C92.0315 71.538 91.773 71.7983 91.4467 71.989C91.124 72.1797 90.7225 72.275 90.2422 72.275C89.7179 72.275 89.287 72.1723 88.9497 71.967C88.6124 71.758 88.3502 71.4702 88.1632 71.1035C87.9762 70.7332 87.8442 70.3078 87.7672 69.8275C87.6939 69.3472 87.6572 68.8338 87.6572 68.2875C87.6572 67.9538 87.6682 67.6165 87.6902 67.2755C87.7122 66.9345 87.736 66.6008 87.7617 66.2745C87.8277 66.2708 87.9102 66.269 88.0092 66.269C88.1119 66.269 88.2035 66.2708 88.2842 66.2745C88.3979 66.2818 88.5097 66.2928 88.6197 66.3075C88.7334 66.3185 88.8269 66.335 88.9002 66.357C88.8635 66.687 88.8342 67.0133 88.8122 67.336C88.7902 67.6587 88.7792 67.9703 88.7792 68.271C88.7792 68.9163 88.8324 69.4627 88.9387 69.91C89.0487 70.3573 89.2119 70.6965 89.4282 70.9275C89.6482 71.1585 89.9232 71.274 90.2532 71.274C90.5612 71.274 90.8179 71.1695 91.0232 70.9605C91.2322 70.7515 91.3899 70.449 91.4962 70.053C91.6025 69.6533 91.6557 69.1675 91.6557 68.5955C91.6557 68.2692 91.6392 67.9282 91.6062 67.5725C91.5732 67.2132 91.5255 66.8557 91.4632 66.5ZM95.3832 72.0715C95.3136 72.0715 95.2292 72.0715 95.1302 72.0715C95.0312 72.0752 94.9322 72.0752 94.8332 72.0715C94.7416 72.0678 94.6371 72.0623 94.5197 72.055C94.4024 72.0513 94.3162 72.0458 94.2612 72.0385C94.2979 71.7342 94.3291 71.4023 94.3547 71.043C94.3841 70.68 94.4079 70.273 94.4262 69.822C94.4446 69.3673 94.4592 68.8522 94.4702 68.2765C94.4812 67.6972 94.4867 67.039 94.4867 66.302C94.5747 66.2873 94.6792 66.2763 94.8002 66.269C94.9249 66.258 95.0514 66.2525 95.1797 66.2525C95.2604 66.2525 95.3411 66.2543 95.4217 66.258C95.5061 66.2617 95.5794 66.269 95.6417 66.28C95.6454 66.3203 95.6472 66.3937 95.6472 66.5C95.6509 66.6063 95.6509 66.7237 95.6472 66.852C95.6472 66.9803 95.6472 67.094 95.6472 67.193C95.7829 67.0427 95.9754 66.8887 96.2247 66.731C96.4741 66.5733 96.7527 66.4413 97.0607 66.335C97.3687 66.225 97.6786 66.17 97.9902 66.17C98.5476 66.17 98.9711 66.2818 99.2607 66.5055C99.5504 66.7255 99.7466 67.0518 99.8492 67.4845C99.9556 67.9172 100.009 68.4543 100.009 69.096C100.009 69.3453 100.001 69.6277 99.9867 69.943C99.9757 70.2583 99.9556 70.592 99.9262 70.944C99.9006 71.296 99.8657 71.6535 99.8217 72.0165C99.7704 72.0238 99.6916 72.0293 99.5852 72.033C99.4826 72.0403 99.3726 72.044 99.2552 72.044C99.1379 72.044 99.0261 72.0422 98.9197 72.0385C98.8134 72.0348 98.7291 72.0275 98.6667 72.0165C98.7144 71.7048 98.7584 71.3803 98.7987 71.043C98.8391 70.702 98.8721 70.3647 98.8977 70.031C98.9234 69.6937 98.9362 69.3765 98.9362 69.0795C98.9362 68.6982 98.9069 68.3645 98.8482 68.0785C98.7932 67.7925 98.6814 67.5707 98.5127 67.413C98.3477 67.2553 98.1039 67.1765 97.7812 67.1765C97.4476 67.1765 97.1414 67.2315 96.8627 67.3415C96.5841 67.4515 96.3402 67.5817 96.1312 67.732C95.9259 67.8823 95.7591 68.0162 95.6307 68.1335C95.6161 68.7532 95.5941 69.3215 95.5647 69.8385C95.5354 70.3555 95.5042 70.8047 95.4712 71.186C95.4382 71.5673 95.4089 71.8625 95.3832 72.0715ZM105.731 71.9835C105.731 71.9212 105.729 71.8277 105.726 71.703C105.722 71.5747 105.72 71.45 105.72 71.329C105.72 71.2043 105.72 71.1127 105.72 71.054C105.695 71.098 105.638 71.1695 105.55 71.2685C105.462 71.3675 105.337 71.472 105.176 71.582C105.018 71.692 104.818 71.7855 104.576 71.8625C104.334 71.9395 104.046 71.978 103.713 71.978C103.221 71.978 102.802 71.8717 102.453 71.659C102.105 71.4427 101.839 71.142 101.656 70.757C101.476 70.372 101.386 69.9265 101.386 69.4205C101.386 68.9475 101.478 68.5075 101.661 68.1005C101.845 67.6898 102.12 67.358 102.486 67.105C102.853 66.852 103.311 66.7255 103.861 66.7255C104.191 66.7255 104.485 66.7622 104.741 66.8355C105.002 66.9088 105.218 66.9968 105.39 67.0995C105.566 67.1985 105.691 67.2865 105.764 67.3635C105.768 67.2022 105.777 67.0023 105.792 66.764C105.81 66.5257 105.828 66.2727 105.847 66.005C105.865 65.7373 105.883 65.4788 105.902 65.2295C105.92 64.9765 105.937 64.7547 105.951 64.564C105.97 64.3733 105.982 64.2395 105.99 64.1625C106.136 64.1625 106.298 64.1698 106.474 64.1845C106.653 64.1992 106.807 64.2193 106.936 64.245C106.87 65.103 106.818 65.9573 106.782 66.808C106.749 67.655 106.727 68.5112 106.716 69.3765C106.705 70.2382 106.699 71.1163 106.699 72.011C106.644 72.011 106.551 72.0092 106.419 72.0055C106.29 72.0055 106.16 72.0037 106.028 72C105.896 71.9927 105.797 71.9872 105.731 71.9835ZM103.977 70.966C104.23 70.966 104.455 70.9293 104.653 70.856C104.851 70.779 105.02 70.6873 105.159 70.581C105.299 70.471 105.412 70.3628 105.5 70.2565C105.592 70.1465 105.656 70.0585 105.693 69.9925C105.693 69.9082 105.693 69.7853 105.693 69.624C105.696 69.459 105.698 69.2867 105.698 69.107C105.702 68.9237 105.704 68.7532 105.704 68.5955C105.707 68.4378 105.711 68.3205 105.715 68.2435C105.63 68.1665 105.504 68.0822 105.335 67.9905C105.17 67.8988 104.976 67.82 104.752 67.754C104.529 67.688 104.288 67.655 104.032 67.655C103.507 67.655 103.106 67.809 102.827 68.117C102.552 68.4213 102.415 68.8357 102.415 69.36C102.415 69.888 102.549 70.2877 102.816 70.559C103.088 70.8303 103.474 70.966 103.977 70.966ZM113.318 70.7735C113.244 70.8762 113.136 70.9953 112.993 71.131C112.85 71.263 112.672 71.3913 112.46 71.516C112.247 71.637 111.999 71.7378 111.717 71.8185C111.435 71.8992 111.116 71.9395 110.76 71.9395C110.21 71.9395 109.728 71.8277 109.314 71.604C108.899 71.3803 108.578 71.054 108.351 70.625C108.124 70.1923 108.01 69.6662 108.01 69.0465C108.01 68.4525 108.133 67.9373 108.379 67.501C108.628 67.0647 108.969 66.7273 109.402 66.489C109.834 66.2507 110.331 66.1315 110.892 66.1315C111.596 66.1315 112.144 66.346 112.537 66.775C112.933 67.204 113.153 67.7797 113.197 68.502C113.204 68.6193 113.208 68.733 113.208 68.843C113.208 68.9493 113.202 69.0593 113.191 69.173C113.143 69.1693 113.044 69.1657 112.894 69.162C112.747 69.1547 112.575 69.1492 112.377 69.1455C112.179 69.1382 111.979 69.1327 111.778 69.129C111.58 69.1217 111.409 69.118 111.266 69.118C110.896 69.118 110.516 69.1363 110.128 69.173C109.739 69.2097 109.392 69.2518 109.088 69.2995C109.092 69.3948 109.101 69.4883 109.116 69.58C109.13 69.6717 109.149 69.7597 109.171 69.844C109.233 70.0677 109.347 70.262 109.512 70.427C109.677 70.5883 109.873 70.713 110.1 70.801C110.331 70.889 110.575 70.933 110.832 70.933C111.103 70.933 111.339 70.8927 111.541 70.812C111.743 70.7313 111.915 70.6323 112.058 70.515C112.205 70.3977 112.322 70.2858 112.41 70.1795C112.502 70.0732 112.571 69.9943 112.619 69.943C112.641 69.9613 112.683 70.0017 112.746 70.064C112.812 70.1227 112.881 70.1942 112.955 70.2785C113.032 70.3628 113.103 70.449 113.169 70.537C113.239 70.6213 113.288 70.7002 113.318 70.7735ZM109.105 68.5625C109.369 68.5185 109.678 68.48 110.034 68.447C110.393 68.414 110.8 68.3975 111.255 68.3975C111.493 68.3975 111.695 68.4012 111.86 68.4085C112.029 68.4122 112.146 68.4177 112.212 68.425C112.212 68.304 112.197 68.1757 112.168 68.04C112.128 67.8567 112.054 67.6788 111.948 67.5065C111.842 67.3342 111.697 67.1912 111.514 67.0775C111.334 66.9602 111.107 66.9015 110.832 66.9015C110.516 66.9015 110.228 66.9693 109.968 67.105C109.711 67.237 109.506 67.4277 109.352 67.677C109.198 67.9227 109.116 68.2178 109.105 68.5625ZM118.6 71.9835C118.6 71.9212 118.599 71.8277 118.595 71.703C118.591 71.5747 118.589 71.45 118.589 71.329C118.589 71.2043 118.589 71.1127 118.589 71.054C118.564 71.098 118.507 71.1695 118.419 71.2685C118.331 71.3675 118.206 71.472 118.045 71.582C117.887 71.692 117.687 71.7855 117.445 71.8625C117.203 71.9395 116.916 71.978 116.582 71.978C116.091 71.978 115.671 71.8717 115.322 71.659C114.974 71.4427 114.708 71.142 114.525 70.757C114.345 70.372 114.255 69.9265 114.255 69.4205C114.255 68.9475 114.347 68.5075 114.53 68.1005C114.714 67.6898 114.989 67.358 115.355 67.105C115.722 66.852 116.18 66.7255 116.73 66.7255C117.06 66.7255 117.354 66.7622 117.61 66.8355C117.871 66.9088 118.087 66.9968 118.259 67.0995C118.435 67.1985 118.56 67.2865 118.633 67.3635C118.637 67.2022 118.646 67.0023 118.661 66.764C118.679 66.5257 118.698 66.2727 118.716 66.005C118.734 65.7373 118.753 65.4788 118.771 65.2295C118.789 64.9765 118.806 64.7547 118.82 64.564C118.839 64.3733 118.852 64.2395 118.859 64.1625C119.006 64.1625 119.167 64.1698 119.343 64.1845C119.523 64.1992 119.677 64.2193 119.805 64.245C119.739 65.103 119.688 65.9573 119.651 66.808C119.618 67.655 119.596 68.5112 119.585 69.3765C119.574 70.2382 119.568 71.1163 119.568 72.011C119.513 72.011 119.42 72.0092 119.288 72.0055C119.16 72.0055 119.029 72.0037 118.897 72C118.765 71.9927 118.666 71.9872 118.6 71.9835ZM116.846 70.966C117.099 70.966 117.324 70.9293 117.522 70.856C117.72 70.779 117.889 70.6873 118.028 70.581C118.168 70.471 118.281 70.3628 118.369 70.2565C118.461 70.1465 118.525 70.0585 118.562 69.9925C118.562 69.9082 118.562 69.7853 118.562 69.624C118.566 69.459 118.567 69.2867 118.567 69.107C118.571 68.9237 118.573 68.7532 118.573 68.5955C118.577 68.4378 118.58 68.3205 118.584 68.2435C118.5 68.1665 118.373 68.0822 118.204 67.9905C118.039 67.8988 117.845 67.82 117.621 67.754C117.398 67.688 117.158 67.655 116.901 67.655C116.377 67.655 115.975 67.809 115.696 68.117C115.421 68.4213 115.284 68.8357 115.284 69.36C115.284 69.888 115.418 70.2877 115.685 70.559C115.957 70.8303 116.344 70.966 116.846 70.966ZM124.791 72.077C124.78 71.9487 124.769 71.7323 124.758 71.428C124.747 71.12 124.734 70.7552 124.719 70.3335C124.705 69.9118 124.688 69.459 124.67 68.975C124.655 68.491 124.641 68.0052 124.626 67.5175C124.615 67.0262 124.604 66.5623 124.593 66.126C124.582 65.686 124.573 65.2992 124.565 64.9655C124.562 64.6318 124.56 64.3825 124.56 64.2175C124.611 64.2102 124.736 64.1918 124.934 64.1625C125.136 64.1295 125.359 64.0965 125.605 64.0635C125.605 64.3312 125.609 64.6722 125.616 65.0865C125.627 65.5008 125.642 65.9482 125.66 66.4285C125.678 66.9052 125.698 67.369 125.72 67.82C125.775 67.765 125.86 67.6898 125.973 67.5945C126.087 67.4955 126.226 67.3965 126.391 67.2975C126.556 67.1948 126.74 67.1087 126.941 67.039C127.143 66.9693 127.356 66.9345 127.579 66.9345C128.03 66.9345 128.414 67.0463 128.729 67.27C129.048 67.4937 129.29 67.8053 129.455 68.205C129.62 68.6047 129.702 69.0722 129.702 69.6075C129.702 70.3445 129.51 70.9238 129.125 71.3455C128.74 71.7672 128.199 71.978 127.502 71.978C127.22 71.978 126.973 71.9432 126.76 71.8735C126.547 71.8002 126.369 71.7158 126.226 71.6205C126.087 71.5252 125.983 71.4445 125.913 71.3785C125.917 71.4482 125.92 71.5325 125.924 71.6315C125.931 71.7268 125.937 71.8185 125.94 71.9065C125.944 71.9945 125.946 72.0605 125.946 72.1045C125.766 72.1082 125.565 72.1082 125.341 72.1045C125.121 72.1008 124.938 72.0917 124.791 72.077ZM125.88 70.4655C125.939 70.5205 126.034 70.5902 126.166 70.6745C126.298 70.7552 126.461 70.8285 126.655 70.8945C126.85 70.9605 127.066 70.9935 127.304 70.9935C127.785 70.9935 128.135 70.867 128.355 70.614C128.579 70.3573 128.69 70.009 128.69 69.569C128.69 69.261 128.645 68.9768 128.553 68.7165C128.461 68.4562 128.32 68.2472 128.129 68.0895C127.939 67.9318 127.695 67.853 127.398 67.853C127.13 67.853 126.892 67.908 126.683 68.018C126.478 68.128 126.3 68.2582 126.149 68.4085C125.999 68.5552 125.874 68.6908 125.775 68.8155C125.779 68.8558 125.785 68.931 125.792 69.041C125.799 69.151 125.807 69.2793 125.814 69.426C125.825 69.5727 125.834 69.7193 125.841 69.866C125.852 70.0127 125.86 70.141 125.863 70.251C125.871 70.3573 125.876 70.4288 125.88 70.4655ZM132.723 74.904C132.21 74.904 131.753 74.8233 131.354 74.662C130.954 74.5007 130.642 74.3412 130.419 74.1835C130.444 74.1138 130.488 74.0185 130.551 73.8975C130.613 73.7802 130.679 73.6628 130.749 73.5455C130.818 73.4282 130.877 73.3383 130.925 73.276C131.024 73.3493 131.17 73.4355 131.365 73.5345C131.559 73.6372 131.779 73.727 132.025 73.804C132.27 73.881 132.518 73.9195 132.767 73.9195C133.093 73.9195 133.37 73.8333 133.598 73.661C133.825 73.4923 134.008 73.2613 134.148 72.968C134.287 72.6783 134.388 72.3502 134.45 71.9835C134.516 71.6168 134.551 71.2392 134.555 70.8505C134.492 70.9862 134.393 71.1273 134.258 71.274C134.126 71.417 133.95 71.538 133.73 71.637C133.51 71.7323 133.24 71.78 132.921 71.78C132.397 71.78 131.992 71.6278 131.706 71.3235C131.42 71.0155 131.22 70.5975 131.106 70.0695C130.996 69.5378 130.941 68.9365 130.941 68.2655C130.941 68.0088 130.947 67.743 130.958 67.468C130.969 67.193 130.981 66.9088 130.996 66.6155C131.044 66.6045 131.113 66.5972 131.205 66.5935C131.297 66.5898 131.394 66.588 131.497 66.588C131.618 66.588 131.733 66.5917 131.843 66.599C131.957 66.6027 132.034 66.61 132.074 66.621C132.067 66.665 132.056 66.7695 132.041 66.9345C132.026 67.0995 132.012 67.2993 131.997 67.534C131.982 67.7687 131.975 68.0107 131.975 68.26C131.975 68.5533 131.988 68.8485 132.014 69.1455C132.039 69.4388 132.089 69.7083 132.162 69.954C132.239 70.1997 132.351 70.3977 132.498 70.548C132.644 70.6947 132.84 70.768 133.086 70.768C133.361 70.768 133.598 70.6892 133.796 70.5315C133.994 70.3738 134.151 70.1428 134.269 69.8385C134.39 69.5305 134.467 69.1528 134.5 68.7055C134.514 68.5332 134.525 68.3407 134.533 68.128C134.544 67.9117 134.553 67.7045 134.56 67.5065C134.567 67.3048 134.571 67.1343 134.571 66.995C134.575 66.852 134.575 66.7658 134.571 66.7365C134.63 66.7292 134.69 66.7237 134.753 66.72C134.815 66.7163 134.877 66.7145 134.94 66.7145C135.163 66.7145 135.367 66.7365 135.55 66.7805C135.565 67.0885 135.572 67.4552 135.572 67.8805C135.572 68.2288 135.567 68.6175 135.556 69.0465C135.545 69.4718 135.528 69.91 135.506 70.361C135.488 70.812 135.468 71.2557 135.446 71.692C135.413 72.3117 135.292 72.8617 135.083 73.342C134.877 73.826 134.578 74.2073 134.186 74.486C133.797 74.7647 133.31 74.904 132.723 74.904ZM144.721 72.2365C144.64 72.0972 144.528 71.9212 144.385 71.7085C144.242 71.4958 144.083 71.2703 143.907 71.032C143.731 70.79 143.551 70.5535 143.368 70.3225C143.184 70.0915 143.012 69.8862 142.851 69.7065C142.693 69.5268 142.561 69.3948 142.455 69.3105C142.389 69.3618 142.297 69.4333 142.18 69.525C142.066 69.6167 141.96 69.7047 141.861 69.789C141.762 69.8697 141.697 69.9265 141.668 69.9595C141.664 70.1172 141.657 70.306 141.646 70.526C141.639 70.7423 141.63 70.9605 141.619 71.1805C141.608 71.3968 141.597 71.5948 141.586 71.7745C141.578 71.9505 141.571 72.077 141.564 72.154C141.483 72.1613 141.399 72.1687 141.311 72.176C141.223 72.1833 141.135 72.187 141.047 72.187C140.94 72.187 140.836 72.1815 140.733 72.1705C140.63 72.1632 140.539 72.154 140.458 72.143C140.465 72.055 140.475 71.8625 140.486 71.5655C140.5 71.2685 140.517 70.9037 140.535 70.471C140.557 70.0347 140.579 69.5617 140.601 69.052C140.623 68.5387 140.643 68.0217 140.662 67.501C140.684 66.9767 140.702 66.4817 140.717 66.016C140.735 65.5467 140.75 65.1397 140.761 64.795C140.772 64.4467 140.777 64.1937 140.777 64.036C140.847 64.0323 140.922 64.0287 141.003 64.025C141.087 64.0213 141.171 64.0195 141.256 64.0195C141.366 64.0195 141.47 64.025 141.569 64.036C141.672 64.0433 141.763 64.0598 141.844 64.0855C141.844 64.3605 141.84 64.6758 141.833 65.0315C141.826 65.3835 141.817 65.7502 141.806 66.1315C141.798 66.5092 141.787 66.874 141.773 67.226C141.762 67.5743 141.751 67.8823 141.74 68.15C141.732 68.414 141.723 68.6102 141.712 68.7385C141.925 68.5222 142.181 68.3022 142.482 68.0785C142.783 67.8512 143.093 67.633 143.412 67.424C143.734 67.215 144.037 67.0262 144.319 66.8575C144.601 66.6852 144.831 66.5477 145.007 66.445C145.051 66.4927 145.1 66.5532 145.155 66.6265C145.214 66.6962 145.271 66.7713 145.326 66.852C145.384 66.9327 145.437 67.0097 145.485 67.083C145.536 67.1527 145.575 67.2113 145.601 67.259C145.476 67.3287 145.305 67.4277 145.089 67.556C144.873 67.6807 144.645 67.8163 144.407 67.963C144.169 68.1097 143.943 68.2527 143.731 68.392C143.518 68.5277 143.351 68.6413 143.23 68.733C143.311 68.7953 143.424 68.9035 143.571 69.0575C143.718 69.2115 143.883 69.3985 144.066 69.6185C144.253 69.8348 144.446 70.0695 144.644 70.3225C144.842 70.5755 145.034 70.8303 145.221 71.087C145.408 71.3437 145.573 71.5893 145.716 71.824C145.683 71.846 145.623 71.8772 145.535 71.9175C145.447 71.9542 145.349 71.9945 145.243 72.0385C145.137 72.0825 145.034 72.1228 144.935 72.1595C144.84 72.1962 144.768 72.2218 144.721 72.2365ZM147.934 72.0715C147.864 72.0715 147.78 72.0715 147.681 72.0715C147.582 72.0752 147.483 72.0752 147.384 72.0715C147.292 72.0678 147.188 72.0623 147.071 72.055C146.953 72.0513 146.867 72.0458 146.812 72.0385C146.849 71.7342 146.88 71.4023 146.906 71.043C146.935 70.68 146.959 70.273 146.977 69.822C146.995 69.3673 147.01 68.8522 147.021 68.2765C147.032 67.6972 147.038 67.039 147.038 66.302C147.126 66.2873 147.23 66.2763 147.351 66.269C147.476 66.258 147.602 66.2525 147.731 66.2525C147.811 66.2525 147.892 66.2543 147.973 66.258C148.057 66.2617 148.13 66.269 148.193 66.28C148.196 66.3203 148.198 66.3937 148.198 66.5C148.202 66.6063 148.202 66.7237 148.198 66.852C148.198 66.9803 148.198 67.094 148.198 67.193C148.334 67.0427 148.526 66.8887 148.776 66.731C149.025 66.5733 149.304 66.4413 149.612 66.335C149.92 66.225 150.229 66.17 150.541 66.17C151.098 66.17 151.522 66.2818 151.812 66.5055C152.101 66.7255 152.297 67.0518 152.4 67.4845C152.506 67.9172 152.56 68.4543 152.56 69.096C152.56 69.3453 152.552 69.6277 152.538 69.943C152.527 70.2583 152.506 70.592 152.477 70.944C152.451 71.296 152.417 71.6535 152.373 72.0165C152.321 72.0238 152.242 72.0293 152.136 72.033C152.033 72.0403 151.923 72.044 151.806 72.044C151.689 72.044 151.577 72.0422 151.471 72.0385C151.364 72.0348 151.28 72.0275 151.218 72.0165C151.265 71.7048 151.309 71.3803 151.35 71.043C151.39 70.702 151.423 70.3647 151.449 70.031C151.474 69.6937 151.487 69.3765 151.487 69.0795C151.487 68.6982 151.458 68.3645 151.399 68.0785C151.344 67.7925 151.232 67.5707 151.064 67.413C150.899 67.2553 150.655 67.1765 150.332 67.1765C149.998 67.1765 149.692 67.2315 149.414 67.3415C149.135 67.4515 148.891 67.5817 148.682 67.732C148.477 67.8823 148.31 68.0162 148.182 68.1335C148.167 68.7532 148.145 69.3215 148.116 69.8385C148.086 70.3555 148.055 70.8047 148.022 71.186C147.989 71.5673 147.96 71.8625 147.934 72.0715ZM156.885 72.1705C155.924 72.1705 155.215 71.9028 154.757 71.3675C154.298 70.8322 154.069 70.0622 154.069 69.0575C154.069 68.4232 154.186 67.8878 154.421 67.4515C154.659 67.0152 154.989 66.6833 155.411 66.456C155.836 66.2287 156.331 66.115 156.896 66.115C157.494 66.115 157.987 66.2543 158.376 66.533C158.764 66.808 159.052 67.193 159.239 67.688C159.43 68.1793 159.525 68.7513 159.525 69.404C159.525 69.965 159.421 70.4527 159.212 70.867C159.003 71.2777 158.7 71.5985 158.304 71.8295C157.912 72.0568 157.439 72.1705 156.885 72.1705ZM156.841 71.186C157.138 71.186 157.393 71.131 157.606 71.021C157.818 70.911 157.991 70.7643 158.123 70.581C158.255 70.394 158.352 70.185 158.414 69.954C158.48 69.723 158.513 69.4865 158.513 69.2445C158.513 68.8045 158.453 68.4122 158.332 68.0675C158.211 67.7228 158.027 67.4533 157.782 67.259C157.536 67.061 157.222 66.962 156.841 66.962C156.467 66.962 156.154 67.0518 155.901 67.2315C155.648 67.4112 155.457 67.6587 155.329 67.974C155.204 68.2893 155.142 68.6505 155.142 69.0575C155.142 69.6845 155.286 70.196 155.576 70.592C155.866 70.988 156.287 71.186 156.841 71.186ZM162.373 71.9615C162.018 71.9615 161.724 71.8735 161.493 71.6975C161.262 71.5178 161.079 71.274 160.943 70.966C160.811 70.6543 160.718 70.2968 160.663 69.8935C160.612 69.4902 160.586 69.0612 160.586 68.6065C160.586 68.2105 160.601 67.8053 160.63 67.391C160.659 66.9767 160.694 66.5715 160.734 66.1755C160.877 66.1755 161.05 66.1792 161.251 66.1865C161.453 66.1938 161.627 66.203 161.774 66.214C161.726 66.6467 161.69 67.0757 161.664 67.501C161.638 67.9227 161.625 68.3223 161.625 68.7C161.625 69.1217 161.651 69.4993 161.702 69.833C161.754 70.1667 161.842 70.4307 161.966 70.625C162.095 70.8193 162.267 70.9165 162.483 70.9165C162.678 70.9165 162.843 70.8322 162.978 70.6635C163.118 70.4912 163.23 70.2547 163.314 69.954C163.402 69.6497 163.466 69.2995 163.506 68.9035C163.547 68.5038 163.567 68.073 163.567 67.611C163.567 67.4203 163.565 67.2003 163.561 66.951C163.558 66.7017 163.552 66.478 163.545 66.28C163.622 66.28 163.723 66.2818 163.847 66.2855C163.972 66.2855 164.097 66.2873 164.221 66.291C164.346 66.291 164.445 66.2947 164.518 66.302C164.518 66.4817 164.518 66.6595 164.518 66.8355C164.518 67.0115 164.518 67.1875 164.518 67.3635C164.518 67.8878 164.528 68.3718 164.546 68.8155C164.564 69.2592 164.603 69.646 164.661 69.976C164.72 70.3023 164.812 70.5572 164.936 70.7405C165.065 70.9202 165.237 71.01 165.453 71.01C165.666 71.01 165.844 70.9165 165.987 70.7295C166.134 70.5425 166.251 70.2877 166.339 69.965C166.427 69.6387 166.489 69.2683 166.526 68.854C166.566 68.436 166.586 68.0015 166.586 67.5505C166.586 67.4368 166.585 67.3048 166.581 67.1545C166.581 67.0042 166.579 66.852 166.575 66.698C166.572 66.5403 166.568 66.3992 166.564 66.2745C166.63 66.2708 166.702 66.269 166.779 66.269C166.86 66.269 166.938 66.269 167.015 66.269C167.096 66.269 167.188 66.2727 167.29 66.28C167.393 66.2837 167.479 66.2892 167.549 66.2965C167.56 66.4248 167.569 66.5715 167.576 66.7365C167.584 66.9015 167.589 67.0647 167.593 67.226C167.6 67.3837 167.604 67.5267 167.604 67.655C167.604 68.073 167.58 68.4873 167.532 68.898C167.488 69.3087 167.415 69.6955 167.312 70.0585C167.213 70.4215 167.081 70.7423 166.916 71.021C166.755 71.2997 166.557 71.5197 166.322 71.681C166.088 71.8423 165.809 71.923 165.486 71.923C165.237 71.923 165.024 71.8808 164.848 71.7965C164.672 71.7122 164.528 71.6003 164.414 71.461C164.3 71.318 164.209 71.1603 164.139 70.988C164.073 70.812 164.023 70.6323 163.99 70.449C163.957 70.262 163.935 70.0823 163.924 69.91L164.106 69.932C164.088 70.1667 164.038 70.405 163.957 70.647C163.88 70.8853 163.77 71.1035 163.627 71.3015C163.484 71.4995 163.308 71.659 163.099 71.78C162.89 71.901 162.648 71.9615 162.373 71.9615ZM170.439 72.0055C170.388 72.0092 170.307 72.0147 170.197 72.022C170.087 72.0293 169.975 72.033 169.862 72.033C169.759 72.033 169.66 72.0293 169.565 72.022C169.469 72.0147 169.38 72.0055 169.295 71.9945C169.31 71.8992 169.328 71.703 169.35 71.406C169.372 71.1053 169.394 70.7497 169.416 70.339C169.438 69.9283 169.458 69.5048 169.477 69.0685C169.495 68.6322 169.51 68.2252 169.521 67.8475C169.532 67.4662 169.537 67.1637 169.537 66.94C169.578 66.9363 169.642 66.9327 169.73 66.929C169.821 66.9253 169.92 66.9217 170.027 66.918C170.133 66.9107 170.234 66.9052 170.329 66.9015C170.425 66.8978 170.496 66.896 170.544 66.896C170.558 66.995 170.568 67.1472 170.571 67.3525C170.579 67.5542 170.582 67.7833 170.582 68.04C170.582 68.381 170.579 68.7532 170.571 69.1565C170.568 69.5598 170.558 69.9558 170.544 70.3445C170.529 70.7332 170.513 71.076 170.494 71.373C170.48 71.67 170.461 71.8808 170.439 72.0055ZM170.104 66.038C169.854 66.038 169.656 65.9628 169.51 65.8125C169.363 65.6622 169.29 65.4733 169.29 65.246C169.29 65.0737 169.326 64.9307 169.4 64.817C169.473 64.6997 169.568 64.6117 169.686 64.553C169.807 64.4907 169.937 64.4595 170.076 64.4595C170.3 64.4595 170.48 64.5383 170.615 64.696C170.755 64.8537 170.824 65.0498 170.824 65.2845C170.824 65.4898 170.758 65.6677 170.626 65.818C170.498 65.9647 170.324 66.038 170.104 66.038ZM173.672 72.0715C173.603 72.0715 173.518 72.0715 173.419 72.0715C173.32 72.0752 173.221 72.0752 173.122 72.0715C173.031 72.0678 172.926 72.0623 172.809 72.055C172.691 72.0513 172.605 72.0458 172.55 72.0385C172.587 71.7342 172.618 71.4023 172.644 71.043C172.673 70.68 172.697 70.273 172.715 69.822C172.734 69.3673 172.748 68.8522 172.759 68.2765C172.77 67.6972 172.776 67.039 172.776 66.302C172.864 66.2873 172.968 66.2763 173.089 66.269C173.214 66.258 173.34 66.2525 173.469 66.2525C173.549 66.2525 173.63 66.2543 173.711 66.258C173.795 66.2617 173.868 66.269 173.931 66.28C173.934 66.3203 173.936 66.3937 173.936 66.5C173.94 66.6063 173.94 66.7237 173.936 66.852C173.936 66.9803 173.936 67.094 173.936 67.193C174.072 67.0427 174.264 66.8887 174.514 66.731C174.763 66.5733 175.042 66.4413 175.35 66.335C175.658 66.225 175.968 66.17 176.279 66.17C176.837 66.17 177.26 66.2818 177.55 66.5055C177.839 66.7255 178.036 67.0518 178.138 67.4845C178.245 67.9172 178.298 68.4543 178.298 69.096C178.298 69.3453 178.29 69.6277 178.276 69.943C178.265 70.2583 178.245 70.592 178.215 70.944C178.19 71.296 178.155 71.6535 178.111 72.0165C178.059 72.0238 177.981 72.0293 177.874 72.033C177.772 72.0403 177.662 72.044 177.544 72.044C177.427 72.044 177.315 72.0422 177.209 72.0385C177.102 72.0348 177.018 72.0275 176.956 72.0165C177.003 71.7048 177.047 71.3803 177.088 71.043C177.128 70.702 177.161 70.3647 177.187 70.031C177.212 69.6937 177.225 69.3765 177.225 69.0795C177.225 68.6982 177.196 68.3645 177.137 68.0785C177.082 67.7925 176.97 67.5707 176.802 67.413C176.637 67.2553 176.393 67.1765 176.07 67.1765C175.737 67.1765 175.43 67.2315 175.152 67.3415C174.873 67.4515 174.629 67.5817 174.42 67.732C174.215 67.8823 174.048 68.0162 173.92 68.1335C173.905 68.7532 173.883 69.3215 173.854 69.8385C173.824 70.3555 173.793 70.8047 173.76 71.186C173.727 71.5673 173.698 71.8625 173.672 72.0715ZM182.704 70.7295C182.025 70.7295 181.486 70.6195 181.087 70.3995C180.691 70.1795 180.405 69.8953 180.229 69.547C180.056 69.195 179.97 68.8283 179.97 68.447C179.97 67.9667 180.086 67.5597 180.317 67.226C180.551 66.8923 180.867 66.6375 181.263 66.4615C181.659 66.2818 182.101 66.192 182.588 66.192C183.41 66.192 184.037 66.39 184.469 66.786C184.906 67.1783 185.124 67.7137 185.124 68.392C185.124 68.8907 185.017 69.3142 184.805 69.6625C184.596 70.0072 184.31 70.2712 183.947 70.4545C183.584 70.6378 183.169 70.7295 182.704 70.7295ZM182.423 74.7445C181.873 74.7445 181.378 74.6932 180.938 74.5905C180.502 74.4915 180.155 74.3155 179.899 74.0625C179.646 73.8095 179.519 73.4557 179.519 73.001C179.519 72.7077 179.607 72.4382 179.783 72.1925C179.963 71.9468 180.216 71.7488 180.542 71.5985C180.869 71.4445 181.257 71.3602 181.708 71.3455C181.939 71.3382 182.189 71.3327 182.456 71.329C182.728 71.3253 183.003 71.3235 183.281 71.3235C183.864 71.3235 184.345 71.4445 184.722 71.6865C185.104 71.9248 185.294 72.3025 185.294 72.8195C185.294 73.2778 185.175 73.6482 184.937 73.9305C184.702 74.2128 184.368 74.4182 183.936 74.5465C183.507 74.6785 183.003 74.7445 182.423 74.7445ZM182.5 74.0185C182.816 74.0185 183.103 73.9855 183.364 73.9195C183.628 73.8572 183.839 73.749 183.996 73.595C184.154 73.4447 184.233 73.2393 184.233 72.979C184.233 72.7517 184.169 72.5775 184.04 72.4565C183.912 72.3355 183.754 72.253 183.567 72.209C183.38 72.165 183.197 72.143 183.017 72.143C182.874 72.143 182.715 72.143 182.539 72.143C182.366 72.143 182.203 72.143 182.049 72.143C181.895 72.143 181.776 72.143 181.692 72.143C181.538 72.143 181.378 72.1687 181.213 72.22C181.052 72.2713 180.916 72.3612 180.806 72.4895C180.7 72.6215 180.647 72.8067 180.647 73.045C180.647 73.298 180.731 73.4942 180.9 73.6335C181.068 73.7765 181.292 73.8755 181.571 73.9305C181.853 73.9892 182.163 74.0185 182.5 74.0185ZM181.202 71.7965C180.784 71.7232 180.48 71.5912 180.289 71.4005C180.099 71.2098 180.003 71.0063 180.003 70.79C180.003 70.6397 180.04 70.5022 180.113 70.3775C180.19 70.2528 180.286 70.1483 180.399 70.064C180.517 69.9797 180.641 69.9247 180.773 69.899L181.433 70.2895C181.25 70.3482 181.118 70.4233 181.037 70.515C180.96 70.6067 180.922 70.702 180.922 70.801C180.922 70.9367 180.993 71.0632 181.136 71.1805C181.279 71.2942 181.47 71.351 181.708 71.351L181.202 71.7965ZM182.583 69.8605C182.942 69.8605 183.234 69.7982 183.457 69.6735C183.681 69.5452 183.846 69.3692 183.952 69.1455C184.062 68.9182 184.117 68.6615 184.117 68.3755C184.117 68.1188 184.055 67.8933 183.93 67.699C183.809 67.501 183.641 67.3452 183.424 67.2315C183.208 67.1142 182.959 67.0555 182.676 67.0555C182.225 67.0555 181.848 67.16 181.543 67.369C181.243 67.5743 181.092 67.9227 181.092 68.414C181.092 68.854 181.23 69.206 181.505 69.47C181.78 69.7303 182.139 69.8605 182.583 69.8605ZM184.53 67.391L183.919 66.885C183.978 66.742 184.064 66.5917 184.178 66.434C184.295 66.2763 184.422 66.1278 184.557 65.9885C184.693 65.8492 184.819 65.741 184.937 65.664C184.973 65.7117 185.027 65.785 185.096 65.884C185.17 65.9793 185.245 66.0747 185.322 66.17C185.399 66.2653 185.459 66.3405 185.503 66.3955C185.445 66.4322 185.368 66.489 185.272 66.566C185.177 66.643 185.08 66.731 184.981 66.83C184.882 66.929 184.79 67.028 184.706 67.127C184.625 67.226 184.566 67.314 184.53 67.391ZM191.601 74.904C191.088 74.904 190.631 74.8233 190.232 74.662C189.832 74.5007 189.52 74.3412 189.297 74.1835C189.322 74.1138 189.366 74.0185 189.429 73.8975C189.491 73.7802 189.557 73.6628 189.627 73.5455C189.696 73.4282 189.755 73.3383 189.803 73.276C189.902 73.3493 190.048 73.4355 190.243 73.5345C190.437 73.6372 190.657 73.727 190.903 73.804C191.148 73.881 191.396 73.9195 191.645 73.9195C191.971 73.9195 192.248 73.8333 192.476 73.661C192.703 73.4923 192.886 73.2613 193.026 72.968C193.165 72.6783 193.266 72.3502 193.328 71.9835C193.394 71.6168 193.429 71.2392 193.433 70.8505C193.37 70.9862 193.271 71.1273 193.136 71.274C193.004 71.417 192.828 71.538 192.608 71.637C192.388 71.7323 192.118 71.78 191.799 71.78C191.275 71.78 190.87 71.6278 190.584 71.3235C190.298 71.0155 190.098 70.5975 189.984 70.0695C189.874 69.5378 189.819 68.9365 189.819 68.2655C189.819 68.0088 189.825 67.743 189.836 67.468C189.847 67.193 189.859 66.9088 189.874 66.6155C189.922 66.6045 189.991 66.5972 190.083 66.5935C190.175 66.5898 190.272 66.588 190.375 66.588C190.496 66.588 190.611 66.5917 190.721 66.599C190.835 66.6027 190.912 66.61 190.952 66.621C190.945 66.665 190.934 66.7695 190.919 66.9345C190.904 67.0995 190.89 67.2993 190.875 67.534C190.86 67.7687 190.853 68.0107 190.853 68.26C190.853 68.5533 190.866 68.8485 190.892 69.1455C190.917 69.4388 190.967 69.7083 191.04 69.954C191.117 70.1997 191.229 70.3977 191.376 70.548C191.522 70.6947 191.718 70.768 191.964 70.768C192.239 70.768 192.476 70.6892 192.674 70.5315C192.872 70.3738 193.029 70.1428 193.147 69.8385C193.268 69.5305 193.345 69.1528 193.378 68.7055C193.392 68.5332 193.403 68.3407 193.411 68.128C193.422 67.9117 193.431 67.7045 193.438 67.5065C193.445 67.3048 193.449 67.1343 193.449 66.995C193.453 66.852 193.453 66.7658 193.449 66.7365C193.508 66.7292 193.568 66.7237 193.631 66.72C193.693 66.7163 193.755 66.7145 193.818 66.7145C194.041 66.7145 194.245 66.7365 194.428 66.7805C194.443 67.0885 194.45 67.4552 194.45 67.8805C194.45 68.2288 194.445 68.6175 194.434 69.0465C194.423 69.4718 194.406 69.91 194.384 70.361C194.366 70.812 194.346 71.2557 194.324 71.692C194.291 72.3117 194.17 72.8617 193.961 73.342C193.755 73.826 193.456 74.2073 193.064 74.486C192.675 74.7647 192.188 74.904 191.601 74.904ZM198.565 72.1705C197.604 72.1705 196.895 71.9028 196.436 71.3675C195.978 70.8322 195.749 70.0622 195.749 69.0575C195.749 68.4232 195.866 67.8878 196.101 67.4515C196.339 67.0152 196.669 66.6833 197.091 66.456C197.516 66.2287 198.011 66.115 198.576 66.115C199.173 66.115 199.667 66.2543 200.055 66.533C200.444 66.808 200.732 67.193 200.919 67.688C201.109 68.1793 201.205 68.7513 201.205 69.404C201.205 69.965 201.1 70.4527 200.891 70.867C200.682 71.2777 200.38 71.5985 199.984 71.8295C199.591 72.0568 199.118 72.1705 198.565 72.1705ZM198.521 71.186C198.818 71.186 199.073 71.131 199.285 71.021C199.498 70.911 199.67 70.7643 199.802 70.581C199.934 70.394 200.031 70.185 200.094 69.954C200.16 69.723 200.193 69.4865 200.193 69.2445C200.193 68.8045 200.132 68.4122 200.011 68.0675C199.89 67.7228 199.707 67.4533 199.461 67.259C199.216 67.061 198.902 66.962 198.521 66.962C198.147 66.962 197.833 67.0518 197.58 67.2315C197.327 67.4112 197.137 67.6587 197.008 67.974C196.884 68.2893 196.821 68.6505 196.821 69.0575C196.821 69.6845 196.966 70.196 197.256 70.592C197.545 70.988 197.967 71.186 198.521 71.186ZM206.072 66.5C206.127 66.4853 206.205 66.4725 206.308 66.4615C206.414 66.4505 206.521 66.445 206.627 66.445C206.715 66.445 206.81 66.4487 206.913 66.456C207.019 66.4597 207.104 66.467 207.166 66.478C207.225 66.8337 207.274 67.1967 207.315 67.567C207.355 67.9373 207.375 68.3022 207.375 68.6615C207.375 69.1528 207.333 69.6167 207.249 70.053C207.164 70.4893 207.025 70.8743 206.831 71.208C206.64 71.538 206.381 71.7983 206.055 71.989C205.732 72.1797 205.331 72.275 204.851 72.275C204.326 72.275 203.895 72.1723 203.558 71.967C203.221 71.758 202.959 71.4702 202.772 71.1035C202.585 70.7332 202.453 70.3078 202.376 69.8275C202.302 69.3472 202.266 68.8338 202.266 68.2875C202.266 67.9538 202.277 67.6165 202.299 67.2755C202.321 66.9345 202.344 66.6008 202.37 66.2745C202.436 66.2708 202.519 66.269 202.618 66.269C202.72 66.269 202.812 66.2708 202.893 66.2745C203.006 66.2818 203.118 66.2928 203.228 66.3075C203.342 66.3185 203.435 66.335 203.509 66.357C203.472 66.687 203.443 67.0133 203.421 67.336C203.399 67.6587 203.388 67.9703 203.388 68.271C203.388 68.9163 203.441 69.4627 203.547 69.91C203.657 70.3573 203.82 70.6965 204.037 70.9275C204.257 71.1585 204.532 71.274 204.862 71.274C205.17 71.274 205.426 71.1695 205.632 70.9605C205.841 70.7515 205.998 70.449 206.105 70.053C206.211 69.6533 206.264 69.1675 206.264 68.5955C206.264 68.2692 206.248 67.9282 206.215 67.5725C206.182 67.2132 206.134 66.8557 206.072 66.5ZM209.722 67.127C209.832 66.94 209.992 66.7695 210.201 66.6155C210.413 66.4615 210.652 66.3387 210.916 66.247C211.183 66.1553 211.451 66.1095 211.719 66.1095C211.891 66.1095 212.065 66.126 212.241 66.159C212.417 66.1883 212.555 66.2305 212.654 66.2855L212.434 67.391C212.346 67.3543 212.232 67.3158 212.093 67.2755C211.957 67.2315 211.788 67.2095 211.587 67.2095C211.37 67.2095 211.154 67.2498 210.938 67.3305C210.725 67.4075 210.529 67.5138 210.349 67.6495C210.169 67.7852 210.019 67.941 209.898 68.117C209.949 68.3737 209.999 68.6872 210.047 69.0575C210.098 69.4278 210.144 69.8073 210.184 70.196C210.224 70.5847 210.257 70.9403 210.283 71.263C210.309 71.582 210.322 71.8222 210.322 71.9835C210.164 71.9982 209.971 72.0073 209.744 72.011C209.517 72.0147 209.308 72.0147 209.117 72.011C209.117 71.67 209.11 71.3107 209.095 70.933C209.08 70.5517 209.057 70.163 209.024 69.767C208.994 69.3673 208.956 68.9695 208.908 68.5735C208.86 68.1775 208.804 67.7943 208.738 67.424C208.675 67.05 208.604 66.6962 208.523 66.3625C208.622 66.3332 208.738 66.3038 208.87 66.2745C209.005 66.2452 209.13 66.2195 209.244 66.1975C209.357 66.1755 209.434 66.1627 209.475 66.159C209.522 66.2837 209.572 66.445 209.623 66.643C209.674 66.841 209.707 67.0023 209.722 67.127ZM217.8 67.127C217.91 66.94 218.07 66.7695 218.279 66.6155C218.491 66.4615 218.73 66.3387 218.994 66.247C219.261 66.1553 219.529 66.1095 219.797 66.1095C219.969 66.1095 220.143 66.126 220.319 66.159C220.495 66.1883 220.633 66.2305 220.732 66.2855L220.512 67.391C220.424 67.3543 220.31 67.3158 220.171 67.2755C220.035 67.2315 219.866 67.2095 219.665 67.2095C219.448 67.2095 219.232 67.2498 219.016 67.3305C218.803 67.4075 218.607 67.5138 218.427 67.6495C218.248 67.7852 218.097 67.941 217.976 68.117C218.028 68.3737 218.077 68.6872 218.125 69.0575C218.176 69.4278 218.222 69.8073 218.262 70.196C218.303 70.5847 218.336 70.9403 218.361 71.263C218.387 71.582 218.4 71.8222 218.4 71.9835C218.242 71.9982 218.05 72.0073 217.822 72.011C217.595 72.0147 217.386 72.0147 217.195 72.011C217.195 71.67 217.188 71.3107 217.173 70.933C217.159 70.5517 217.135 70.163 217.102 69.767C217.072 69.3673 217.034 68.9695 216.986 68.5735C216.939 68.1775 216.882 67.7943 216.816 67.424C216.753 67.05 216.682 66.6962 216.601 66.3625C216.7 66.3332 216.816 66.3038 216.948 66.2745C217.083 66.2452 217.208 66.2195 217.322 66.1975C217.435 66.1755 217.512 66.1627 217.553 66.159C217.6 66.2837 217.65 66.445 217.701 66.643C217.753 66.841 217.786 67.0023 217.8 67.127ZM224.088 72.1705C223.128 72.1705 222.418 71.9028 221.96 71.3675C221.501 70.8322 221.272 70.0622 221.272 69.0575C221.272 68.4232 221.39 67.8878 221.624 67.4515C221.863 67.0152 222.193 66.6833 222.614 66.456C223.04 66.2287 223.535 66.115 224.099 66.115C224.697 66.115 225.19 66.2543 225.579 66.533C225.967 66.808 226.255 67.193 226.442 67.688C226.633 68.1793 226.728 68.7513 226.728 69.404C226.728 69.965 226.624 70.4527 226.415 70.867C226.206 71.2777 225.903 71.5985 225.507 71.8295C225.115 72.0568 224.642 72.1705 224.088 72.1705ZM224.044 71.186C224.341 71.186 224.596 71.131 224.809 71.021C225.021 70.911 225.194 70.7643 225.326 70.581C225.458 70.394 225.555 70.185 225.617 69.954C225.683 69.723 225.716 69.4865 225.716 69.2445C225.716 68.8045 225.656 68.4122 225.535 68.0675C225.414 67.7228 225.23 67.4533 224.985 67.259C224.739 67.061 224.426 66.962 224.044 66.962C223.67 66.962 223.357 67.0518 223.104 67.2315C222.851 67.4112 222.66 67.6587 222.532 67.974C222.407 68.2893 222.345 68.6505 222.345 69.0575C222.345 69.6845 222.49 70.196 222.779 70.592C223.069 70.988 223.491 71.186 224.044 71.186ZM230.534 72.1705C229.573 72.1705 228.863 71.9028 228.405 71.3675C227.947 70.8322 227.718 70.0622 227.718 69.0575C227.718 68.4232 227.835 67.8878 228.07 67.4515C228.308 67.0152 228.638 66.6833 229.06 66.456C229.485 66.2287 229.98 66.115 230.545 66.115C231.142 66.115 231.635 66.2543 232.024 66.533C232.413 66.808 232.701 67.193 232.888 67.688C233.078 68.1793 233.174 68.7513 233.174 69.404C233.174 69.965 233.069 70.4527 232.86 70.867C232.651 71.2777 232.349 71.5985 231.953 71.8295C231.56 72.0568 231.087 72.1705 230.534 72.1705ZM230.49 71.186C230.787 71.186 231.041 71.131 231.254 71.021C231.467 70.911 231.639 70.7643 231.771 70.581C231.903 70.394 232 70.185 232.063 69.954C232.129 69.723 232.162 69.4865 232.162 69.2445C232.162 68.8045 232.101 68.4122 231.98 68.0675C231.859 67.7228 231.676 67.4533 231.43 67.259C231.184 67.061 230.871 66.962 230.49 66.962C230.116 66.962 229.802 67.0518 229.549 67.2315C229.296 67.4112 229.105 67.6587 228.977 67.974C228.852 68.2893 228.79 68.6505 228.79 69.0575C228.79 69.6845 228.935 70.196 229.225 70.592C229.514 70.988 229.936 71.186 230.49 71.186ZM238.114 70.977C238.059 71.153 237.974 71.3382 237.861 71.5325C237.747 71.7232 237.589 71.8845 237.388 72.0165C237.186 72.1522 236.926 72.22 236.607 72.22C236.196 72.22 235.87 72.1302 235.628 71.9505C235.389 71.7708 235.219 71.5343 235.116 71.241C235.013 70.9477 234.962 70.6287 234.962 70.284C234.962 70.1043 234.964 69.8917 234.968 69.646C234.975 69.4003 234.982 69.1455 234.99 68.8815C234.997 68.6175 235.004 68.3627 235.012 68.117C235.023 67.8677 235.032 67.6495 235.039 67.4625C235.046 67.2718 235.052 67.1307 235.056 67.039C234.696 67.0757 234.385 67.116 234.121 67.16C233.86 67.2003 233.693 67.2315 233.62 67.2535C233.598 67.1362 233.58 67.0133 233.565 66.885C233.554 66.753 233.545 66.6338 233.538 66.5275C233.534 66.4212 233.532 66.3497 233.532 66.313C233.737 66.2837 233.976 66.2525 234.247 66.2195C234.522 66.1865 234.793 66.1608 235.061 66.1425C235.065 65.9995 235.067 65.8235 235.067 65.6145C235.067 65.4018 235.067 65.202 235.067 65.015C235.063 64.8573 235.056 64.7052 235.045 64.5585C235.034 64.4082 235.024 64.2835 235.017 64.1845L236.051 64.124C236.058 64.179 236.066 64.311 236.073 64.52C236.084 64.7253 236.09 64.9747 236.09 65.268C236.09 65.378 236.09 65.5118 236.09 65.6695C236.09 65.8235 236.09 65.961 236.09 66.082C236.2 66.0747 236.335 66.0673 236.497 66.06C236.658 66.0527 236.788 66.049 236.887 66.049C237.059 66.0453 237.224 66.0435 237.382 66.0435C237.54 66.0435 237.675 66.0453 237.789 66.049C237.903 66.0527 237.972 66.0563 237.998 66.06C238.016 66.159 238.027 66.2965 238.031 66.4725C238.038 66.6485 238.042 66.7952 238.042 66.9125C238.005 66.9088 237.879 66.907 237.663 66.907C237.45 66.9033 237.239 66.9033 237.03 66.907C236.88 66.9107 236.715 66.918 236.535 66.929C236.355 66.9363 236.201 66.9437 236.073 66.951C236.069 67.0463 236.062 67.1875 236.051 67.3745C236.044 67.5615 236.036 67.7723 236.029 68.007C236.022 68.238 236.014 68.4745 236.007 68.7165C236 68.9548 235.994 69.1785 235.991 69.3875C235.987 69.5928 235.985 69.7597 235.985 69.888C235.985 70.119 235.998 70.339 236.024 70.548C236.053 70.757 236.119 70.9293 236.222 71.065C236.328 71.197 236.495 71.263 236.722 71.263C236.876 71.263 237.001 71.208 237.096 71.098C237.191 70.988 237.265 70.8615 237.316 70.7185C237.371 70.5755 237.411 70.4563 237.437 70.361C237.47 70.3977 237.518 70.4472 237.58 70.5095C237.646 70.5682 237.716 70.6305 237.789 70.6965C237.866 70.7625 237.934 70.8212 237.993 70.8725C238.055 70.9238 238.095 70.9587 238.114 70.977ZM241.026 72.4455C240.685 72.4455 240.346 72.3978 240.009 72.3025C239.671 72.2072 239.363 72.0807 239.085 71.923C238.81 71.7617 238.59 71.5838 238.425 71.3895C238.45 71.3382 238.487 71.2685 238.535 71.1805C238.582 71.0925 238.637 71.0008 238.7 70.9055C238.762 70.8065 238.824 70.7167 238.887 70.636C238.949 70.5517 239.004 70.4875 239.052 70.4435C239.209 70.6195 239.398 70.79 239.618 70.955C239.838 71.1163 240.075 71.2483 240.328 71.351C240.581 71.45 240.834 71.4995 241.087 71.4995C241.329 71.4995 241.547 71.4647 241.741 71.395C241.939 71.3217 242.095 71.2172 242.209 71.0815C242.326 70.9458 242.385 70.7827 242.385 70.592C242.385 70.372 242.315 70.1832 242.176 70.0255C242.036 69.8642 241.849 69.723 241.615 69.602C241.38 69.4773 241.122 69.3637 240.839 69.261C240.498 69.1363 240.187 69.0007 239.904 68.854C239.626 68.7037 239.402 68.5167 239.233 68.293C239.068 68.0693 238.986 67.7852 238.986 67.4405C238.986 67.0885 239.085 66.7952 239.283 66.5605C239.484 66.3258 239.748 66.148 240.075 66.027C240.405 65.906 240.76 65.8455 241.142 65.8455C241.567 65.8455 241.958 65.9005 242.313 66.0105C242.673 66.1168 242.948 66.2415 243.138 66.3845C243.124 66.4468 243.092 66.5293 243.045 66.632C242.997 66.731 242.942 66.8318 242.88 66.9345C242.817 67.0372 242.753 67.1307 242.687 67.215C242.511 67.0977 242.297 66.9858 242.044 66.8795C241.791 66.7732 241.516 66.72 241.219 66.72C241.021 66.72 240.83 66.7438 240.647 66.7915C240.463 66.8355 240.313 66.9107 240.196 67.017C240.078 67.1233 240.02 67.2682 240.02 67.4515C240.02 67.6092 240.077 67.7503 240.19 67.875C240.308 67.9997 240.465 68.1115 240.663 68.2105C240.861 68.3058 241.085 68.3975 241.334 68.4855C241.635 68.5882 241.914 68.7037 242.17 68.832C242.427 68.9567 242.649 69.1015 242.836 69.2665C243.026 69.4278 243.175 69.6148 243.281 69.8275C243.388 70.0365 243.441 70.273 243.441 70.537C243.441 70.9587 243.333 71.3107 243.116 71.593C242.9 71.8753 242.61 72.088 242.247 72.231C241.884 72.374 241.477 72.4455 241.026 72.4455Z" fill="#A9A9A9"/>
<g id="NGLED">
<path d="M144.288 43.8125V28.2607C144.288 28.0898 144.293 27.9303 144.305 27.7822C144.316 27.6227 144.345 27.486 144.39 27.3721C144.447 27.2467 144.521 27.1499 144.612 27.0815C144.715 27.0018 144.852 26.9619 145.022 26.9619C145.319 26.9619 145.512 27.0929 145.604 27.355C145.695 27.6056 145.74 27.9076 145.74 28.2607V44.9062C145.74 45.6354 145.547 46 145.159 46C144.897 46 144.572 45.8234 144.185 45.4702L126.565 29.1494V44.8037C126.565 45.1341 126.514 45.4189 126.412 45.6582C126.32 45.8861 126.138 46 125.865 46C125.534 46 125.324 45.8861 125.232 45.6582C125.153 45.4189 125.113 45.1341 125.113 44.8037V28.0728C125.113 27.731 125.175 27.4689 125.301 27.2866C125.426 27.1043 125.597 27.0132 125.813 27.0132C126.098 27.0132 126.429 27.1841 126.805 27.5259L144.288 43.8125ZM163.411 45.231C165.132 45.231 166.772 45.117 168.333 44.8892C169.894 44.6613 171.466 44.3594 173.05 43.9834V36.8398H164.334C164.197 36.8398 164.055 36.8398 163.907 36.8398C163.77 36.8285 163.639 36.8057 163.514 36.7715C163.4 36.7259 163.303 36.6632 163.223 36.5835C163.155 36.5037 163.121 36.3898 163.121 36.2417C163.121 36.0936 163.155 35.9797 163.223 35.8999C163.303 35.8201 163.4 35.7632 163.514 35.729C163.628 35.6834 163.753 35.6606 163.89 35.6606C164.038 35.6493 164.186 35.6436 164.334 35.6436H173.05C173.528 35.6436 173.853 35.7347 174.024 35.917C174.195 36.0993 174.28 36.4069 174.28 36.8398V43.9834C174.28 44.3366 174.149 44.61 173.887 44.8037C173.625 44.986 173.346 45.1056 173.05 45.1626C171.364 45.493 169.729 45.7721 168.145 46C166.561 46.2393 164.983 46.3589 163.411 46.3589C161.292 46.3589 159.429 46.1766 157.823 45.812C156.228 45.4474 154.895 44.8721 153.824 44.0859C152.753 43.2884 151.944 42.2687 151.397 41.0269C150.861 39.7736 150.594 38.2583 150.594 36.481C150.594 34.7036 150.861 33.194 151.397 31.9521C151.944 30.6989 152.753 29.6792 153.824 28.8931C154.895 28.0955 156.228 27.5145 157.823 27.1499C159.429 26.7853 161.292 26.603 163.411 26.603C164.892 26.603 166.328 26.7397 167.718 27.0132C169.108 27.2752 170.521 27.7025 171.956 28.2949C172.138 28.3747 172.269 28.4772 172.349 28.6025C172.429 28.7165 172.469 28.8304 172.469 28.9443C172.469 29.0811 172.417 29.2007 172.315 29.3032C172.212 29.4058 172.081 29.457 171.922 29.457C171.876 29.457 171.768 29.4285 171.597 29.3716C170.287 28.8247 168.931 28.4146 167.53 28.1411C166.128 27.8677 164.756 27.731 163.411 27.731C161.383 27.731 159.651 27.9019 158.216 28.2437C156.78 28.5741 155.601 29.0981 154.678 29.8159C153.767 30.5223 153.1 31.4281 152.679 32.5332C152.257 33.627 152.046 34.9429 152.046 36.481C152.046 38.019 152.257 39.3407 152.679 40.4458C153.1 41.5396 153.767 42.4453 154.678 43.1631C155.601 43.8695 156.78 44.3936 158.216 44.7354C159.651 45.0658 161.383 45.231 163.411 45.231ZM179.681 46C179.51 46 179.373 45.9943 179.271 45.9829C179.179 45.9715 179.111 45.9487 179.065 45.9146C179.02 45.869 178.991 45.8063 178.98 45.7266C178.98 45.6354 178.98 45.5158 178.98 45.3677V28.0728C178.98 27.7765 179.031 27.5202 179.134 27.3037C179.236 27.0758 179.453 26.9619 179.783 26.9619C180.057 26.9619 180.233 27.0815 180.313 27.3208C180.393 27.5487 180.433 27.7993 180.433 28.0728V44.8721H195.113C195.341 44.8721 195.512 44.9347 195.625 45.0601C195.751 45.174 195.813 45.2993 195.813 45.436C195.813 45.5841 195.751 45.7152 195.625 45.8291C195.512 45.943 195.341 46 195.113 46H179.681ZM216.116 45.4019C216.116 45.5728 216.088 45.6981 216.031 45.7778C215.974 45.8576 215.894 45.9146 215.792 45.9487C215.7 45.9829 215.586 46 215.45 46C215.313 46 215.159 46 214.988 46H199.026C198.912 46 198.827 45.9943 198.77 45.9829C198.713 45.9715 198.667 45.943 198.633 45.8975C198.611 45.8519 198.593 45.7949 198.582 45.7266C198.582 45.6468 198.582 45.5386 198.582 45.4019V27.7651C198.582 27.5942 198.582 27.4575 198.582 27.355C198.593 27.2524 198.616 27.1727 198.65 27.1157C198.685 27.0588 198.742 27.0189 198.821 26.9961C198.912 26.9733 199.043 26.9619 199.214 26.9619H214.817C214.988 26.9619 215.148 26.9619 215.296 26.9619C215.444 26.9619 215.575 26.979 215.689 27.0132C215.814 27.0474 215.911 27.1043 215.979 27.1841C216.048 27.2638 216.082 27.3892 216.082 27.5601C216.082 27.6968 216.048 27.805 215.979 27.8848C215.911 27.9531 215.814 28.0044 215.689 28.0386C215.575 28.0728 215.444 28.0898 215.296 28.0898C215.148 28.0898 214.988 28.0898 214.817 28.0898H200.035V35.5752H214.732C214.983 35.5752 215.193 35.6094 215.364 35.6777C215.535 35.7461 215.621 35.8942 215.621 36.1221C215.621 36.3727 215.547 36.5379 215.398 36.6177C215.262 36.6974 215.079 36.7373 214.852 36.7373H200.035V44.8721H214.852C215.022 44.8721 215.182 44.8721 215.33 44.8721C215.478 44.8721 215.609 44.8892 215.723 44.9233C215.848 44.9575 215.945 45.0145 216.014 45.0942C216.082 45.1626 216.116 45.2651 216.116 45.4019ZM244.52 36.4468C244.52 38.2697 244.28 39.7907 243.802 41.0098C243.323 42.2288 242.611 43.2087 241.666 43.9492C240.72 44.6898 239.541 45.2196 238.128 45.5386C236.727 45.8462 235.097 46 233.24 46H221.482C221.312 46 221.181 46 221.089 46C221.01 45.9886 220.947 45.9658 220.901 45.9316C220.856 45.8861 220.827 45.8234 220.816 45.7437C220.816 45.6639 220.816 45.55 220.816 45.4019V27.5942C220.816 27.4233 220.816 27.298 220.816 27.2183C220.827 27.1271 220.856 27.0645 220.901 27.0303C220.947 26.9961 221.015 26.979 221.106 26.979C221.209 26.9676 221.346 26.9619 221.517 26.9619H233.24C235.097 26.9619 236.727 27.1214 238.128 27.4404C239.541 27.7594 240.72 28.2949 241.666 29.0469C242.611 29.7874 243.323 30.7616 243.802 31.9692C244.28 33.1769 244.52 34.6694 244.52 36.4468ZM243.067 36.4468C243.067 34.9771 242.902 33.7181 242.571 32.6699C242.241 31.6104 241.694 30.7445 240.931 30.0723C240.167 29.3887 239.159 28.8874 237.906 28.5684C236.653 28.2493 235.097 28.0898 233.24 28.0898H222.269V44.8721H233.24C235.097 44.8721 236.653 44.7126 237.906 44.3936C239.159 44.0745 240.167 43.5789 240.931 42.9067C241.694 42.2231 242.241 41.3516 242.571 40.292C242.902 39.221 243.067 37.9393 243.067 36.4468Z" fill="#111111"/>
<path d="M122.378 50.6484H246.622V51.3491H122.378V50.6484Z" fill="#111111"/>
</g>
<line id="Line 1" x1="107.356" y1="-2.52357" x2="95.4764" y2="5.64378" stroke="#994900" stroke-width="5" stroke-linecap="round"/>
<line id="Line 97" x1="97.4" y1="3.8" x2="90.8" y2="12.6" stroke="#994900" stroke-width="4" stroke-linecap="round"/>
<line id="Line 98" x1="91.1213" y1="12" x2="98" y2="18.8787" stroke="#994900" stroke-width="3" stroke-linecap="round"/>
<line id="Line 37" x1="93.7" y1="20.1" x2="96.1" y2="23.3" stroke="#994900" stroke-linecap="round"/>
<line id="Line 99" x1="94.3922" y1="16.5883" x2="93.5883" y2="20.6078" stroke="#994900" stroke-linecap="round"/>
<line id="Line 101" x1="90.2236" y1="13.6708" x2="88.6708" y2="16.7764" stroke="#994900" stroke-linecap="round"/>
<line id="Line 102" x1="89.7215" y1="11.6499" x2="85.6499" y2="13.2785" stroke="#994900" stroke-linecap="round"/>
<path id="Line 43" d="M56.2343 11.8126L56.0469 11.5783L55.5783 11.9531L55.7657 12.1874L56.2343 11.8126ZM59.7657 17.1874C59.8692 17.3168 60.058 17.3378 60.1874 17.2343C60.3168 17.1308 60.3378 16.942 60.2343 16.8126L59.7657 17.1874ZM55.7657 12.1874L59.7657 17.1874L60.2343 16.8126L56.2343 11.8126L55.7657 12.1874Z" fill="#994900"/>
<path id="Line 74" d="M59.4424 15.703L59.1454 15.6606L59.0606 16.2546L59.3576 16.297L59.4424 15.703ZM66.3576 17.297C66.5216 17.3204 66.6735 17.2064 66.697 17.0424C66.7204 16.8784 66.6064 16.7264 66.4424 16.703L66.3576 17.297ZM59.3576 16.297L66.3576 17.297L66.4424 16.703L59.4424 15.703L59.3576 16.297Z" fill="#994900"/>
<line id="Line 42" x1="104.657" y1="19.2626" x2="107.263" y2="25.3435" stroke="#994900" stroke-linecap="round"/>
<line id="Line 100" x1="98.5657" y1="18.5757" x2="104.576" y2="19.4343" stroke="#994900" stroke-linecap="round"/>
<line id="Line 38" x1="22.1387" y1="19.3066" x2="27.3066" y2="15.8613" stroke="#994900" stroke-linecap="round"/>
<line id="Line 51" x1="48.6838" y1="34.3675" x2="49.3675" y2="32.3162" stroke="#994900" stroke-linecap="round"/>
<line id="Line 52" x1="50.3675" y1="33.6838" x2="49.6838" y2="31.6325" stroke="#994900" stroke-linecap="round"/>
<line id="Line 94" x1="30.3675" y1="31.6838" x2="29.6838" y2="29.6325" stroke="#994900" stroke-linecap="round"/>
<line id="Line 95" x1="12.3675" y1="19.6838" x2="11.6838" y2="17.6325" stroke="#994900" stroke-linecap="round"/>
<line id="Line 96" x1="22.3675" y1="48.3162" x2="17.3162" y2="46.6325" stroke="#994900" stroke-linecap="round"/>
<line id="Line 53" x1="51.7764" y1="29.6708" x2="50.6708" y2="30.2236" stroke="#994900" stroke-linecap="round"/>
<line id="Line 56" x1="32.6838" y1="52.3675" x2="33.3675" y2="50.3162" stroke="#994900" stroke-linecap="round"/>
<line id="Line 57" x1="35.3066" y1="51.8613" x2="33.8613" y2="49.6934" stroke="#994900" stroke-linecap="round"/>
<line id="Line 65" x1="10.3459" y1="52.273" x2="12.425" y2="51.6793" stroke="#994900" stroke-linecap="round"/>
<line id="Line 66" x1="12.2445" y1="54.1521" x2="13.2179" y2="51.7352" stroke="#994900" stroke-linecap="round"/>
<line id="Line 67" x1="6.67931" y1="53.3768" x2="7.34856" y2="51.3207" stroke="#994900" stroke-linecap="round"/>
<line id="Line 68" x1="9.29849" y1="52.852" x2="7.8379" y2="50.6943" stroke="#994900" stroke-linecap="round"/>
<line id="Line 69" x1="7.84703" y1="56.0175" x2="10.3096" y2="52.153" stroke="#994900" stroke-linecap="round"/>
<line id="Line 63" x1="6.22361" y1="29.6708" x2="3.67082" y2="34.7764" stroke="#994900" stroke-linecap="round"/>
<line id="Line 59" x1="57.3749" y1="50.808" x2="58.6026" y2="49.0281" stroke="#994900" stroke-linecap="round"/>
<line id="Line 60" x1="60.035" y1="51.0518" x2="59.2502" y2="48.5673" stroke="#994900" stroke-linecap="round"/>
<line id="Line 61" x1="76.4776" y1="46.1534" x2="74.9178" y2="44.6559" stroke="#994900" stroke-linecap="round"/>
<line id="Line 62" x1="77.1452" y1="43.5669" x2="74.5669" y2="43.9427" stroke="#994900" stroke-linecap="round"/>
<line id="Line 75" x1="100.478" y1="25.1534" x2="98.9178" y2="23.6559" stroke="#994900" stroke-linecap="round"/>
<line id="Line 76" x1="101.145" y1="22.5669" x2="98.5669" y2="22.9427" stroke="#994900" stroke-linecap="round"/>
<line id="Line 93" x1="114.145" y1="26.5669" x2="111.567" y2="26.9427" stroke="#994900" stroke-linecap="round"/>
<line id="Line 77" x1="86.8996" y1="46.7799" x2="88.1959" y2="45.0493" stroke="#994900" stroke-linecap="round"/>
<line id="Line 78" x1="89.5481" y1="47.1275" x2="88.8611" y2="44.6141" stroke="#994900" stroke-linecap="round"/>
<line id="Line 79" x1="103.157" y1="47.1809" x2="103.11" y2="45.0192" stroke="#994900" stroke-linecap="round"/>
<line id="Line 80" x1="105.456" y1="45.8205" x2="103.365" y2="44.2664" stroke="#994900" stroke-linecap="round"/>
<line id="Line 81" x1="99.8528" y1="42.1124" x2="101.626" y2="43.3497" stroke="#994900" stroke-linecap="round"/>
<line id="Line 82" x1="99.5947" y1="44.7711" x2="102.083" y2="43.9998" stroke="#994900" stroke-linecap="round"/>
<line id="Line 83" x1="76.8534" y1="22.1121" x2="78.6262" y2="23.35" stroke="#994900" stroke-linecap="round"/>
<line id="Line 84" x1="76.5943" y1="24.7707" x2="79.0833" y2="24.0002" stroke="#994900" stroke-linecap="round"/>
<line id="Line 85" x1="121.478" y1="48.1534" x2="119.918" y2="46.6559" stroke="#994900" stroke-linecap="round"/>
<line id="Line 86" x1="122.145" y1="45.5669" x2="119.567" y2="45.9427" stroke="#994900" stroke-linecap="round"/>
<line id="Line 87" x1="116.254" y1="47.2975" x2="118.23" y2="46.42" stroke="#994900" stroke-linecap="round"/>
<line id="Line 88" x1="118.396" y1="48.8938" x2="119.023" y2="46.3649" stroke="#994900" stroke-linecap="round"/>
<line id="Line 89" x1="114.478" y1="40.1534" x2="112.918" y2="38.6559" stroke="#994900" stroke-linecap="round"/>
<line id="Line 90" x1="115.145" y1="37.5669" x2="112.567" y2="37.9427" stroke="#994900" stroke-linecap="round"/>
<line id="Line 91" x1="110.81" y1="40.0545" x2="111.873" y2="38.1713" stroke="#994900" stroke-linecap="round"/>
<line id="Line 92" x1="113.482" y1="40.0581" x2="112.477" y2="37.6542" stroke="#994900" stroke-linecap="round"/>
<line id="Line 70" x1="50.4776" y1="46.1534" x2="48.9178" y2="44.6559" stroke="#994900" stroke-linecap="round"/>
<line id="Line 71" x1="52.1452" y1="42.5669" x2="49.5669" y2="42.9427" stroke="#994900" stroke-linecap="round"/>
<line id="Line 58" x1="36.3675" y1="49.3162" x2="34.3162" y2="48.6325" stroke="#994900" stroke-linecap="round"/>
<line id="Line 54" x1="51.6838" y1="21.6325" x2="49.6325" y2="22.3162" stroke="#994900" stroke-linecap="round"/>
<line id="Line 55" x1="52.5" y1="24.5" x2="50.5" y2="24.5" stroke="#994900" stroke-linecap="round"/>
<line id="Line 44" x1="26.4243" y1="16.4343" x2="32.4343" y2="15.5757" stroke="#994900" stroke-linecap="round"/>
<line id="Line 45" x1="32.3162" y1="15.3675" x2="37.3675" y2="13.6838" stroke="#994900" stroke-linecap="round"/>
<line id="Line 46" x1="37.411" y1="13.4246" x2="42.4246" y2="12.589" stroke="#994900" stroke-linecap="round"/>
<line id="Line 47" x1="42.5754" y1="12.589" x2="53.589" y2="14.4246" stroke="#994900" stroke-linecap="round"/>
<line id="Line 39" x1="37.0542" y1="24.295" x2="43.295" y2="18.9458" stroke="#994900" stroke-linecap="round"/>
<line id="Line 48" x1="42.3162" y1="19.3675" x2="50.3675" y2="16.6838" stroke="#994900" stroke-linecap="round"/>
<line id="Line 49" x1="49.2236" y1="17.3292" x2="54.3292" y2="14.7764" stroke="#994900" stroke-linecap="round"/>
<line id="Line 40" x1="56.5" y1="27.5" x2="56.5" y2="21.5" stroke="#994900" stroke-linecap="round"/>
<line id="Line 50" x1="56.3435" y1="21.7374" x2="53.7374" y2="15.6565" stroke="#994900" stroke-linecap="round"/>
<line id="Line 41" x1="52.1425" y1="3.57003" x2="58.57" y2="-7.14251" stroke="#994900" stroke-width="5" stroke-linecap="round"/>
<line id="Line 72" x1="56.2865" y1="12.2019" x2="52.2019" y2="4.7135" stroke="#994900" stroke-width="4" stroke-linecap="round"/>
<line id="Line 73" x1="56.4418" y1="13.0466" x2="52.0466" y2="15.5582" stroke="#994900" stroke-width="3" stroke-linecap="round"/>
<line id="Line 12" x1="6.5" y1="19.5" x2="6.5" y2="35.5" stroke="#994900" stroke-width="3" stroke-linecap="round"/>
<line id="Line 13" x1="6.57676" y1="34.4191" x2="7.41909" y2="50.4232" stroke="#994900" stroke-width="3" stroke-linecap="round"/>
<line id="Line 31" x1="108.198" y1="23.7507" x2="105.751" y2="36.8021" stroke="#994900" stroke-width="3" stroke-linecap="round"/>
<line id="Line 33" x1="109.012" y1="22.6708" x2="114.671" y2="33.9875" stroke="#994900" stroke-width="3" stroke-linecap="round"/>
<line id="Line 32" x1="105.836" y1="36.9498" x2="102.95" y2="44.1644" stroke="#994900" stroke-width="3" stroke-linecap="round"/>
<line id="Line 35" x1="121.878" y1="40.9312" x2="119.931" y2="46.1222" stroke="#994900" stroke-width="3" stroke-linecap="round"/>
<line id="Line 34" x1="115.121" y1="34" x2="122" y2="40.8787" stroke="#994900" stroke-width="3" stroke-linecap="round"/>
<line id="Line 14" x1="6.98431" y1="19.1209" x2="20.1209" y2="15.0157" stroke="#994900" stroke-width="3" stroke-linecap="round"/>
<line id="Line 15" x1="20.1035" y1="15.2744" x2="28.2744" y2="25.8965" stroke="#994900" stroke-width="3" stroke-linecap="round"/>
<line id="Line 16" x1="28.5" y1="26.5" x2="28.5" y2="41.5" stroke="#994900" stroke-width="3" stroke-linecap="round"/>
<line id="Line 19" x1="34.4455" y1="23.5526" x2="33.5526" y2="48.5545" stroke="#994900" stroke-width="3" stroke-linecap="round"/>
<line id="Line 20" x1="34.3252" y1="32.3435" x2="49.3435" y2="30.6748" stroke="#994900" stroke-width="3" stroke-linecap="round"/>
<line id="Line 21" x1="34.5" y1="23.5" x2="49.5" y2="23.5" stroke="#994900" stroke-width="3" stroke-linecap="round"/>
<line id="Line 29" x1="79.5965" y1="23.6031" x2="91.6031" y2="24.4035" stroke="#994900" stroke-width="3" stroke-linecap="round"/>
<line id="Line 24" x1="56.6148" y1="25.3756" x2="58.3756" y2="47.3852" stroke="#994900" stroke-width="3" stroke-linecap="round"/>
<line id="Line 27" x1="88.6106" y1="25.3805" x2="89.3805" y2="35.3894" stroke="#994900" stroke-width="3" stroke-linecap="round"/>
<line id="Line 28" x1="89.358" y1="36.6296" x2="88.6296" y2="44.642" stroke="#994900" stroke-width="3" stroke-linecap="round"/>
<line id="Line 22" x1="34.6418" y1="44.6567" x2="41.6567" y2="45.3582" stroke="#994900" stroke-width="3" stroke-linecap="round"/>
<line id="Line 23" x1="42.1767" y1="45.235" x2="49.235" y2="43.8233" stroke="#994900" stroke-width="3" stroke-linecap="round"/>
<line id="Line 30" x1="91.1767" y1="24.235" x2="98.235" y2="22.8233" stroke="#994900" stroke-width="3" stroke-linecap="round"/>
<line id="Line 25" x1="59.2545" y1="45.2894" x2="69.2894" y2="43.7455" stroke="#994900" stroke-width="3" stroke-linecap="round"/>
<line id="Line 26" x1="69.6745" y1="43.6976" x2="74.6976" y2="44.3255" stroke="#994900" stroke-width="3" stroke-linecap="round"/>
<line id="Line 36" x1="106.79" y1="35.8611" x2="112.861" y2="37.2103" stroke="#994900" stroke-width="3" stroke-linecap="round"/>
<line id="Line 17" x1="28.3687" y1="42.089" x2="23.089" y2="49.6313" stroke="#994900" stroke-width="3" stroke-linecap="round"/>
<line id="Line 18" x1="22.7455" y1="49.7106" x2="12.7106" y2="51.2545" stroke="#994900" stroke-width="3" stroke-linecap="round"/>
<line id="Line 64" x1="3.93598" y1="34.7042" x2="-1.2958" y2="39.064" stroke="#994900" stroke-linecap="round"/>
</g>
<defs>
<clipPath id="clip0_1_3">
<rect width="250" height="80" fill="white"/>
</clipPath>
</defs>
</svg>
