<svg width="250" height="80" viewBox="0 0 250 80" fill="none" xmlns="http://www.w3.org/2000/svg">
<g id="Gammafire" clip-path="url(#clip0_1_3)">
<rect id="Rectangle 1" width="250" height="79" rx="7" fill="#FF6A2C"/>
<path id="Claim the gems, claim the crown!" d="M40.1971 61.65C40.1691 61.9487 40.1411 62.252 40.1131 62.56C40.0851 62.868 40.0618 63.1947 40.0431 63.54C40.0338 63.876 40.0291 64.2493 40.0291 64.66C40.0291 65.444 40.0898 66.0507 40.2111 66.48C40.3325 66.9 40.5098 67.194 40.7431 67.362C40.9765 67.53 41.2518 67.614 41.5691 67.614L43.5851 67.6V68.804C43.4358 68.8413 43.2258 68.8833 42.9551 68.93C42.6938 68.9767 42.4231 69.014 42.1431 69.042C41.8631 69.0793 41.6158 69.1073 41.4011 69.126C41.1865 69.1447 41.0558 69.154 41.0091 69.154C40.3185 69.154 39.7305 69.014 39.2451 68.734C38.7598 68.4447 38.3911 67.9967 38.1391 67.39C37.8871 66.7833 37.7611 65.9993 37.7611 65.038C37.7611 64.4873 37.7985 63.988 37.8731 63.54C37.9571 63.0827 38.0598 62.7 38.1811 62.392C38.3211 62.2147 38.5218 62.0233 38.7831 61.818C39.0445 61.6033 39.3245 61.398 39.6231 61.202L40.1971 61.65ZM40.7431 67.642V61.244C40.7431 61.16 40.7711 61.0387 40.8271 60.88C40.8831 60.712 40.9438 60.53 41.0091 60.334L41.4991 60.348V66.844C41.4991 66.9 41.4665 67.0027 41.4011 67.152C41.3358 67.292 41.2518 67.4553 41.1491 67.642H40.7431ZM43.5851 63.372H42.5211L42.3251 61.734C42.2318 61.6967 42.1151 61.664 41.9751 61.636C41.8351 61.5987 41.6998 61.566 41.5691 61.538C41.4385 61.51 41.3358 61.496 41.2611 61.496C41.1771 61.496 41.1071 61.496 41.0511 61.496C41.0045 61.496 40.9578 61.5007 40.9111 61.51L41.0091 60.334C41.0558 60.3153 41.0978 60.306 41.1351 60.306C41.1725 60.2967 41.2098 60.292 41.2471 60.292C41.4431 60.292 41.6905 60.3107 41.9891 60.348C42.2878 60.376 42.5958 60.4087 42.9131 60.446C43.2398 60.4833 43.5198 60.5207 43.7531 60.558L43.5851 63.372ZM45.4817 69.154C45.4444 69.154 45.3744 69.1167 45.2717 69.042C45.169 68.9673 45.071 68.8833 44.9777 68.79C44.8937 68.6967 44.8517 68.6313 44.8517 68.594V61.09L44.2777 60.88V60.068C44.2777 60.068 44.3384 60.0587 44.4597 60.04C44.581 60.0213 44.735 59.998 44.9217 59.97C45.1177 59.942 45.3137 59.914 45.5097 59.886C45.7057 59.858 45.8784 59.8347 46.0277 59.816C46.177 59.7973 46.275 59.788 46.3217 59.788C46.359 59.788 46.415 59.8253 46.4897 59.9C46.5737 59.9747 46.653 60.0587 46.7277 60.152C46.8117 60.236 46.8537 60.2967 46.8537 60.334V67.852L47.3997 68.062V68.86C47.3997 68.86 47.311 68.8787 47.1337 68.916C46.9657 68.944 46.7604 68.9767 46.5177 69.014C46.2844 69.0513 46.065 69.084 45.8597 69.112C45.6544 69.14 45.5284 69.154 45.4817 69.154ZM50.1574 69.154C49.6534 69.154 49.2474 69.0653 48.9394 68.888C48.6407 68.7107 48.4167 68.468 48.2674 68.16C48.1274 67.852 48.0574 67.5113 48.0574 67.138C48.0574 66.9233 48.076 66.704 48.1134 66.48C48.16 66.256 48.2254 66.032 48.3094 65.808L50.0874 66.494C50.0594 66.5687 50.036 66.6573 50.0174 66.76C49.9987 66.8627 49.9894 66.9607 49.9894 67.054C49.9894 67.2313 50.022 67.3993 50.0874 67.558C50.162 67.7073 50.288 67.782 50.4654 67.782C50.5494 67.782 50.6474 67.7587 50.7594 67.712C50.8714 67.656 50.9927 67.5907 51.1234 67.516C51.2634 67.432 51.4034 67.348 51.5434 67.264V68.104C51.3847 68.2253 51.2027 68.37 50.9974 68.538C50.792 68.706 50.61 68.8507 50.4514 68.972C50.2927 69.0933 50.1947 69.154 50.1574 69.154ZM48.3094 65.808L51.4034 65.444V66.284L49.9194 66.634L48.3094 65.808ZM48.4494 63.778L48.7854 62.504C49.084 62.476 49.392 62.4573 49.7094 62.448C50.0267 62.4293 50.3394 62.42 50.6474 62.42C50.9554 62.42 51.2307 62.4433 51.4734 62.49C51.6134 62.5087 51.786 62.602 51.9914 62.77C52.1967 62.9287 52.3974 63.12 52.5934 63.344C52.7987 63.5587 52.9667 63.778 53.0974 64.002C53.228 64.226 53.2934 64.408 53.2934 64.548V67.866L53.8674 68.076V68.874C53.6434 68.9113 53.3867 68.9533 53.0974 69C52.8174 69.0467 52.5654 69.084 52.3414 69.112C52.1174 69.14 51.968 69.154 51.8934 69.154C51.8654 69.154 51.8094 69.1167 51.7254 69.042C51.6414 68.9673 51.562 68.888 51.4874 68.804C51.4127 68.7107 51.3754 68.6453 51.3754 68.608V68.174L51.2914 68.062V64.814C51.2914 64.5433 51.2494 64.3567 51.1654 64.254C51.0907 64.142 50.932 64.0813 50.6894 64.072C50.512 64.0533 50.302 64.044 50.0594 64.044C49.8167 64.044 49.5694 64.0487 49.3174 64.058C49.0747 64.0673 48.8554 64.0767 48.6594 64.086L48.4494 63.778ZM55.5341 69.154C55.5061 69.154 55.4361 69.112 55.3241 69.028C55.2121 68.9533 55.1048 68.8693 55.0021 68.776C54.9088 68.6827 54.8621 68.6173 54.8621 68.58V63.708L54.3021 63.526V62.714C54.3021 62.714 54.3908 62.7 54.5681 62.672C54.7548 62.644 54.9741 62.6113 55.2261 62.574C55.4781 62.5367 55.7068 62.504 55.9121 62.476C56.1268 62.4387 56.2575 62.42 56.3041 62.42C56.3415 62.42 56.4021 62.462 56.4861 62.546C56.5795 62.6207 56.6635 62.7093 56.7381 62.812C56.8221 62.9053 56.8641 62.9707 56.8641 63.008V67.88L57.4241 68.062V68.86C57.4241 68.86 57.3401 68.8787 57.1721 68.916C57.0041 68.944 56.7988 68.9767 56.5561 69.014C56.3228 69.0513 56.1081 69.084 55.9121 69.112C55.7161 69.14 55.5901 69.154 55.5341 69.154ZM54.7221 60.124C54.7221 60.1053 54.7781 60.0447 54.8901 59.942C55.0115 59.8393 55.1468 59.7273 55.2961 59.606C55.4548 59.4753 55.5948 59.3633 55.7161 59.27C55.8375 59.1767 55.9121 59.13 55.9401 59.13C55.9961 59.13 56.0848 59.186 56.2061 59.298C56.3368 59.4007 56.4675 59.5267 56.5981 59.676C56.7288 59.8253 56.8408 59.9653 56.9341 60.096C57.0368 60.2173 57.0835 60.3013 57.0741 60.348L56.9761 60.726C56.9668 60.7633 56.9061 60.8333 56.7941 60.936C56.6821 61.0387 56.5515 61.1507 56.4021 61.272C56.2621 61.384 56.1268 61.482 55.9961 61.566C55.8655 61.65 55.7815 61.692 55.7441 61.692C55.6975 61.692 55.6135 61.6407 55.4921 61.538C55.3708 61.426 55.2448 61.3 55.1141 61.16C54.9835 61.0107 54.8715 60.8707 54.7781 60.74C54.6941 60.6093 54.6568 60.5253 54.6661 60.488L54.7221 60.124ZM59.1565 69.154C59.1192 69.154 59.0492 69.1167 58.9465 69.042C58.8439 68.9673 58.7459 68.8833 58.6525 68.79C58.5592 68.6967 58.5125 68.6313 58.5125 68.594V63.75L57.9525 63.54V62.728C57.9525 62.728 58.0412 62.714 58.2185 62.686C58.3959 62.6487 58.6059 62.6113 58.8485 62.574C59.1005 62.5367 59.3292 62.504 59.5345 62.476C59.7492 62.4387 59.8799 62.42 59.9265 62.42C59.9545 62.42 60.0105 62.462 60.0945 62.546C60.1785 62.6207 60.2579 62.7047 60.3325 62.798C60.4072 62.8913 60.4445 62.9567 60.4445 62.994V63.358C60.5472 63.274 60.6592 63.1807 60.7805 63.078C60.9112 62.966 61.0372 62.8633 61.1585 62.77C61.2892 62.6673 61.3965 62.5833 61.4805 62.518C61.5645 62.4527 61.6205 62.42 61.6485 62.42C62.1152 62.42 62.5165 62.4947 62.8525 62.644C63.1979 62.784 63.4499 63.022 63.6085 63.358C63.7112 63.274 63.8185 63.1807 63.9305 63.078C64.0519 62.966 64.1685 62.8633 64.2805 62.77C64.4019 62.6673 64.5045 62.5833 64.5885 62.518C64.6725 62.4527 64.7239 62.42 64.7425 62.42C65.2465 62.42 65.6712 62.4853 66.0165 62.616C66.3619 62.7467 66.6232 62.9707 66.8005 63.288C66.9872 63.596 67.0805 64.0253 67.0805 64.576V67.852L67.6405 68.062V68.86C67.6405 68.86 67.5519 68.874 67.3745 68.902C67.1972 68.93 66.9872 68.9627 66.7445 69C66.5019 69.0467 66.2825 69.084 66.0865 69.112C65.8905 69.14 65.7692 69.154 65.7225 69.154C65.6945 69.154 65.6245 69.1167 65.5125 69.042C65.4099 68.9673 65.3119 68.8833 65.2185 68.79C65.1252 68.6967 65.0785 68.6313 65.0785 68.594V64.604C65.0785 64.4173 65.0552 64.2773 65.0085 64.184C64.9712 64.0813 64.9199 64.0067 64.8545 63.96C64.7892 63.9133 64.7239 63.8853 64.6585 63.876C64.6025 63.8573 64.5559 63.848 64.5185 63.848C64.4999 63.848 64.4579 63.8667 64.3925 63.904C64.3365 63.932 64.2712 63.9647 64.1965 64.002C64.1219 64.0393 64.0472 64.0813 63.9725 64.128C63.9072 64.1653 63.8512 64.1933 63.8045 64.212V67.852L64.3225 68.062V68.86C64.3225 68.86 64.2339 68.874 64.0565 68.902C63.8885 68.93 63.6879 68.9627 63.4545 69C63.2212 69.0467 63.0065 69.084 62.8105 69.112C62.6145 69.14 62.4932 69.154 62.4465 69.154C62.4185 69.154 62.3485 69.1167 62.2365 69.042C62.1339 68.9673 62.0359 68.8833 61.9425 68.79C61.8492 68.6967 61.8025 68.6313 61.8025 68.594V64.604C61.8025 64.3613 61.7652 64.1887 61.6905 64.086C61.6252 63.9833 61.5459 63.918 61.4525 63.89C61.3685 63.862 61.3032 63.848 61.2565 63.848C61.2379 63.848 61.1959 63.8667 61.1305 63.904C61.0745 63.932 61.0045 63.9647 60.9205 64.002C60.8459 64.0393 60.7712 64.0813 60.6965 64.128C60.6219 64.1653 60.5612 64.1933 60.5145 64.212V67.852L61.0325 68.062V68.86C61.0325 68.86 60.9439 68.874 60.7665 68.902C60.5985 68.93 60.3979 68.9627 60.1645 69C59.9312 69.0467 59.7165 69.084 59.5205 69.112C59.3245 69.14 59.2032 69.154 59.1565 69.154ZM72.3103 69.154C72.2356 69.154 72.133 69.1073 72.0023 69.014C71.881 68.9207 71.755 68.804 71.6243 68.664C71.503 68.524 71.4003 68.384 71.3163 68.244C71.2323 68.0947 71.1903 67.9687 71.1903 67.866V63.638H70.1823V62.91L71.1903 62.518L72.4363 61.034C72.5296 61.0247 72.6416 61.048 72.7723 61.104C72.9123 61.1507 73.0523 61.1973 73.1923 61.244V62.602H74.5923V63.68H73.1923V67.278C73.1923 67.4927 73.2156 67.642 73.2623 67.726C73.3183 67.8007 73.3976 67.838 73.5003 67.838L74.7463 67.908V68.888C74.541 68.916 74.3076 68.9487 74.0463 68.986C73.7943 69.014 73.547 69.0373 73.3043 69.056C73.0616 69.084 72.847 69.1073 72.6603 69.126C72.483 69.1447 72.3663 69.154 72.3103 69.154ZM74.9984 60.88V60.068C74.9984 60.068 75.0591 60.0587 75.1804 60.04C75.3111 60.0213 75.4697 59.998 75.6564 59.97C75.8431 59.942 76.0344 59.914 76.2304 59.886C76.4264 59.858 76.5991 59.8347 76.7484 59.816C76.8977 59.7973 76.9911 59.788 77.0284 59.788C77.0657 59.788 77.1264 59.8253 77.2104 59.9C77.2944 59.9747 77.3737 60.0587 77.4484 60.152C77.5324 60.236 77.5744 60.2967 77.5744 60.334L77.4624 63.302L77.5604 63.316C77.6724 63.232 77.7937 63.1387 77.9244 63.036C78.0644 62.9333 78.1997 62.8353 78.3304 62.742C78.4611 62.6487 78.5684 62.574 78.6524 62.518C78.7457 62.4527 78.8064 62.42 78.8344 62.42C79.2917 62.42 79.6791 62.4853 79.9964 62.616C80.3231 62.7467 80.5704 62.9707 80.7384 63.288C80.9064 63.596 80.9904 64.0207 80.9904 64.562V68.468C80.9904 68.72 80.9204 69 80.7804 69.308C80.6497 69.616 80.4584 69.9193 80.2064 70.218C79.9637 70.5167 79.6697 70.7687 79.3244 70.974L78.7224 70.47C78.8344 70.1433 78.9044 69.854 78.9324 69.602C78.9697 69.3593 78.9884 69.126 78.9884 68.902C78.9884 68.6687 78.9884 68.4307 78.9884 68.188V64.59C78.9884 64.3473 78.9511 64.1747 78.8764 64.072C78.8111 63.9693 78.7364 63.9087 78.6524 63.89C78.5684 63.862 78.5031 63.848 78.4564 63.848C78.4191 63.848 78.3444 63.8713 78.2324 63.918C78.1204 63.9647 77.9991 64.016 77.8684 64.072C77.7471 64.128 77.6491 64.1747 77.5744 64.212V67.852L78.1204 68.062V68.86C78.1204 68.86 78.0317 68.874 77.8544 68.902C77.6771 68.93 77.4671 68.9627 77.2244 69C76.9911 69.0467 76.7717 69.084 76.5664 69.112C76.3704 69.14 76.2491 69.154 76.2024 69.154C76.1651 69.154 76.0951 69.1167 75.9924 69.042C75.8897 68.9673 75.7917 68.8833 75.6984 68.79C75.6144 68.6967 75.5724 68.6313 75.5724 68.594V61.09L74.9984 60.88ZM83.9663 65.976C83.9663 66.3867 84.0129 66.7227 84.1063 66.984C84.2089 67.2453 84.3349 67.4367 84.4843 67.558C84.6336 67.6793 84.7923 67.74 84.9603 67.74C84.9696 67.74 85.0536 67.7353 85.2123 67.726C85.3803 67.7167 85.5809 67.7073 85.8143 67.698C86.0476 67.6887 86.2763 67.6793 86.5003 67.67C86.7243 67.6607 86.9063 67.6513 87.0463 67.642V68.482C86.9156 68.5193 86.7289 68.58 86.4863 68.664C86.2436 68.7387 85.9916 68.8133 85.7303 68.888C85.4689 68.9627 85.2309 69.0233 85.0163 69.07C84.8109 69.126 84.6663 69.154 84.5823 69.154C84.0503 69.154 83.5789 69.0373 83.1683 68.804C82.7669 68.5707 82.4543 68.23 82.2303 67.782C82.0156 67.334 81.9083 66.7927 81.9083 66.158C81.9083 65.71 81.9409 65.2853 82.0063 64.884C82.0809 64.4733 82.1649 64.1607 82.2583 63.946C82.3516 63.834 82.5103 63.694 82.7343 63.526C82.9676 63.358 83.2196 63.19 83.4903 63.022C83.7703 62.854 84.0269 62.714 84.2603 62.602C84.4936 62.4807 84.6616 62.42 84.7643 62.42C85.3056 62.42 85.7629 62.518 86.1363 62.714C86.5189 62.9007 86.8036 63.2413 86.9903 63.736C87.1863 64.2307 87.2749 64.94 87.2563 65.864L83.1823 66.298V65.472L85.3243 65.08C85.3336 64.5947 85.2916 64.2073 85.1983 63.918C85.1143 63.6287 84.9649 63.4653 84.7503 63.428C84.7036 63.4187 84.6336 63.4093 84.5403 63.4C84.4469 63.3907 84.3769 63.4 84.3303 63.428C84.2276 63.4933 84.1389 63.75 84.0643 64.198C83.9989 64.6367 83.9663 65.2293 83.9663 65.976ZM92.9501 71.576C92.7355 71.576 92.4741 71.5527 92.1661 71.506C91.8581 71.4687 91.5548 71.4173 91.2561 71.352C90.9575 71.296 90.7101 71.2447 90.5141 71.198L90.1921 69.882L91.9421 68.454C91.6155 68.3887 91.3215 68.244 91.0601 68.02C90.8081 67.796 90.6075 67.4973 90.4581 67.124C90.3088 66.7507 90.2341 66.3167 90.2341 65.822C90.2341 65.486 90.2668 65.1407 90.3321 64.786C90.4068 64.422 90.4908 64.1327 90.5841 63.918C90.6681 63.8153 90.8175 63.6847 91.0321 63.526C91.2468 63.358 91.4801 63.19 91.7321 63.022C91.9841 62.854 92.2175 62.714 92.4321 62.602C92.6468 62.4807 92.8008 62.42 92.8941 62.42C92.9408 62.42 93.0575 62.4387 93.2441 62.476C93.4401 62.504 93.6641 62.5413 93.9161 62.588C94.1775 62.6347 94.4341 62.6813 94.6861 62.728C94.9381 62.7747 95.1528 62.8167 95.3301 62.854C95.5075 62.882 95.6055 62.896 95.6241 62.896V69.308C95.6241 69.5413 95.5261 69.7887 95.3301 70.05C95.1341 70.3113 94.8868 70.5587 94.5881 70.792C94.2895 71.0253 93.9908 71.212 93.6921 71.352C93.4028 71.5013 93.1555 71.576 92.9501 71.576ZM93.3701 70.694C93.4448 70.694 93.5101 70.6007 93.5661 70.414C93.6221 70.2367 93.6641 70.0127 93.6921 69.742C93.7201 69.4807 93.7341 69.2287 93.7341 68.986V68.328L93.6501 68.286C93.5381 68.4073 93.3981 68.552 93.2301 68.72C93.0715 68.8787 92.9035 69.042 92.7261 69.21C92.5581 69.3873 92.4041 69.546 92.2641 69.686C92.1241 69.8353 92.0121 69.952 91.9281 70.036V70.134C91.9841 70.162 92.0728 70.2087 92.1941 70.274C92.3248 70.3393 92.4695 70.4047 92.6281 70.47C92.7868 70.5353 92.9315 70.5867 93.0621 70.624C93.2021 70.6707 93.3048 70.694 93.3701 70.694ZM92.9921 67.446C93.0295 67.446 93.0808 67.4273 93.1461 67.39C93.2208 67.3433 93.2955 67.292 93.3701 67.236C93.4541 67.1707 93.5241 67.1193 93.5801 67.082C93.6455 67.0353 93.6781 67.012 93.6781 67.012V63.82C93.6221 63.8107 93.5241 63.7687 93.3841 63.694C93.2535 63.61 93.1228 63.5353 92.9921 63.47C92.8615 63.3953 92.7728 63.372 92.7261 63.4C92.6608 63.4373 92.6048 63.512 92.5581 63.624C92.5115 63.7267 92.4695 63.876 92.4321 64.072C92.3948 64.2587 92.3668 64.4827 92.3481 64.744C92.3388 64.996 92.3341 65.2853 92.3341 65.612C92.3341 66.004 92.3668 66.34 92.4321 66.62C92.4975 66.8907 92.5815 67.096 92.6841 67.236C92.7961 67.376 92.8988 67.446 92.9921 67.446ZM98.6635 65.976C98.6635 66.3867 98.7102 66.7227 98.8035 66.984C98.9062 67.2453 99.0322 67.4367 99.1815 67.558C99.3309 67.6793 99.4895 67.74 99.6575 67.74C99.6669 67.74 99.7509 67.7353 99.9095 67.726C100.078 67.7167 100.278 67.7073 100.512 67.698C100.745 67.6887 100.974 67.6793 101.198 67.67C101.422 67.6607 101.604 67.6513 101.744 67.642V68.482C101.613 68.5193 101.426 68.58 101.184 68.664C100.941 68.7387 100.689 68.8133 100.428 68.888C100.166 68.9627 99.9282 69.0233 99.7135 69.07C99.5082 69.126 99.3635 69.154 99.2795 69.154C98.7475 69.154 98.2762 69.0373 97.8655 68.804C97.4642 68.5707 97.1515 68.23 96.9275 67.782C96.7129 67.334 96.6055 66.7927 96.6055 66.158C96.6055 65.71 96.6382 65.2853 96.7035 64.884C96.7782 64.4733 96.8622 64.1607 96.9555 63.946C97.0489 63.834 97.2075 63.694 97.4315 63.526C97.6649 63.358 97.9169 63.19 98.1875 63.022C98.4675 62.854 98.7242 62.714 98.9575 62.602C99.1909 62.4807 99.3589 62.42 99.4615 62.42C100.003 62.42 100.46 62.518 100.834 62.714C101.216 62.9007 101.501 63.2413 101.688 63.736C101.884 64.2307 101.972 64.94 101.954 65.864L97.8795 66.298V65.472L100.022 65.08C100.031 64.5947 99.9889 64.2073 99.8955 63.918C99.8115 63.6287 99.6622 63.4653 99.4475 63.428C99.4009 63.4187 99.3309 63.4093 99.2375 63.4C99.1442 63.3907 99.0742 63.4 99.0275 63.428C98.9249 63.4933 98.8362 63.75 98.7615 64.198C98.6962 64.6367 98.6635 65.2293 98.6635 65.976ZM103.727 69.154C103.69 69.154 103.62 69.1167 103.517 69.042C103.414 68.9673 103.316 68.8833 103.223 68.79C103.13 68.6967 103.083 68.6313 103.083 68.594V63.75L102.523 63.54V62.728C102.523 62.728 102.612 62.714 102.789 62.686C102.966 62.6487 103.176 62.6113 103.419 62.574C103.671 62.5367 103.9 62.504 104.105 62.476C104.32 62.4387 104.45 62.42 104.497 62.42C104.525 62.42 104.581 62.462 104.665 62.546C104.749 62.6207 104.828 62.7047 104.903 62.798C104.978 62.8913 105.015 62.9567 105.015 62.994V63.358C105.118 63.274 105.23 63.1807 105.351 63.078C105.482 62.966 105.608 62.8633 105.729 62.77C105.86 62.6673 105.967 62.5833 106.051 62.518C106.135 62.4527 106.191 62.42 106.219 62.42C106.686 62.42 107.087 62.4947 107.423 62.644C107.768 62.784 108.02 63.022 108.179 63.358C108.282 63.274 108.389 63.1807 108.501 63.078C108.622 62.966 108.739 62.8633 108.851 62.77C108.972 62.6673 109.075 62.5833 109.159 62.518C109.243 62.4527 109.294 62.42 109.313 62.42C109.817 62.42 110.242 62.4853 110.587 62.616C110.932 62.7467 111.194 62.9707 111.371 63.288C111.558 63.596 111.651 64.0253 111.651 64.576V67.852L112.211 68.062V68.86C112.211 68.86 112.122 68.874 111.945 68.902C111.768 68.93 111.558 68.9627 111.315 69C111.072 69.0467 110.853 69.084 110.657 69.112C110.461 69.14 110.34 69.154 110.293 69.154C110.265 69.154 110.195 69.1167 110.083 69.042C109.98 68.9673 109.882 68.8833 109.789 68.79C109.696 68.6967 109.649 68.6313 109.649 68.594V64.604C109.649 64.4173 109.626 64.2773 109.579 64.184C109.542 64.0813 109.49 64.0067 109.425 63.96C109.36 63.9133 109.294 63.8853 109.229 63.876C109.173 63.8573 109.126 63.848 109.089 63.848C109.07 63.848 109.028 63.8667 108.963 63.904C108.907 63.932 108.842 63.9647 108.767 64.002C108.692 64.0393 108.618 64.0813 108.543 64.128C108.478 64.1653 108.422 64.1933 108.375 64.212V67.852L108.893 68.062V68.86C108.893 68.86 108.804 68.874 108.627 68.902C108.459 68.93 108.258 68.9627 108.025 69C107.792 69.0467 107.577 69.084 107.381 69.112C107.185 69.14 107.064 69.154 107.017 69.154C106.989 69.154 106.919 69.1167 106.807 69.042C106.704 68.9673 106.606 68.8833 106.513 68.79C106.42 68.6967 106.373 68.6313 106.373 68.594V64.604C106.373 64.3613 106.336 64.1887 106.261 64.086C106.196 63.9833 106.116 63.918 106.023 63.89C105.939 63.862 105.874 63.848 105.827 63.848C105.808 63.848 105.766 63.8667 105.701 63.904C105.645 63.932 105.575 63.9647 105.491 64.002C105.416 64.0393 105.342 64.0813 105.267 64.128C105.192 64.1653 105.132 64.1933 105.085 64.212V67.852L105.603 68.062V68.86C105.603 68.86 105.514 68.874 105.337 68.902C105.169 68.93 104.968 68.9627 104.735 69C104.502 69.0467 104.287 69.084 104.091 69.112C103.895 69.14 103.774 69.154 103.727 69.154ZM115.774 69.154C115.662 69.154 115.48 69.1493 115.228 69.14C114.985 69.1307 114.71 69.1167 114.402 69.098C114.103 69.0793 113.805 69.056 113.506 69.028C113.217 69.0093 112.979 68.9907 112.792 68.972L112.834 66.69H113.8L114.094 67.796C114.243 67.8427 114.416 67.894 114.612 67.95C114.808 68.006 114.99 68.0527 115.158 68.09C115.326 68.118 115.457 68.132 115.55 68.132C115.597 68.132 115.639 68.104 115.676 68.048C115.723 67.992 115.755 67.922 115.774 67.838C115.802 67.754 115.816 67.6747 115.816 67.6C115.816 67.4507 115.76 67.3247 115.648 67.222C115.536 67.11 115.373 66.9933 115.158 66.872C114.953 66.7507 114.701 66.606 114.402 66.438C113.982 66.1953 113.655 65.976 113.422 65.78C113.198 65.5747 113.044 65.3693 112.96 65.164C112.876 64.9493 112.834 64.7113 112.834 64.45C112.834 64.3287 112.839 64.2027 112.848 64.072C112.867 63.9413 112.89 63.8247 112.918 63.722C113.011 63.61 113.137 63.4793 113.296 63.33C113.455 63.1807 113.623 63.0407 113.8 62.91C113.977 62.77 114.145 62.6533 114.304 62.56C114.463 62.4667 114.589 62.42 114.682 62.42C114.803 62.42 114.981 62.4247 115.214 62.434C115.457 62.434 115.713 62.4433 115.984 62.462C116.255 62.4713 116.511 62.4853 116.754 62.504C116.997 62.5133 117.193 62.5273 117.342 62.546L117.3 64.506H116.222L116.124 63.722C116.087 63.7033 116.003 63.6847 115.872 63.666C115.741 63.638 115.592 63.61 115.424 63.582C115.265 63.554 115.116 63.5307 114.976 63.512C114.845 63.484 114.757 63.47 114.71 63.47C114.663 63.47 114.626 63.4887 114.598 63.526C114.57 63.5633 114.547 63.61 114.528 63.666C114.519 63.722 114.514 63.778 114.514 63.834C114.514 63.9927 114.579 64.1373 114.71 64.268C114.841 64.3893 114.995 64.5013 115.172 64.604C115.349 64.7067 115.503 64.8 115.634 64.884C115.839 64.996 116.054 65.122 116.278 65.262C116.511 65.402 116.735 65.5513 116.95 65.71C117.174 65.8687 117.351 66.0413 117.482 66.228C117.613 66.4147 117.678 66.6153 117.678 66.83C117.678 66.942 117.669 67.0773 117.65 67.236C117.641 67.3947 117.613 67.53 117.566 67.642C117.491 67.7633 117.379 67.9127 117.23 68.09C117.09 68.258 116.927 68.426 116.74 68.594C116.563 68.7527 116.385 68.888 116.208 69C116.04 69.1027 115.895 69.154 115.774 69.154ZM119.382 71.058L118.612 70.68C118.724 70.3907 118.822 70.1153 118.906 69.854C118.99 69.602 119.064 69.3547 119.13 69.112C119.064 69.0653 118.976 68.986 118.864 68.874C118.752 68.7527 118.654 68.636 118.57 68.524C118.495 68.4027 118.462 68.3187 118.472 68.272L118.542 67.95C118.551 67.9127 118.607 67.8473 118.71 67.754C118.812 67.6513 118.934 67.544 119.074 67.432C119.214 67.32 119.34 67.222 119.452 67.138C119.573 67.054 119.648 67.012 119.676 67.012C119.722 67.012 119.802 67.0633 119.914 67.166C120.026 67.2593 120.142 67.376 120.264 67.516C120.394 67.6467 120.502 67.7727 120.586 67.894C120.679 68.006 120.726 68.09 120.726 68.146C120.726 68.2487 120.684 68.426 120.6 68.678C120.516 68.9207 120.404 69.1913 120.264 69.49C120.124 69.798 119.974 70.092 119.816 70.372C119.666 70.652 119.522 70.8807 119.382 71.058ZM126.33 69.154C125.844 69.154 125.42 69.0373 125.056 68.804C124.701 68.5613 124.426 68.216 124.23 67.768C124.034 67.32 123.936 66.774 123.936 66.13C123.936 65.6913 123.968 65.276 124.034 64.884C124.108 64.4827 124.192 64.1747 124.286 63.96C124.379 63.848 124.538 63.708 124.762 63.54C124.986 63.372 125.228 63.204 125.49 63.036C125.76 62.8587 126.008 62.714 126.232 62.602C126.465 62.4807 126.633 62.42 126.736 62.42C126.978 62.42 127.272 62.4527 127.618 62.518C127.963 62.574 128.276 62.6487 128.556 62.742L128.514 64.828H127.38L127.142 63.722C127.048 63.6753 126.946 63.6287 126.834 63.582C126.722 63.5353 126.614 63.512 126.512 63.512C126.484 63.512 126.451 63.5167 126.414 63.526C126.386 63.5353 126.362 63.5493 126.344 63.568C126.278 63.624 126.222 63.7547 126.176 63.96C126.129 64.1653 126.092 64.4267 126.064 64.744C126.036 65.0613 126.022 65.416 126.022 65.808C126.022 66.1907 126.059 66.522 126.134 66.802C126.208 67.082 126.316 67.3013 126.456 67.46C126.596 67.6093 126.764 67.684 126.96 67.684H128.556V68.524C128.434 68.5613 128.271 68.6173 128.066 68.692C127.86 68.7667 127.646 68.8413 127.422 68.916C127.198 68.9813 126.988 69.0373 126.792 69.084C126.596 69.1307 126.442 69.154 126.33 69.154ZM130.206 69.154C130.169 69.154 130.099 69.1167 129.996 69.042C129.894 68.9673 129.796 68.8833 129.702 68.79C129.618 68.6967 129.576 68.6313 129.576 68.594V61.09L129.002 60.88V60.068C129.002 60.068 129.063 60.0587 129.184 60.04C129.306 60.0213 129.46 59.998 129.646 59.97C129.842 59.942 130.038 59.914 130.234 59.886C130.43 59.858 130.603 59.8347 130.752 59.816C130.902 59.7973 131 59.788 131.046 59.788C131.084 59.788 131.14 59.8253 131.214 59.9C131.298 59.9747 131.378 60.0587 131.452 60.152C131.536 60.236 131.578 60.2967 131.578 60.334V67.852L132.124 68.062V68.86C132.124 68.86 132.036 68.8787 131.858 68.916C131.69 68.944 131.485 68.9767 131.242 69.014C131.009 69.0513 130.79 69.084 130.584 69.112C130.379 69.14 130.253 69.154 130.206 69.154ZM134.882 69.154C134.378 69.154 133.972 69.0653 133.664 68.888C133.365 68.7107 133.141 68.468 132.992 68.16C132.852 67.852 132.782 67.5113 132.782 67.138C132.782 66.9233 132.801 66.704 132.838 66.48C132.885 66.256 132.95 66.032 133.034 65.808L134.812 66.494C134.784 66.5687 134.761 66.6573 134.742 66.76C134.723 66.8627 134.714 66.9607 134.714 67.054C134.714 67.2313 134.747 67.3993 134.812 67.558C134.887 67.7073 135.013 67.782 135.19 67.782C135.274 67.782 135.372 67.7587 135.484 67.712C135.596 67.656 135.717 67.5907 135.848 67.516C135.988 67.432 136.128 67.348 136.268 67.264V68.104C136.109 68.2253 135.927 68.37 135.722 68.538C135.517 68.706 135.335 68.8507 135.176 68.972C135.017 69.0933 134.919 69.154 134.882 69.154ZM133.034 65.808L136.128 65.444V66.284L134.644 66.634L133.034 65.808ZM133.174 63.778L133.51 62.504C133.809 62.476 134.117 62.4573 134.434 62.448C134.751 62.4293 135.064 62.42 135.372 62.42C135.68 62.42 135.955 62.4433 136.198 62.49C136.338 62.5087 136.511 62.602 136.716 62.77C136.921 62.9287 137.122 63.12 137.318 63.344C137.523 63.5587 137.691 63.778 137.822 64.002C137.953 64.226 138.018 64.408 138.018 64.548V67.866L138.592 68.076V68.874C138.368 68.9113 138.111 68.9533 137.822 69C137.542 69.0467 137.29 69.084 137.066 69.112C136.842 69.14 136.693 69.154 136.618 69.154C136.59 69.154 136.534 69.1167 136.45 69.042C136.366 68.9673 136.287 68.888 136.212 68.804C136.137 68.7107 136.1 68.6453 136.1 68.608V68.174L136.016 68.062V64.814C136.016 64.5433 135.974 64.3567 135.89 64.254C135.815 64.142 135.657 64.0813 135.414 64.072C135.237 64.0533 135.027 64.044 134.784 64.044C134.541 64.044 134.294 64.0487 134.042 64.058C133.799 64.0673 133.58 64.0767 133.384 64.086L133.174 63.778ZM140.259 69.154C140.231 69.154 140.161 69.112 140.049 69.028C139.937 68.9533 139.829 68.8693 139.727 68.776C139.633 68.6827 139.587 68.6173 139.587 68.58V63.708L139.027 63.526V62.714C139.027 62.714 139.115 62.7 139.293 62.672C139.479 62.644 139.699 62.6113 139.951 62.574C140.203 62.5367 140.431 62.504 140.637 62.476C140.851 62.4387 140.982 62.42 141.029 62.42C141.066 62.42 141.127 62.462 141.211 62.546C141.304 62.6207 141.388 62.7093 141.463 62.812C141.547 62.9053 141.589 62.9707 141.589 63.008V67.88L142.149 68.062V68.86C142.149 68.86 142.065 68.8787 141.897 68.916C141.729 68.944 141.523 68.9767 141.281 69.014C141.047 69.0513 140.833 69.084 140.637 69.112C140.441 69.14 140.315 69.154 140.259 69.154ZM139.447 60.124C139.447 60.1053 139.503 60.0447 139.615 59.942C139.736 59.8393 139.871 59.7273 140.021 59.606C140.179 59.4753 140.319 59.3633 140.441 59.27C140.562 59.1767 140.637 59.13 140.665 59.13C140.721 59.13 140.809 59.186 140.931 59.298C141.061 59.4007 141.192 59.5267 141.323 59.676C141.453 59.8253 141.565 59.9653 141.659 60.096C141.761 60.2173 141.808 60.3013 141.799 60.348L141.701 60.726C141.691 60.7633 141.631 60.8333 141.519 60.936C141.407 61.0387 141.276 61.1507 141.127 61.272C140.987 61.384 140.851 61.482 140.721 61.566C140.59 61.65 140.506 61.692 140.469 61.692C140.422 61.692 140.338 61.6407 140.217 61.538C140.095 61.426 139.969 61.3 139.839 61.16C139.708 61.0107 139.596 60.8707 139.503 60.74C139.419 60.6093 139.381 60.5253 139.391 60.488L139.447 60.124ZM143.881 69.154C143.844 69.154 143.774 69.1167 143.671 69.042C143.568 68.9673 143.47 68.8833 143.377 68.79C143.284 68.6967 143.237 68.6313 143.237 68.594V63.75L142.677 63.54V62.728C142.677 62.728 142.766 62.714 142.943 62.686C143.12 62.6487 143.33 62.6113 143.573 62.574C143.825 62.5367 144.054 62.504 144.259 62.476C144.474 62.4387 144.604 62.42 144.651 62.42C144.679 62.42 144.735 62.462 144.819 62.546C144.903 62.6207 144.982 62.7047 145.057 62.798C145.132 62.8913 145.169 62.9567 145.169 62.994V63.358C145.272 63.274 145.384 63.1807 145.505 63.078C145.636 62.966 145.762 62.8633 145.883 62.77C146.014 62.6673 146.121 62.5833 146.205 62.518C146.289 62.4527 146.345 62.42 146.373 62.42C146.84 62.42 147.241 62.4947 147.577 62.644C147.922 62.784 148.174 63.022 148.333 63.358C148.436 63.274 148.543 63.1807 148.655 63.078C148.776 62.966 148.893 62.8633 149.005 62.77C149.126 62.6673 149.229 62.5833 149.313 62.518C149.397 62.4527 149.448 62.42 149.467 62.42C149.971 62.42 150.396 62.4853 150.741 62.616C151.086 62.7467 151.348 62.9707 151.525 63.288C151.712 63.596 151.805 64.0253 151.805 64.576V67.852L152.365 68.062V68.86C152.365 68.86 152.276 68.874 152.099 68.902C151.922 68.93 151.712 68.9627 151.469 69C151.226 69.0467 151.007 69.084 150.811 69.112C150.615 69.14 150.494 69.154 150.447 69.154C150.419 69.154 150.349 69.1167 150.237 69.042C150.134 68.9673 150.036 68.8833 149.943 68.79C149.85 68.6967 149.803 68.6313 149.803 68.594V64.604C149.803 64.4173 149.78 64.2773 149.733 64.184C149.696 64.0813 149.644 64.0067 149.579 63.96C149.514 63.9133 149.448 63.8853 149.383 63.876C149.327 63.8573 149.28 63.848 149.243 63.848C149.224 63.848 149.182 63.8667 149.117 63.904C149.061 63.932 148.996 63.9647 148.921 64.002C148.846 64.0393 148.772 64.0813 148.697 64.128C148.632 64.1653 148.576 64.1933 148.529 64.212V67.852L149.047 68.062V68.86C149.047 68.86 148.958 68.874 148.781 68.902C148.613 68.93 148.412 68.9627 148.179 69C147.946 69.0467 147.731 69.084 147.535 69.112C147.339 69.14 147.218 69.154 147.171 69.154C147.143 69.154 147.073 69.1167 146.961 69.042C146.858 68.9673 146.76 68.8833 146.667 68.79C146.574 68.6967 146.527 68.6313 146.527 68.594V64.604C146.527 64.3613 146.49 64.1887 146.415 64.086C146.35 63.9833 146.27 63.918 146.177 63.89C146.093 63.862 146.028 63.848 145.981 63.848C145.962 63.848 145.92 63.8667 145.855 63.904C145.799 63.932 145.729 63.9647 145.645 64.002C145.57 64.0393 145.496 64.0813 145.421 64.128C145.346 64.1653 145.286 64.1933 145.239 64.212V67.852L145.757 68.062V68.86C145.757 68.86 145.668 68.874 145.491 68.902C145.323 68.93 145.122 68.9627 144.889 69C144.656 69.0467 144.441 69.084 144.245 69.112C144.049 69.14 143.928 69.154 143.881 69.154ZM157.035 69.154C156.96 69.154 156.858 69.1073 156.727 69.014C156.606 68.9207 156.48 68.804 156.349 68.664C156.228 68.524 156.125 68.384 156.041 68.244C155.957 68.0947 155.915 67.9687 155.915 67.866V63.638H154.907V62.91L155.915 62.518L157.161 61.034C157.254 61.0247 157.366 61.048 157.497 61.104C157.637 61.1507 157.777 61.1973 157.917 61.244V62.602H159.317V63.68H157.917V67.278C157.917 67.4927 157.94 67.642 157.987 67.726C158.043 67.8007 158.122 67.838 158.225 67.838L159.471 67.908V68.888C159.266 68.916 159.032 68.9487 158.771 68.986C158.519 69.014 158.272 69.0373 158.029 69.056C157.786 69.084 157.572 69.1073 157.385 69.126C157.208 69.1447 157.091 69.154 157.035 69.154ZM159.723 60.88V60.068C159.723 60.068 159.784 60.0587 159.905 60.04C160.036 60.0213 160.194 59.998 160.381 59.97C160.568 59.942 160.759 59.914 160.955 59.886C161.151 59.858 161.324 59.8347 161.473 59.816C161.622 59.7973 161.716 59.788 161.753 59.788C161.79 59.788 161.851 59.8253 161.935 59.9C162.019 59.9747 162.098 60.0587 162.173 60.152C162.257 60.236 162.299 60.2967 162.299 60.334L162.187 63.302L162.285 63.316C162.397 63.232 162.518 63.1387 162.649 63.036C162.789 62.9333 162.924 62.8353 163.055 62.742C163.186 62.6487 163.293 62.574 163.377 62.518C163.47 62.4527 163.531 62.42 163.559 62.42C164.016 62.42 164.404 62.4853 164.721 62.616C165.048 62.7467 165.295 62.9707 165.463 63.288C165.631 63.596 165.715 64.0207 165.715 64.562V68.468C165.715 68.72 165.645 69 165.505 69.308C165.374 69.616 165.183 69.9193 164.931 70.218C164.688 70.5167 164.394 70.7687 164.049 70.974L163.447 70.47C163.559 70.1433 163.629 69.854 163.657 69.602C163.694 69.3593 163.713 69.126 163.713 68.902C163.713 68.6687 163.713 68.4307 163.713 68.188V64.59C163.713 64.3473 163.676 64.1747 163.601 64.072C163.536 63.9693 163.461 63.9087 163.377 63.89C163.293 63.862 163.228 63.848 163.181 63.848C163.144 63.848 163.069 63.8713 162.957 63.918C162.845 63.9647 162.724 64.016 162.593 64.072C162.472 64.128 162.374 64.1747 162.299 64.212V67.852L162.845 68.062V68.86C162.845 68.86 162.756 68.874 162.579 68.902C162.402 68.93 162.192 68.9627 161.949 69C161.716 69.0467 161.496 69.084 161.291 69.112C161.095 69.14 160.974 69.154 160.927 69.154C160.89 69.154 160.82 69.1167 160.717 69.042C160.614 68.9673 160.516 68.8833 160.423 68.79C160.339 68.6967 160.297 68.6313 160.297 68.594V61.09L159.723 60.88ZM168.691 65.976C168.691 66.3867 168.738 66.7227 168.831 66.984C168.934 67.2453 169.06 67.4367 169.209 67.558C169.358 67.6793 169.517 67.74 169.685 67.74C169.694 67.74 169.778 67.7353 169.937 67.726C170.105 67.7167 170.306 67.7073 170.539 67.698C170.772 67.6887 171.001 67.6793 171.225 67.67C171.449 67.6607 171.631 67.6513 171.771 67.642V68.482C171.64 68.5193 171.454 68.58 171.211 68.664C170.968 68.7387 170.716 68.8133 170.455 68.888C170.194 68.9627 169.956 69.0233 169.741 69.07C169.536 69.126 169.391 69.154 169.307 69.154C168.775 69.154 168.304 69.0373 167.893 68.804C167.492 68.5707 167.179 68.23 166.955 67.782C166.74 67.334 166.633 66.7927 166.633 66.158C166.633 65.71 166.666 65.2853 166.731 64.884C166.806 64.4733 166.89 64.1607 166.983 63.946C167.076 63.834 167.235 63.694 167.459 63.526C167.692 63.358 167.944 63.19 168.215 63.022C168.495 62.854 168.752 62.714 168.985 62.602C169.218 62.4807 169.386 62.42 169.489 62.42C170.03 62.42 170.488 62.518 170.861 62.714C171.244 62.9007 171.528 63.2413 171.715 63.736C171.911 64.2307 172 64.94 171.981 65.864L167.907 66.298V65.472L170.049 65.08C170.058 64.5947 170.016 64.2073 169.923 63.918C169.839 63.6287 169.69 63.4653 169.475 63.428C169.428 63.4187 169.358 63.4093 169.265 63.4C169.172 63.3907 169.102 63.4 169.055 63.428C168.952 63.4933 168.864 63.75 168.789 64.198C168.724 64.6367 168.691 65.2293 168.691 65.976ZM177.367 69.154C176.881 69.154 176.457 69.0373 176.093 68.804C175.738 68.5613 175.463 68.216 175.267 67.768C175.071 67.32 174.973 66.774 174.973 66.13C174.973 65.6913 175.005 65.276 175.071 64.884C175.145 64.4827 175.229 64.1747 175.323 63.96C175.416 63.848 175.575 63.708 175.799 63.54C176.023 63.372 176.265 63.204 176.527 63.036C176.797 62.8587 177.045 62.714 177.269 62.602C177.502 62.4807 177.67 62.42 177.773 62.42C178.015 62.42 178.309 62.4527 178.655 62.518C179 62.574 179.313 62.6487 179.593 62.742L179.551 64.828H178.417L178.179 63.722C178.085 63.6753 177.983 63.6287 177.871 63.582C177.759 63.5353 177.651 63.512 177.549 63.512C177.521 63.512 177.488 63.5167 177.451 63.526C177.423 63.5353 177.399 63.5493 177.381 63.568C177.315 63.624 177.259 63.7547 177.213 63.96C177.166 64.1653 177.129 64.4267 177.101 64.744C177.073 65.0613 177.059 65.416 177.059 65.808C177.059 66.1907 177.096 66.522 177.171 66.802C177.245 67.082 177.353 67.3013 177.493 67.46C177.633 67.6093 177.801 67.684 177.997 67.684H179.593V68.524C179.471 68.5613 179.308 68.6173 179.103 68.692C178.897 68.7667 178.683 68.8413 178.459 68.916C178.235 68.9813 178.025 69.0373 177.829 69.084C177.633 69.1307 177.479 69.154 177.367 69.154ZM181.369 69.154C181.332 69.154 181.262 69.1167 181.159 69.042C181.057 68.9673 180.959 68.8833 180.865 68.79C180.772 68.6967 180.725 68.6313 180.725 68.594V63.708L180.165 63.526V62.714C180.165 62.714 180.254 62.7 180.431 62.672C180.609 62.6347 180.814 62.602 181.047 62.574C181.29 62.5367 181.514 62.504 181.719 62.476C181.925 62.4387 182.051 62.42 182.097 62.42C182.135 62.42 182.195 62.462 182.279 62.546C182.373 62.63 182.457 62.7187 182.531 62.812C182.615 62.9053 182.657 62.9707 182.657 63.008V63.624C182.769 63.4933 182.886 63.358 183.007 63.218C183.129 63.078 183.245 62.9473 183.357 62.826C183.479 62.7047 183.581 62.6067 183.665 62.532C183.749 62.4573 183.805 62.42 183.833 62.42C184.011 62.42 184.197 62.4387 184.393 62.476C184.599 62.5133 184.748 62.5507 184.841 62.588C184.86 62.6347 184.893 62.728 184.939 62.868C184.986 62.9987 185.009 63.12 185.009 63.232C185.009 63.2973 184.981 63.4047 184.925 63.554C184.869 63.694 184.804 63.8433 184.729 64.002C184.655 64.1513 184.585 64.282 184.519 64.394C184.454 64.506 184.407 64.5667 184.379 64.576C184.361 64.5573 184.295 64.5247 184.183 64.478C184.071 64.422 183.95 64.3707 183.819 64.324C183.698 64.2773 183.595 64.254 183.511 64.254C183.483 64.254 183.437 64.2633 183.371 64.282C183.306 64.3007 183.231 64.3287 183.147 64.366C183.063 64.394 182.984 64.422 182.909 64.45C182.835 64.478 182.774 64.506 182.727 64.534V67.712L183.651 67.964V68.818C183.651 68.818 183.581 68.832 183.441 68.86C183.301 68.8787 183.124 68.9067 182.909 68.944C182.704 68.972 182.489 69.0047 182.265 69.042C182.041 69.0793 181.845 69.1073 181.677 69.126C181.509 69.1447 181.407 69.154 181.369 69.154ZM188.462 69.154C187.416 69.154 186.609 68.9113 186.04 68.426C185.47 67.9313 185.186 67.1567 185.186 66.102C185.186 65.6913 185.218 65.2853 185.284 64.884C185.358 64.4827 185.442 64.1793 185.536 63.974C185.629 63.862 185.792 63.722 186.026 63.554C186.259 63.3767 186.511 63.204 186.782 63.036C187.062 62.868 187.318 62.7233 187.552 62.602C187.794 62.4807 187.967 62.42 188.07 62.42C189.134 62.42 189.936 62.686 190.478 63.218C191.019 63.7407 191.29 64.4873 191.29 65.458C191.29 65.9247 191.252 66.354 191.178 66.746C191.103 67.138 191.024 67.4413 190.94 67.656C190.846 67.768 190.688 67.908 190.464 68.076C190.24 68.2347 189.992 68.398 189.722 68.566C189.451 68.734 189.199 68.874 188.966 68.986C188.732 69.098 188.564 69.154 188.462 69.154ZM188.476 68.132C188.504 68.1227 188.56 68.104 188.644 68.076C188.728 68.0387 188.807 68.0013 188.882 67.964C188.956 67.9267 188.994 67.908 188.994 67.908C189.031 67.6933 189.068 67.4087 189.106 67.054C189.143 66.6993 189.162 66.2373 189.162 65.668C189.162 65.276 189.124 64.912 189.05 64.576C188.984 64.24 188.868 63.9693 188.7 63.764C188.532 63.5493 188.303 63.442 188.014 63.442C187.958 63.442 187.902 63.4467 187.846 63.456C187.79 63.456 187.729 63.47 187.664 63.498C187.57 63.5353 187.486 63.7687 187.412 64.198C187.346 64.6273 187.314 65.192 187.314 65.892C187.314 66.4987 187.37 66.9653 187.482 67.292C187.603 67.6093 187.752 67.8287 187.93 67.95C188.116 68.0713 188.298 68.132 188.476 68.132ZM193.743 69.168C193.724 69.168 193.673 69.14 193.589 69.084C193.505 69.0373 193.463 69.014 193.463 69.014L192.245 63.708L191.643 63.54V62.714C191.643 62.714 191.727 62.7 191.895 62.672C192.072 62.644 192.278 62.6113 192.511 62.574C192.754 62.5367 192.968 62.504 193.155 62.476C193.342 62.4387 193.454 62.42 193.491 62.42C193.528 62.42 193.594 62.4527 193.687 62.518C193.79 62.5833 193.888 62.658 193.981 62.742C194.074 62.826 194.126 62.8913 194.135 62.938L194.723 66.13L194.933 67.222H195.073L196.025 64.618L195.717 63.708L195.087 63.54V62.714C195.087 62.714 195.171 62.7 195.339 62.672C195.516 62.644 195.722 62.6113 195.955 62.574C196.188 62.5367 196.398 62.504 196.585 62.476C196.781 62.4387 196.898 62.42 196.935 62.42C196.972 62.42 197.038 62.4527 197.131 62.518C197.234 62.5833 197.332 62.658 197.425 62.742C197.518 62.826 197.57 62.8913 197.579 62.938L198.279 66.13L198.531 67.222H198.671L199.413 63.61L198.489 63.498V62.602C198.489 62.602 198.559 62.5973 198.699 62.588C198.839 62.5693 199.012 62.5507 199.217 62.532C199.422 62.5133 199.632 62.4993 199.847 62.49C200.071 62.4713 200.258 62.4573 200.407 62.448C200.566 62.4293 200.659 62.42 200.687 62.42C200.724 62.42 200.776 62.4667 200.841 62.56C200.916 62.644 200.981 62.7373 201.037 62.84C201.102 62.9427 201.135 63.0173 201.135 63.064L199.609 68.902C199.609 68.902 199.544 68.9113 199.413 68.93C199.282 68.9487 199.124 68.972 198.937 69C198.75 69.0187 198.559 69.042 198.363 69.07C198.176 69.098 198.008 69.1213 197.859 69.14C197.719 69.1587 197.64 69.168 197.621 69.168C197.593 69.168 197.537 69.14 197.453 69.084C197.378 69.0373 197.341 69.014 197.341 69.014L196.613 66.48H196.501L195.717 68.902C195.717 68.902 195.652 68.9113 195.521 68.93C195.4 68.9487 195.246 68.972 195.059 69C194.872 69.0187 194.681 69.042 194.485 69.07C194.289 69.098 194.121 69.1213 193.981 69.14C193.841 69.1587 193.762 69.168 193.743 69.168ZM202.78 69.154C202.742 69.154 202.672 69.1167 202.57 69.042C202.467 68.9673 202.369 68.8833 202.276 68.79C202.182 68.6967 202.136 68.6313 202.136 68.594V63.736L201.576 63.526V62.714C201.576 62.714 201.664 62.7 201.842 62.672C202.019 62.6347 202.229 62.602 202.472 62.574C202.724 62.5367 202.952 62.504 203.158 62.476C203.372 62.4387 203.503 62.42 203.55 62.42C203.578 62.42 203.634 62.462 203.718 62.546C203.802 62.6207 203.881 62.7047 203.956 62.798C204.03 62.8913 204.068 62.952 204.068 62.98V63.344C204.18 63.26 204.31 63.1667 204.46 63.064C204.609 62.952 204.749 62.8493 204.88 62.756C205.01 62.6627 205.122 62.5833 205.216 62.518C205.318 62.4527 205.384 62.42 205.412 62.42C205.86 62.42 206.247 62.4853 206.574 62.616C206.9 62.7467 207.148 62.9707 207.316 63.288C207.484 63.596 207.568 64.0207 207.568 64.562V67.838L208.128 68.062V68.86C208.128 68.86 208.039 68.874 207.862 68.902C207.684 68.93 207.474 68.9627 207.232 69C206.989 69.0467 206.77 69.084 206.574 69.112C206.378 69.14 206.256 69.154 206.21 69.154C206.172 69.154 206.102 69.1167 206 69.042C205.897 68.9673 205.799 68.8833 205.706 68.79C205.612 68.6967 205.566 68.6313 205.566 68.594V64.59C205.566 64.3473 205.528 64.1747 205.454 64.072C205.388 63.9693 205.314 63.9087 205.23 63.89C205.146 63.862 205.076 63.848 205.02 63.848C205.001 63.848 204.94 63.8667 204.838 63.904C204.744 63.9413 204.637 63.988 204.516 64.044C204.394 64.1 204.268 64.156 204.138 64.212V67.852L204.698 68.062V68.86C204.698 68.86 204.609 68.8787 204.432 68.916C204.264 68.944 204.058 68.9767 203.816 69.014C203.582 69.0513 203.363 69.084 203.158 69.112C202.952 69.14 202.826 69.154 202.78 69.154ZM209.442 60.25C209.638 60.2033 209.857 60.1613 210.1 60.124C210.343 60.0773 210.557 60.04 210.744 60.012C210.94 59.9747 211.071 59.956 211.136 59.956C211.164 59.956 211.211 59.984 211.276 60.04C211.341 60.096 211.397 60.152 211.444 60.208C211.5 60.264 211.528 60.306 211.528 60.334L211.108 66.214C210.94 66.242 210.763 66.2747 210.576 66.312C210.389 66.34 210.245 66.354 210.142 66.354C210.105 66.354 210.044 66.326 209.96 66.27C209.876 66.2047 209.834 66.158 209.834 66.13L209.442 60.25ZM209.47 67.992C209.47 67.964 209.521 67.9033 209.624 67.81C209.727 67.7167 209.843 67.614 209.974 67.502C210.114 67.39 210.24 67.2967 210.352 67.222C210.464 67.138 210.534 67.096 210.562 67.096C210.599 67.096 210.674 67.1427 210.786 67.236C210.907 67.3293 211.029 67.4413 211.15 67.572C211.271 67.7027 211.374 67.8287 211.458 67.95C211.542 68.062 211.579 68.1367 211.57 68.174L211.486 68.51C211.477 68.5473 211.421 68.6127 211.318 68.706C211.225 68.7993 211.108 68.8973 210.968 69C210.837 69.0933 210.716 69.1773 210.604 69.252C210.492 69.3267 210.417 69.364 210.38 69.364C210.333 69.364 210.254 69.3173 210.142 69.224C210.039 69.1307 209.927 69.0187 209.806 68.888C209.694 68.7573 209.596 68.636 209.512 68.524C209.437 68.412 209.405 68.3373 209.414 68.3L209.47 67.992Z" fill="#565656"/>
<g id="Group 4">
<rect id="Rectangle 2" x="32.8" y="30.55" width="22.4" height="18.9" fill="#D00A1F" stroke="black" stroke-width="0.1"/>
<path id="Star 1" d="M63.1433 28.7524C63.1975 28.3345 63.8025 28.3345 63.8567 28.7524C63.9079 29.1475 64.4695 29.1725 64.5642 28.7855C64.664 28.3773 65.2658 28.4355 65.2731 28.8556C65.2801 29.253 65.8367 29.333 65.9731 28.9597C66.1167 28.5665 66.7098 28.6807 66.6705 29.0975C66.6334 29.4918 67.1702 29.6444 67.3459 29.2894L67.3676 29.2456C67.5525 28.8721 68.1184 29.0675 68.0335 29.4755C67.9531 29.8617 68.4682 30.0714 68.6805 29.7388L68.7141 29.6861C68.9371 29.3366 69.4757 29.5914 69.347 29.9855C69.225 30.3588 69.7125 30.6222 69.9579 30.3155L70.0037 30.2583C70.2614 29.9364 70.7667 30.2464 70.5965 30.622C70.4352 30.978 70.8896 31.2909 71.1647 31.0133L71.2216 30.9559C71.5102 30.6645 71.9771 31.025 71.7683 31.378C71.5703 31.7128 71.9872 32.0708 72.2882 31.8245L72.3537 31.7709C72.6693 31.5126 73.0935 31.9184 72.8494 32.2452C72.6177 32.5554 72.9932 32.9536 73.3165 32.7405L73.3872 32.694C73.726 32.4706 74.1039 32.9165 73.8279 33.2141C73.5658 33.4967 73.8968 33.9303 74.2385 33.7519L74.3104 33.7144C74.6686 33.5274 74.9972 34.008 74.6929 34.2739C74.4038 34.5266 74.6877 34.9904 75.0443 34.8478L75.113 34.8203C75.4868 34.6708 75.7639 35.1807 75.4351 35.413C75.1224 35.6339 75.3572 36.1227 75.7251 36.0167L75.7864 35.999C76.1722 35.8878 76.3959 36.4218 76.0461 36.6188C75.7133 36.8062 75.8976 37.3152 76.2732 37.2463L76.3234 37.237C76.7176 37.1647 76.8866 37.7175 76.5194 37.878C76.1699 38.0306 76.3172 38.5537 76.6972 38.5221C77.0963 38.4889 77.2309 39.0538 76.8498 39.1767C76.487 39.2936 76.575 39.8284 76.9561 39.8343C77.3567 39.8404 77.4253 40.416 77.0337 40.5006C76.661 40.581 76.6888 41.1214 77.0676 41.1647C77.4663 41.2103 77.4663 41.7897 77.0676 41.8353C76.6888 41.8786 76.661 42.419 77.0337 42.4994C77.4253 42.584 77.3567 43.1596 76.9561 43.1657C76.575 43.1716 76.487 43.7064 76.8498 43.8233C77.2309 43.9462 77.0963 44.5111 76.6972 44.4779C76.3172 44.4463 76.17 44.9694 76.5194 45.122C76.8866 45.2825 76.7176 45.8353 76.3234 45.763L76.2732 45.7537C75.8976 45.6848 75.7133 46.1938 76.0461 46.3812C76.3959 46.5782 76.1722 47.1122 75.7864 47.001L75.7251 46.9833C75.3572 46.8773 75.1224 47.3661 75.4351 47.587C75.7639 47.8193 75.4868 48.3292 75.113 48.1797L75.0443 48.1522C74.6877 48.0096 74.4038 48.4734 74.6929 48.7261C74.9972 48.992 74.6686 49.4726 74.3104 49.2856L74.2385 49.2481C73.8968 49.0697 73.5658 49.5033 73.8279 49.7859C74.1039 50.0835 73.726 50.5294 73.3872 50.306L73.3165 50.2595C72.9932 50.0464 72.6177 50.4446 72.8494 50.7548C73.0935 51.0816 72.6693 51.4874 72.3537 51.2291L72.2882 51.1755C71.9872 50.9292 71.5703 51.2872 71.7683 51.622C71.9771 51.975 71.5102 52.3355 71.2216 52.0441L71.1647 51.9867C70.8896 51.7091 70.4352 52.022 70.5965 52.378C70.7667 52.7536 70.2614 53.0636 70.0037 52.7417L69.9579 52.6845C69.7125 52.3778 69.225 52.6412 69.347 53.0145C69.4757 53.4086 68.9371 53.6634 68.7141 53.3139L68.6805 53.2612C68.4682 52.9286 67.9531 53.1383 68.0335 53.5245C68.1184 53.9325 67.5525 54.1279 67.3676 53.7544L67.3459 53.7106C67.1702 53.3556 66.6334 53.5082 66.6705 53.9025C66.7098 54.3193 66.1167 54.4335 65.9731 54.0403C65.8367 53.667 65.2801 53.747 65.2731 54.1444C65.2658 54.5645 64.664 54.6227 64.5642 54.2145C64.4695 53.8275 63.9079 53.8525 63.8567 54.2476C63.8025 54.6655 63.1975 54.6655 63.1433 54.2476C63.0921 53.8525 62.5305 53.8275 62.4358 54.2145C62.336 54.6227 61.7342 54.5645 61.7269 54.1444C61.7199 53.747 61.1633 53.667 61.0269 54.0403C60.8833 54.4335 60.2902 54.3193 60.3295 53.9025C60.3666 53.5082 59.8298 53.3556 59.6541 53.7106L59.6324 53.7544C59.4475 54.1279 58.8816 53.9325 58.9665 53.5245C59.0469 53.1383 58.5318 52.9286 58.3195 53.2612L58.2859 53.3139C58.0629 53.6634 57.5243 53.4086 57.653 53.0145C57.775 52.6412 57.2875 52.3778 57.0421 52.6845L56.9963 52.7417C56.7386 53.0636 56.2333 52.7536 56.4035 52.378C56.5648 52.022 56.1104 51.7091 55.8353 51.9867L55.7784 52.0441C55.4898 52.3355 55.0229 51.975 55.2317 51.622C55.4297 51.2872 55.0128 50.9292 54.7118 51.1755L54.6463 51.2291C54.3307 51.4874 53.9065 51.0816 54.1506 50.7548C54.3823 50.4446 54.0068 50.0464 53.6835 50.2595L53.6128 50.306C53.274 50.5294 52.8961 50.0835 53.1721 49.7859C53.4342 49.5033 53.1032 49.0697 52.7615 49.2481L52.6896 49.2856C52.3314 49.4726 52.0028 48.992 52.3071 48.7261C52.5962 48.4734 52.3123 48.0096 51.9557 48.1522L51.887 48.1797C51.5132 48.3292 51.2361 47.8193 51.5649 47.587C51.8776 47.3661 51.6428 46.8773 51.2749 46.9833L51.2136 47.001C50.8278 47.1122 50.6041 46.5782 50.9539 46.3812C51.2867 46.1938 51.1024 45.6848 50.7268 45.7537L50.6766 45.763C50.2824 45.8353 50.1134 45.2825 50.4806 45.122C50.8301 44.9694 50.6828 44.4463 50.3028 44.4779C49.9037 44.5111 49.7691 43.9462 50.1502 43.8233C50.513 43.7064 50.425 43.1716 50.0439 43.1657C49.6433 43.1596 49.5747 42.584 49.9663 42.4994C50.339 42.419 50.3112 41.8786 49.9324 41.8353C49.5337 41.7897 49.5337 41.2103 49.9324 41.1647C50.3112 41.1214 50.339 40.581 49.9663 40.5006C49.5747 40.416 49.6433 39.8404 50.0439 39.8343C50.425 39.8284 50.513 39.2936 50.1502 39.1767C49.7691 39.0538 49.9037 38.4889 50.3028 38.5221C50.6828 38.5537 50.8301 38.0306 50.4806 37.878C50.1134 37.7175 50.2824 37.1647 50.6766 37.237L50.7268 37.2463C51.1024 37.3152 51.2867 36.8062 50.9539 36.6188C50.6041 36.4218 50.8278 35.8878 51.2136 35.999L51.2749 36.0167C51.6428 36.1227 51.8776 35.6339 51.5649 35.413C51.2361 35.1807 51.5132 34.6708 51.887 34.8203L51.9557 34.8478C52.3123 34.9904 52.5962 34.5266 52.3071 34.2739C52.0028 34.008 52.3314 33.5274 52.6896 33.7144L52.7615 33.7519C53.1032 33.9303 53.4342 33.4967 53.1721 33.2141C52.8961 32.9165 53.274 32.4706 53.6128 32.694L53.6835 32.7405C54.0068 32.9536 54.3823 32.5554 54.1506 32.2452C53.9065 31.9184 54.3307 31.5126 54.6463 31.7709L54.7118 31.8245C55.0128 32.0708 55.4297 31.7128 55.2317 31.378C55.0229 31.025 55.4898 30.6645 55.7784 30.9559L55.8353 31.0133C56.1104 31.2909 56.5648 30.978 56.4035 30.622C56.2333 30.2464 56.7386 29.9364 56.9963 30.2583L57.0421 30.3155C57.2875 30.6222 57.775 30.3588 57.653 29.9855C57.5243 29.5914 58.0629 29.3366 58.2859 29.6861L58.3195 29.7388C58.5318 30.0714 59.0469 29.8617 58.9665 29.4755C58.8816 29.0675 59.4475 28.8721 59.6324 29.2456L59.6541 29.2894C59.8298 29.6444 60.3666 29.4918 60.3295 29.0975C60.2902 28.6807 60.8833 28.5665 61.0269 28.9597C61.1633 29.333 61.7199 29.253 61.7269 28.8556C61.7342 28.4355 62.336 28.3773 62.4358 28.7855C62.5305 29.1725 63.0921 29.1475 63.1433 28.7524Z" fill="white" fill-opacity="0.28"/>
<path id="Ellipse 1" d="M27.7927 29.1285C30.4019 29.1181 32.9091 30.3342 34.7628 32.5094C36.6165 34.6845 37.6648 37.6405 37.6772 40.7271C37.6895 43.8136 36.6648 46.7779 34.8286 48.9678C32.9923 51.1577 30.4949 52.3938 27.8857 52.4043L27.8392 40.7664L27.7927 29.1285Z" fill="black" fill-opacity="0.2"/>
<line id="Line 18" x1="32.7155" y1="49.4638" x2="48.9655" y2="33.9638" stroke="black" stroke-width="0.1"/>
<line id="Line 16" x1="32.786" y1="30.4653" x2="39.036" y2="36.9653" stroke="black" stroke-width="0.1"/>
<line id="Line 19" x1="55.1859" y1="30.5348" x2="44.0359" y2="42.0348" stroke="black" stroke-width="0.1"/>
<line id="Line 17" x1="39.0345" y1="33.9638" x2="55.2845" y2="49.4638" stroke="black" stroke-width="0.1"/>
<path id="Polygon 2" d="M32.4272 49.85L44 37.9716L55.5728 49.85H32.4272Z" fill="#FF6A2C" stroke="black" stroke-width="0.1"/>
<rect id="Rectangle 3" x="35.8" y="33.55" width="16.4" height="12.9" fill="#FF6A2C" stroke="black" stroke-width="0.1"/>
<rect id="Rectangle 4" x="35.85" y="33.6" width="16.3" height="17" fill="#FF6A2C"/>
<rect id="Rectangle 5" x="32" y="49.4" width="24" height="3" fill="#FF6A2C"/>
<rect id="Rectangle 6" x="55.25" y="28" width="23" height="27" fill="#FF6A2C"/>
<rect id="Rectangle 7" x="27" y="27" width="5.75" height="27" fill="#FF6A2C"/>
</g>
<g id="Group 3">
<g id="Group 1">
<path id="Polygon 1" d="M44 11L55.2583 30.5H32.7417L44 11Z" fill="#0F52BA"/>
<path id="Ellipse 2" d="M42.8322 9.35716C43.6822 11.3096 44.0378 13.5314 43.8673 15.8242C43.6967 18.1171 43.0053 20.4097 41.8548 22.4976C40.7042 24.5854 39.1303 26.4035 37.2735 27.7896C35.4167 29.1758 33.3347 30.0869 31.2133 30.4416L31.0563 16.6912L42.8322 9.35716Z" fill="black" fill-opacity="0.15"/>
<path id="Ellipse 3" d="M56.4954 30.2674C54.3956 29.9133 52.3402 28.998 50.5125 27.6031C48.6848 26.2081 47.1417 24.377 46.0209 22.273C44.9001 20.1691 44.2365 17.8578 44.0892 15.5453C43.9419 13.2329 44.3155 10.9912 45.1768 9.0203L56.7818 16.3974L56.4954 30.2674Z" fill="white" fill-opacity="0.15"/>
<line id="Line 1" x1="55.2752" y1="30.4934" x2="43.9752" y2="24.0434" stroke="black" stroke-width="0.1"/>
<line id="Line 4" x1="55.2568" y1="30.4751" x2="43.9568" y2="11.0251" stroke="black" stroke-width="0.1"/>
<line id="Line 3" x1="43.95" y1="11" x2="43.95" y2="24" stroke="black" stroke-width="0.1"/>
<line id="Line 2" x1="32.7749" y1="30.4568" x2="43.9749" y2="23.9568" stroke="black" stroke-width="0.1"/>
<line id="Line 5" x1="32.7566" y1="30.4751" x2="43.9566" y2="10.9751" stroke="black" stroke-width="0.1"/>
<line id="Line 6" x1="32.75" y1="30.45" x2="55.25" y2="30.45" stroke="black" stroke-width="0.1"/>
</g>
<g id="Group 2">
<path id="Polygon 1_2" d="M44 17L50.0622 27.5H37.9378L44 17Z" fill="#FF6A2C"/>
<line id="Line 4_2" x1="50.0414" y1="27.4982" x2="43.9568" y2="17.0251" stroke="black" stroke-width="0.1"/>
<line id="Line 5_2" x1="37.9259" y1="27.4751" x2="43.9567" y2="16.9751" stroke="black" stroke-width="0.1"/>
<line id="Line 6_2" x1="37.9423" y1="27.45" x2="50.0577" y2="27.45" stroke="black" stroke-width="0.1"/>
</g>
<rect id="Rectangle 8" x="36.8186" y="5.91405" width="8.6954" height="24.0698" transform="rotate(30.1395 36.8186 5.91405)" fill="#FF6A2C"/>
<rect id="Rectangle 9" x="43.3031" y="9.82875" width="9.10924" height="24.898" transform="rotate(-30.074 43.3031 9.82875)" fill="#FF6A2C"/>
</g>
<g id="G">
<path d="M28.26 38.996L29.286 40.63L22.294 44.924C21.23 45.2533 20.1913 45.4687 19.178 45.57C18.19 45.6967 17.126 45.76 15.986 45.76C13.174 45.76 10.6787 45.114 8.5 43.822C6.34667 42.53 4.662 40.7567 3.446 38.502C2.25533 36.222 1.66 33.638 1.66 30.75C1.66 27.786 2.55933 25.05 4.358 22.542C6.15667 20.0087 8.39867 18.02 11.084 16.576C13.7693 15.1067 16.328 14.372 18.76 14.372C20.204 14.372 21.8887 14.562 23.814 14.942C25.7393 15.322 27.1453 15.7273 28.032 16.158V23.53H26.588C24.0547 19.5527 20.7107 17.564 16.556 17.564C14.732 17.564 13.0727 18.058 11.578 19.046C10.0833 20.0087 8.90533 21.364 8.044 23.112C7.208 24.8347 6.79 26.7727 6.79 28.926C6.79 31.4087 7.19533 33.676 8.006 35.728C8.842 37.78 10.1087 39.4267 11.806 40.668C13.5033 41.9093 15.606 42.53 18.114 42.53C19.2287 42.53 20.1533 42.492 20.888 42.416C21.6227 42.34 22.4967 42.0993 23.51 41.694V32.726L17.658 31.092L18.418 29.572H31.87V30.75L28.26 33.6V38.996Z" fill="#E8E288"/>
<path d="M28.26 38.996H27.96V39.0824L28.0059 39.1555L28.26 38.996ZM29.286 40.63L29.443 40.8856L29.7012 40.7271L29.5401 40.4705L29.286 40.63ZM22.294 44.924L22.3827 45.2106L22.4188 45.1994L22.451 45.1796L22.294 44.924ZM19.178 45.57L19.1481 45.2714L19.1399 45.2724L19.178 45.57ZM8.5 43.822L8.34565 44.0793L8.34698 44.08L8.5 43.822ZM3.446 38.502L3.18005 38.6409L3.18195 38.6444L3.446 38.502ZM4.358 22.542L4.60179 22.7168L4.60262 22.7157L4.358 22.542ZM11.084 16.576L11.2261 16.8402L11.228 16.8392L11.084 16.576ZM23.814 14.942L23.7559 15.2363L23.7559 15.2363L23.814 14.942ZM28.032 16.158H28.332V15.9702L28.1631 15.8881L28.032 16.158ZM28.032 23.53V23.83H28.332V23.53H28.032ZM26.588 23.53L26.335 23.6912L26.4234 23.83H26.588V23.53ZM11.578 19.046L11.7405 19.2982L11.7434 19.2963L11.578 19.046ZM8.044 23.112L7.77489 22.9794L7.7741 22.981L8.044 23.112ZM8.006 35.728L7.72697 35.8382L7.72817 35.8412L8.006 35.728ZM11.806 40.668L11.9831 40.4258L11.9831 40.4258L11.806 40.668ZM23.51 41.694L23.6214 41.9725L23.81 41.8971V41.694H23.51ZM23.51 32.726H23.81V32.4983L23.5907 32.4371L23.51 32.726ZM17.658 31.092L17.3897 30.9578L17.227 31.2831L17.5773 31.3809L17.658 31.092ZM18.418 29.572V29.272H18.2326L18.1497 29.4378L18.418 29.572ZM31.87 29.572H32.17V29.272H31.87V29.572ZM31.87 30.75L32.0559 30.9855L32.17 30.8954V30.75H31.87ZM28.26 33.6L28.0741 33.3645L27.96 33.4546V33.6H28.26ZM28.0059 39.1555L29.0319 40.7895L29.5401 40.4705L28.5141 38.8365L28.0059 39.1555ZM29.129 40.3744L22.137 44.6684L22.451 45.1796L29.443 40.8856L29.129 40.3744ZM22.2053 44.6374C21.1587 44.9614 20.1398 45.1723 19.1481 45.2715L19.2079 45.8685C20.2429 45.765 21.3013 45.5453 22.3827 45.2106L22.2053 44.6374ZM19.1399 45.2724C18.1662 45.3973 17.115 45.46 15.986 45.46V46.06C17.137 46.06 18.2138 45.9961 19.2161 45.8676L19.1399 45.2724ZM15.986 45.46C13.2218 45.46 10.7804 44.8255 8.65302 43.564L8.34698 44.08C10.5769 45.4025 13.1262 46.06 15.986 46.06V45.46ZM8.65435 43.5648C6.5482 42.3011 4.901 40.5678 3.71005 38.3596L3.18195 38.6444C4.423 40.9455 6.14513 42.7589 8.34565 44.0792L8.65435 43.5648ZM3.71192 38.3631C2.54627 36.131 1.96 33.5957 1.96 30.75H1.36C1.36 33.6803 1.9644 36.313 3.18008 38.6409L3.71192 38.3631ZM1.96 30.75C1.96 27.8514 2.83807 25.1761 4.60179 22.7168L4.11421 22.3672C2.2806 24.9239 1.36 27.7206 1.36 30.75H1.96ZM4.60262 22.7157C6.37506 20.2193 8.58224 18.2619 11.2261 16.8402L10.9419 16.3118C8.2151 17.7781 5.93827 19.7981 4.11339 22.3683L4.60262 22.7157ZM11.228 16.8392C13.8804 15.3879 16.3897 14.672 18.76 14.672V14.072C16.2663 14.072 13.6583 14.8255 10.94 16.3128L11.228 16.8392ZM18.76 14.672C20.179 14.672 21.8434 14.8589 23.7559 15.2363L23.8721 14.6477C21.9339 14.2651 20.229 14.072 18.76 14.072V14.672ZM23.7559 15.2363C25.6757 15.6152 27.0504 16.0147 27.9009 16.4279L28.1631 15.8881C27.2403 15.4399 25.803 15.0288 23.8721 14.6477L23.7559 15.2363ZM27.732 16.158V23.53H28.332V16.158H27.732ZM28.032 23.23H26.588V23.83H28.032V23.23ZM26.841 23.3688C24.2614 19.3188 20.8285 17.264 16.556 17.264V17.864C20.5928 17.864 23.8479 19.7865 26.335 23.6912L26.841 23.3688ZM16.556 17.264C14.6743 17.264 12.9572 17.7747 11.4126 18.7957L11.7434 19.2963C13.1881 18.3413 14.7897 17.864 16.556 17.864V17.264ZM11.4156 18.7938C9.87082 19.7887 8.65789 21.1874 7.7749 22.9794L8.3131 23.2446C9.15277 21.5406 10.2959 20.2286 11.7404 19.2982L11.4156 18.7938ZM7.7741 22.981C6.91595 24.7493 6.49 26.733 6.49 28.926H7.09C7.09 26.8123 7.50005 24.92 8.3139 23.243L7.7741 22.981ZM6.49 28.926C6.49 31.4417 6.90082 33.747 7.72699 35.8382L8.28502 35.6178C7.48984 33.605 7.09 31.3756 7.09 28.926H6.49ZM7.72817 35.8412C8.58397 37.9418 9.88424 39.6342 11.6289 40.9102L11.9831 40.4258C10.3331 39.2191 9.10003 37.6182 8.28383 35.6148L7.72817 35.8412ZM11.6289 40.9102C13.387 42.1959 15.5549 42.83 18.114 42.83V42.23C15.6571 42.23 13.6197 41.6228 11.9831 40.4258L11.6289 40.9102ZM18.114 42.83C19.2344 42.83 20.1702 42.7919 20.9189 42.7144L20.8571 42.1176C20.1365 42.1921 19.223 42.23 18.114 42.23V42.83ZM20.9189 42.7144C21.6909 42.6345 22.5933 42.3838 23.6214 41.9725L23.3986 41.4155C22.4 41.8149 21.5544 42.0455 20.8571 42.1176L20.9189 42.7144ZM23.81 41.694V32.726H23.21V41.694H23.81ZM23.5907 32.4371L17.7387 30.8031L17.5773 31.3809L23.4293 33.0149L23.5907 32.4371ZM17.9263 31.2262L18.6863 29.7062L18.1497 29.4378L17.3897 30.9578L17.9263 31.2262ZM18.418 29.872H31.87V29.272H18.418V29.872ZM31.57 29.572V30.75H32.17V29.572H31.57ZM31.6841 30.5145L28.0741 33.3645L28.4459 33.8355L32.0559 30.9855L31.6841 30.5145ZM27.96 33.6V38.996H28.56V33.6H27.96Z" fill="#444444" fill-opacity="0.8"/>
</g>
<g id="MMA">
<path d="M84.2464 45.03H75.1264V44.1L77.9464 41.88V25.29L69.9364 45.03H68.2864L60.3364 25.08V42.24L63.4864 43.83L62.8864 45.03H55.8664V44.1L58.6864 41.88V24.3L55.5664 22.62L56.1664 21.42H62.6764L70.1764 40.26L77.6464 21.42H84.5464V22.35L81.6964 24.57V42.72L84.8464 43.83L84.2464 45.03ZM116.532 45.03H107.412V44.1L110.232 41.88V25.29L102.222 45.03H100.572L92.6216 25.08V42.24L95.7716 43.83L95.1716 45.03H88.1516V44.1L90.9716 41.88V24.3L87.8516 22.62L88.4516 21.42H94.9616L102.462 40.26L109.932 21.42H116.832V22.35L113.982 24.57V42.72L117.132 43.83L116.532 45.03ZM144.137 45H135.017V44.07L137.837 41.88L135.527 36.33H125.447L122.987 42L128.267 43.8L127.667 45H118.547V44.07L121.367 41.85L129.857 22.38L132.977 20.85L141.737 41.97L144.737 43.8L144.137 45ZM130.607 24.45L126.047 34.98H134.987L130.607 24.45Z" fill="#E8E288"/>
<path d="M84.2464 45.03V45.33H84.4318L84.5147 45.1642L84.2464 45.03ZM75.1264 45.03H74.8264V45.33H75.1264V45.03ZM75.1264 44.1L74.9408 43.8643L74.8264 43.9544V44.1H75.1264ZM77.9464 41.88L78.132 42.1157L78.2464 42.0256V41.88H77.9464ZM77.9464 25.29H78.2464L77.6684 25.1772L77.9464 25.29ZM69.9364 45.03V45.33H70.1384L70.2144 45.1428L69.9364 45.03ZM68.2864 45.03L68.0077 45.1411L68.083 45.33H68.2864V45.03ZM60.3364 25.08L60.6151 24.9689L60.0364 25.08H60.3364ZM60.3364 42.24H60.0364V42.4246L60.2012 42.5078L60.3364 42.24ZM63.4864 43.83L63.7547 43.9642L63.8884 43.6969L63.6216 43.5622L63.4864 43.83ZM62.8864 45.03V45.33H63.0718L63.1547 45.1642L62.8864 45.03ZM55.8664 45.03H55.5664V45.33H55.8664V45.03ZM55.8664 44.1L55.6808 43.8643L55.5664 43.9544V44.1H55.8664ZM58.6864 41.88L58.872 42.1157L58.9864 42.0256V41.88H58.6864ZM58.6864 24.3H58.9864V24.1208L58.8286 24.0359L58.6864 24.3ZM55.5664 22.62L55.2981 22.4858L55.1679 22.7462L55.4242 22.8841L55.5664 22.62ZM56.1664 21.42V21.12H55.981L55.8981 21.2858L56.1664 21.42ZM62.6764 21.42L62.9551 21.309L62.8799 21.12H62.6764V21.42ZM70.1764 40.26L69.8977 40.371L70.177 41.0725L70.4553 40.3706L70.1764 40.26ZM77.6464 21.42V21.12H77.4426L77.3675 21.3094L77.6464 21.42ZM84.5464 21.42H84.8464V21.12H84.5464V21.42ZM84.5464 22.35L84.7308 22.5867L84.8464 22.4966V22.35H84.5464ZM81.6964 24.57L81.5121 24.3333L81.3964 24.4234V24.57H81.6964ZM81.6964 42.72H81.3964V42.9324L81.5967 43.0029L81.6964 42.72ZM84.8464 43.83L85.1147 43.9642L85.2668 43.6601L84.9461 43.5471L84.8464 43.83ZM84.2464 44.73H75.1264V45.33H84.2464V44.73ZM75.4264 45.03V44.1H74.8264V45.03H75.4264ZM75.312 44.3357L78.132 42.1157L77.7608 41.6443L74.9408 43.8643L75.312 44.3357ZM78.2464 41.88V25.29H77.6464V41.88H78.2464ZM77.6684 25.1772L69.6584 44.9172L70.2144 45.1428L78.2244 25.4028L77.6684 25.1772ZM69.9364 44.73H68.2864V45.33H69.9364V44.73ZM68.5651 44.9189L60.6151 24.9689L60.0577 25.1911L68.0077 45.1411L68.5651 44.9189ZM60.0364 25.08V42.24H60.6364V25.08H60.0364ZM60.2012 42.5078L63.3512 44.0978L63.6216 43.5622L60.4716 41.9722L60.2012 42.5078ZM63.2181 43.6958L62.6181 44.8958L63.1547 45.1642L63.7547 43.9642L63.2181 43.6958ZM62.8864 44.73H55.8664V45.33H62.8864V44.73ZM56.1664 45.03V44.1H55.5664V45.03H56.1664ZM56.052 44.3357L58.872 42.1157L58.5008 41.6443L55.6808 43.8643L56.052 44.3357ZM58.9864 41.88V24.3H58.3864V41.88H58.9864ZM58.8286 24.0359L55.7086 22.3559L55.4242 22.8841L58.5442 24.5641L58.8286 24.0359ZM55.8347 22.7542L56.4347 21.5542L55.8981 21.2858L55.2981 22.4858L55.8347 22.7542ZM56.1664 21.72H62.6764V21.12H56.1664V21.72ZM62.3977 21.531L69.8977 40.371L70.4551 40.149L62.9551 21.309L62.3977 21.531ZM70.4553 40.3706L77.9253 21.5306L77.3675 21.3094L69.8975 40.1494L70.4553 40.3706ZM77.6464 21.72H84.5464V21.12H77.6464V21.72ZM84.2464 21.42V22.35H84.8464V21.42H84.2464ZM84.3621 22.1133L81.5121 24.3333L81.8808 24.8067L84.7308 22.5867L84.3621 22.1133ZM81.3964 24.57V42.72H81.9964V24.57H81.3964ZM81.5967 43.0029L84.7467 44.1129L84.9461 43.5471L81.7961 42.4371L81.5967 43.0029ZM84.5781 43.6958L83.9781 44.8958L84.5147 45.1642L85.1147 43.9642L84.5781 43.6958ZM116.532 45.03V45.33H116.717L116.8 45.1642L116.532 45.03ZM107.412 45.03H107.112V45.33H107.412V45.03ZM107.412 44.1L107.226 43.8643L107.112 43.9544V44.1H107.412ZM110.232 41.88L110.417 42.1157L110.532 42.0256V41.88H110.232ZM110.232 25.29H110.532L109.954 25.1772L110.232 25.29ZM102.222 45.03V45.33H102.424L102.5 45.1428L102.222 45.03ZM100.572 45.03L100.293 45.1411L100.368 45.33H100.572V45.03ZM92.6216 25.08L92.9002 24.9689L92.3216 25.08H92.6216ZM92.6216 42.24H92.3216V42.4246L92.4864 42.5078L92.6216 42.24ZM95.7716 43.83L96.0399 43.9642L96.1735 43.6969L95.9067 43.5622L95.7716 43.83ZM95.1716 45.03V45.33H95.357L95.4399 45.1642L95.1716 45.03ZM88.1516 45.03H87.8516V45.33H88.1516V45.03ZM88.1516 44.1L87.966 43.8643L87.8516 43.9544V44.1H88.1516ZM90.9716 41.88L91.1571 42.1157L91.2716 42.0256V41.88H90.9716ZM90.9716 24.3H91.2716V24.1208L91.1138 24.0359L90.9716 24.3ZM87.8516 22.62L87.5832 22.4858L87.4531 22.7462L87.7093 22.8841L87.8516 22.62ZM88.4516 21.42V21.12H88.2662L88.1832 21.2858L88.4516 21.42ZM94.9616 21.42L95.2403 21.309L95.165 21.12H94.9616V21.42ZM102.462 40.26L102.183 40.371L102.462 41.0725L102.74 40.3706L102.462 40.26ZM109.932 21.42V21.12H109.728L109.653 21.3094L109.932 21.42ZM116.832 21.42H117.132V21.12H116.832V21.42ZM116.832 22.35L117.016 22.5867L117.132 22.4966V22.35H116.832ZM113.982 24.57L113.797 24.3333L113.682 24.4234V24.57H113.982ZM113.982 42.72H113.682V42.9324L113.882 43.0029L113.982 42.72ZM117.132 43.83L117.4 43.9642L117.552 43.6601L117.231 43.5471L117.132 43.83ZM116.532 44.73H107.412V45.33H116.532V44.73ZM107.712 45.03V44.1H107.112V45.03H107.712ZM107.597 44.3357L110.417 42.1157L110.046 41.6443L107.226 43.8643L107.597 44.3357ZM110.532 41.88V25.29H109.932V41.88H110.532ZM109.954 25.1772L101.944 44.9172L102.5 45.1428L110.51 25.4028L109.954 25.1772ZM102.222 44.73H100.572V45.33H102.222V44.73ZM100.85 44.9189L92.9002 24.9689L92.3429 25.1911L100.293 45.1411L100.85 44.9189ZM92.3216 25.08V42.24H92.9216V25.08H92.3216ZM92.4864 42.5078L95.6364 44.0978L95.9067 43.5622L92.7567 41.9722L92.4864 42.5078ZM95.5032 43.6958L94.9032 44.8958L95.4399 45.1642L96.0399 43.9642L95.5032 43.6958ZM95.1716 44.73H88.1516V45.33H95.1716V44.73ZM88.4516 45.03V44.1H87.8516V45.03H88.4516ZM88.3371 44.3357L91.1571 42.1157L90.786 41.6443L87.966 43.8643L88.3371 44.3357ZM91.2716 41.88V24.3H90.6716V41.88H91.2716ZM91.1138 24.0359L87.9938 22.3559L87.7093 22.8841L90.8293 24.5641L91.1138 24.0359ZM88.1199 22.7542L88.7199 21.5542L88.1832 21.2858L87.5832 22.4858L88.1199 22.7542ZM88.4516 21.72H94.9616V21.12H88.4516V21.72ZM94.6828 21.531L102.183 40.371L102.74 40.149L95.2403 21.309L94.6828 21.531ZM102.74 40.3706L110.21 21.5306L109.653 21.3094L102.183 40.1494L102.74 40.3706ZM109.932 21.72H116.832V21.12H109.932V21.72ZM116.532 21.42V22.35H117.132V21.42H116.532ZM116.647 22.1133L113.797 24.3333L114.166 24.8067L117.016 22.5867L116.647 22.1133ZM113.682 24.57V42.72H114.282V24.57H113.682ZM113.882 43.0029L117.032 44.1129L117.231 43.5471L114.081 42.4371L113.882 43.0029ZM116.863 43.6958L116.263 44.8958L116.8 45.1642L117.4 43.9642L116.863 43.6958ZM144.137 45V45.3H144.322L144.405 45.1342L144.137 45ZM135.017 45H134.717V45.3H135.017V45ZM135.017 44.07L134.833 43.8331L134.717 43.9231V44.07H135.017ZM137.837 41.88L138.021 42.1169L138.202 41.9763L138.114 41.7647L137.837 41.88ZM135.527 36.33L135.804 36.2147L135.727 36.03H135.527V36.33ZM125.447 36.33V36.03H125.25L125.172 36.2106L125.447 36.33ZM122.987 42L122.712 41.8806L122.582 42.179L122.89 42.284L122.987 42ZM128.267 43.8L128.535 43.9342L128.689 43.6269L128.364 43.516L128.267 43.8ZM127.667 45V45.3H127.852L127.935 45.1342L127.667 45ZM118.547 45H118.247V45.3H118.547V45ZM118.547 44.07L118.361 43.8343L118.247 43.9244V44.07H118.547ZM121.367 41.85L121.552 42.0857L121.612 42.0391L121.642 41.9699L121.367 41.85ZM129.857 22.38L129.725 22.1106L129.626 22.1591L129.582 22.2601L129.857 22.38ZM132.977 20.85L133.254 20.7351L133.131 20.44L132.845 20.5806L132.977 20.85ZM141.737 41.97L141.46 42.0849L141.497 42.1752L141.58 42.2261L141.737 41.97ZM144.737 43.8L145.005 43.9342L145.128 43.6875L144.893 43.5439L144.737 43.8ZM130.607 24.45L130.884 24.3348L130.612 23.6822L130.331 24.3308L130.607 24.45ZM126.047 34.98L125.771 34.8608L125.59 35.28H126.047V34.98ZM134.987 34.98V35.28H135.436L135.264 34.8648L134.987 34.98ZM144.137 44.7H135.017V45.3H144.137V44.7ZM135.317 45V44.07H134.717V45H135.317ZM135.201 44.3069L138.021 42.1169L137.653 41.6431L134.833 43.8331L135.201 44.3069ZM138.114 41.7647L135.804 36.2147L135.25 36.4453L137.56 41.9953L138.114 41.7647ZM135.527 36.03H125.447V36.63H135.527V36.03ZM125.172 36.2106L122.712 41.8806L123.262 42.1194L125.722 36.4494L125.172 36.2106ZM122.89 42.284L128.17 44.084L128.364 43.516L123.084 41.716L122.89 42.284ZM127.998 43.6658L127.398 44.8658L127.935 45.1342L128.535 43.9342L127.998 43.6658ZM127.667 44.7H118.547V45.3H127.667V44.7ZM118.847 45V44.07H118.247V45H118.847ZM118.732 44.3057L121.552 42.0857L121.181 41.6143L118.361 43.8343L118.732 44.3057ZM121.642 41.9699L130.132 22.4999L129.582 22.2601L121.092 41.7301L121.642 41.9699ZM129.989 22.6494L133.109 21.1194L132.845 20.5806L129.725 22.1106L129.989 22.6494ZM132.7 20.9649L141.46 42.0849L142.014 41.8551L133.254 20.7351L132.7 20.9649ZM141.58 42.2261L144.58 44.0561L144.893 43.5439L141.893 41.7139L141.58 42.2261ZM144.468 43.6658L143.868 44.8658L144.405 45.1342L145.005 43.9342L144.468 43.6658ZM130.331 24.3308L125.771 34.8608L126.322 35.0992L130.882 24.5692L130.331 24.3308ZM126.047 35.28H134.987V34.68H126.047V35.28ZM135.264 34.8648L130.884 24.3348L130.33 24.5652L134.71 35.0952L135.264 34.8648Z" fill="#444444" fill-opacity="0.8"/>
</g>
<g id="fire">
<path d="M170.436 45H163.216V29.876L160.1 27.52H152.994V41.846L158.314 43.48L157.554 45H145.052V43.822L148.434 41.162V27.52H143.95V25.962H148.434V22.58C148.434 20.6293 148.966 18.7927 150.03 17.07C151.094 15.3473 152.424 13.9793 154.02 12.966C155.641 11.9527 157.212 11.446 158.732 11.446C160.024 11.446 161.493 11.6233 163.14 11.978C164.787 12.3073 165.901 12.6493 166.484 13.004C166.991 13.2827 167.358 13.65 167.586 14.106C167.839 14.562 167.966 15.0687 167.966 15.626C167.966 16.2087 167.789 16.766 167.434 17.298C167.079 17.8047 166.636 18.21 166.104 18.514C165.572 18.818 165.053 18.97 164.546 18.97C163.507 18.97 162.735 18.4507 162.228 17.412C161.823 16.6013 161.392 16.006 160.936 15.626C160.505 15.246 159.961 14.9927 159.302 14.866C158.643 14.714 157.719 14.638 156.528 14.638C155.363 14.638 154.476 15.1573 153.868 16.196C153.285 17.2347 152.994 18.7547 152.994 20.756V25.962H160.442L166.332 24.1H167.776V42.15L171.196 43.48L170.436 45ZM188.347 24.48C189.183 24.48 189.918 24.708 190.551 25.164C191.184 25.62 191.678 26.2533 192.033 27.064L189.525 30.218H188.081C187.98 29.5847 187.79 29.1413 187.511 28.888C187.258 28.6093 186.903 28.47 186.447 28.47C185.89 28.47 185.294 28.622 184.661 28.926C184.053 29.2047 183.356 29.7493 182.571 30.56V41.884L187.891 43.518L187.131 45.038H174.629V43.86L178.011 41.2V30.446L174.629 28.47V27.292L181.127 24.1L182.305 28.774L186.257 24.746C186.789 24.5433 187.486 24.442 188.347 24.442V24.48ZM207.292 45.076C206.279 45.2787 205.063 45.38 203.644 45.38C201.972 45.38 200.465 44.9493 199.122 44.088C197.805 43.2013 196.766 42.0107 196.006 40.516C195.271 39.0213 194.904 37.3747 194.904 35.576C194.904 33.6253 195.499 31.8013 196.69 30.104C197.881 28.3813 199.363 27.0133 201.136 26C202.935 24.9613 204.67 24.442 206.342 24.442C208.749 24.442 210.611 25.392 211.928 27.292C213.271 29.192 213.942 31.7 213.942 34.816H199.882C200.034 36.9693 200.617 38.73 201.63 40.098C202.669 41.466 204.075 42.15 205.848 42.15C207.495 42.15 209.838 40.8707 212.878 38.312L214.018 39.756L207.292 45.076ZM204.138 27.634C201.402 27.634 199.971 29.5087 199.844 33.258H208.736C208.508 31.89 208.267 30.8513 208.014 30.142C207.786 29.4073 207.368 28.812 206.76 28.356C206.177 27.8747 205.303 27.634 204.138 27.634Z" fill="#F80303"/>
<path d="M170.436 45V45.3H170.621L170.704 45.1342L170.436 45ZM163.216 45H162.916V45.3H163.216V45ZM163.216 29.876H163.516V29.7267L163.397 29.6367L163.216 29.876ZM160.1 27.52L160.281 27.2807L160.201 27.22H160.1V27.52ZM152.994 27.52V27.22H152.694V27.52H152.994ZM152.994 41.846H152.694V42.0677L152.906 42.1328L152.994 41.846ZM158.314 43.48L158.582 43.6142L158.741 43.2973L158.402 43.1932L158.314 43.48ZM157.554 45V45.3H157.739L157.822 45.1342L157.554 45ZM145.052 45H144.752V45.3H145.052V45ZM145.052 43.822L144.867 43.5862L144.752 43.6763V43.822H145.052ZM148.434 41.162L148.619 41.3978L148.734 41.3077V41.162H148.434ZM148.434 27.52H148.734V27.22H148.434V27.52ZM143.95 27.52H143.65V27.82H143.95V27.52ZM143.95 25.962V25.662H143.65V25.962H143.95ZM148.434 25.962V26.262H148.734V25.962H148.434ZM150.03 17.07L150.285 17.2276L150.285 17.2276L150.03 17.07ZM154.02 12.966L153.861 12.7116L153.859 12.7127L154.02 12.966ZM163.14 11.978L163.077 12.2713L163.081 12.2722L163.14 11.978ZM166.484 13.004L166.328 13.2605L166.339 13.2669L166.484 13.004ZM167.586 14.106L167.317 14.2403L167.324 14.2517L167.586 14.106ZM167.434 17.298L167.68 17.4701L167.684 17.4644L167.434 17.298ZM166.104 18.514L166.253 18.7745L166.253 18.7745L166.104 18.514ZM162.228 17.412L162.498 17.2805L162.496 17.2778L162.228 17.412ZM160.936 15.626L160.737 15.851L160.744 15.8565L160.936 15.626ZM159.302 14.866L159.234 15.1585L159.245 15.1606L159.302 14.866ZM153.868 16.196L153.609 16.0444L153.606 16.0492L153.868 16.196ZM152.994 25.962H152.694V26.262H152.994V25.962ZM160.442 25.962V26.262H160.488L160.532 26.248L160.442 25.962ZM166.332 24.1V23.8H166.286L166.242 23.814L166.332 24.1ZM167.776 24.1H168.076V23.8H167.776V24.1ZM167.776 42.15H167.476V42.3552L167.667 42.4296L167.776 42.15ZM171.196 43.48L171.464 43.6142L171.612 43.3197L171.305 43.2004L171.196 43.48ZM170.436 44.7H163.216V45.3H170.436V44.7ZM163.516 45V29.876H162.916V45H163.516ZM163.397 29.6367L160.281 27.2807L159.919 27.7593L163.035 30.1153L163.397 29.6367ZM160.1 27.22H152.994V27.82H160.1V27.22ZM152.694 27.52V41.846H153.294V27.52H152.694ZM152.906 42.1328L158.226 43.7668L158.402 43.1932L153.082 41.5592L152.906 42.1328ZM158.046 43.3458L157.286 44.8658L157.822 45.1342L158.582 43.6142L158.046 43.3458ZM157.554 44.7H145.052V45.3H157.554V44.7ZM145.352 45V43.822H144.752V45H145.352ZM145.237 44.0578L148.619 41.3978L148.249 40.9262L144.867 43.5862L145.237 44.0578ZM148.734 41.162V27.52H148.134V41.162H148.734ZM148.434 27.22H143.95V27.82H148.434V27.22ZM144.25 27.52V25.962H143.65V27.52H144.25ZM143.95 26.262H148.434V25.662H143.95V26.262ZM148.734 25.962V22.58H148.134V25.962H148.734ZM148.734 22.58C148.734 20.6872 149.249 18.9048 150.285 17.2276L149.775 16.9124C148.683 18.6805 148.134 20.5715 148.134 22.58H148.734ZM150.285 17.2276C151.327 15.5408 152.626 14.2066 154.181 13.2193L153.859 12.7127C152.222 13.7521 150.861 15.1539 149.775 16.9124L150.285 17.2276ZM154.179 13.2204C155.765 12.2292 157.281 11.746 158.732 11.746V11.146C157.143 11.146 155.518 11.6761 153.861 12.7116L154.179 13.2204ZM158.732 11.746C159.997 11.746 161.445 11.9198 163.077 12.2713L163.203 11.6847C161.542 11.3269 160.051 11.146 158.732 11.146V11.746ZM163.081 12.2722C164.729 12.6018 165.796 12.9362 166.328 13.2603L166.64 12.7477C166.007 12.3625 164.844 12.0129 163.199 11.6838L163.081 12.2722ZM166.339 13.2669C166.8 13.5203 167.12 13.8457 167.318 14.2402L167.854 13.9718C167.596 13.4543 167.181 13.0451 166.629 12.7411L166.339 13.2669ZM167.324 14.2517C167.551 14.6601 167.666 15.116 167.666 15.626H168.266C168.266 15.0213 168.128 14.4639 167.848 13.9603L167.324 14.2517ZM167.666 15.626C167.666 16.1437 167.51 16.6439 167.184 17.1316L167.684 17.4644C168.068 16.8881 168.266 16.2736 168.266 15.626H167.666ZM167.188 17.126C166.859 17.5967 166.448 17.9717 165.955 18.2535L166.253 18.7745C166.824 18.4483 167.3 18.0126 167.68 17.47L167.188 17.126ZM165.955 18.2535C165.459 18.537 164.991 18.67 164.546 18.67V19.27C165.115 19.27 165.685 19.099 166.253 18.7745L165.955 18.2535ZM164.546 18.67C164.079 18.67 163.686 18.5541 163.355 18.3315C163.022 18.1076 162.733 17.7637 162.498 17.2805L161.958 17.5435C162.229 18.099 162.581 18.534 163.02 18.8295C163.462 19.1262 163.974 19.27 164.546 19.27V18.67ZM162.496 17.2778C162.081 16.4477 161.628 15.8122 161.128 15.3955L160.744 15.8565C161.156 16.1998 161.564 16.7549 161.96 17.5462L162.496 17.2778ZM161.134 15.401C160.657 14.98 160.061 14.7065 159.359 14.5714L159.245 15.1606C159.86 15.2789 160.353 15.512 160.738 15.8509L161.134 15.401ZM159.369 14.5737C158.678 14.4141 157.727 14.338 156.528 14.338V14.938C157.71 14.938 158.609 15.0139 159.235 15.1583L159.369 14.5737ZM156.528 14.338C155.252 14.338 154.269 14.9175 153.609 16.0444L154.127 16.3476C154.683 15.3971 155.473 14.938 156.528 14.938V14.338ZM153.606 16.0492C152.987 17.1536 152.694 18.7341 152.694 20.756H153.294C153.294 18.7752 153.584 17.3158 154.13 16.3428L153.606 16.0492ZM152.694 20.756V25.962H153.294V20.756H152.694ZM152.994 26.262H160.442V25.662H152.994V26.262ZM160.532 26.248L166.422 24.386L166.242 23.814L160.352 25.676L160.532 26.248ZM166.332 24.4H167.776V23.8H166.332V24.4ZM167.476 24.1V42.15H168.076V24.1H167.476ZM167.667 42.4296L171.087 43.7596L171.305 43.2004L167.885 41.8704L167.667 42.4296ZM170.928 43.3458L170.168 44.8658L170.704 45.1342L171.464 43.6142L170.928 43.3458ZM188.347 24.48H188.047V24.78H188.347V24.48ZM190.551 25.164L190.726 24.9205L190.726 24.9205L190.551 25.164ZM192.033 27.064L192.268 27.2507L192.38 27.1093L192.308 26.9438L192.033 27.064ZM189.525 30.218V30.518H189.67L189.76 30.4047L189.525 30.218ZM188.081 30.218L187.785 30.2654L187.825 30.518H188.081V30.218ZM187.511 28.888L187.289 29.0898L187.299 29.1004L187.309 29.11L187.511 28.888ZM184.661 28.926L184.786 29.1988L184.791 29.1965L184.661 28.926ZM182.571 30.56L182.356 30.3513L182.271 30.4385V30.56H182.571ZM182.571 41.884H182.271V42.1057L182.483 42.1708L182.571 41.884ZM187.891 43.518L188.159 43.6522L188.318 43.3353L187.979 43.2312L187.891 43.518ZM187.131 45.038V45.338H187.316L187.399 45.1722L187.131 45.038ZM174.629 45.038H174.329V45.338H174.629V45.038ZM174.629 43.86L174.444 43.6242L174.329 43.7143V43.86H174.629ZM178.011 41.2L178.197 41.4358L178.311 41.3457V41.2H178.011ZM178.011 30.446H178.311V30.2738L178.162 30.187L178.011 30.446ZM174.629 28.47H174.329V28.6422L174.478 28.729L174.629 28.47ZM174.629 27.292L174.497 27.0227L174.329 27.1051V27.292H174.629ZM181.127 24.1L181.418 24.0267L181.327 23.6673L180.995 23.8307L181.127 24.1ZM182.305 28.774L182.014 28.8473L182.145 29.3657L182.519 28.9841L182.305 28.774ZM186.257 24.746L186.15 24.4657L186.089 24.489L186.043 24.5359L186.257 24.746ZM188.347 24.442H188.647V24.142H188.347V24.442ZM188.347 24.78C189.125 24.78 189.797 24.9909 190.376 25.4075L190.726 24.9205C190.038 24.4251 189.241 24.18 188.347 24.18V24.78ZM190.376 25.4075C190.96 25.828 191.422 26.4161 191.758 27.1842L192.308 26.9438C191.935 26.0906 191.409 25.412 190.726 24.9205L190.376 25.4075ZM191.798 26.8773L189.29 30.0313L189.76 30.4047L192.268 27.2507L191.798 26.8773ZM189.525 29.918H188.081V30.518H189.525V29.918ZM188.377 30.1706C188.272 29.513 188.067 28.9877 187.713 28.666L187.309 29.11C187.513 29.295 187.687 29.6563 187.785 30.2654L188.377 30.1706ZM187.733 28.6862C187.411 28.332 186.968 28.17 186.447 28.17V28.77C186.838 28.77 187.104 28.8867 187.289 29.0898L187.733 28.6862ZM186.447 28.17C185.835 28.17 185.195 28.337 184.531 28.6555L184.791 29.1965C185.394 28.907 185.945 28.77 186.447 28.77V28.17ZM184.536 28.6533C183.879 28.9546 183.152 29.5297 182.356 30.3513L182.787 30.7687C183.561 29.969 184.227 29.4548 184.786 29.1987L184.536 28.6533ZM182.271 30.56V41.884H182.871V30.56H182.271ZM182.483 42.1708L187.803 43.8048L187.979 43.2312L182.659 41.5972L182.483 42.1708ZM187.623 43.3838L186.863 44.9038L187.399 45.1722L188.159 43.6522L187.623 43.3838ZM187.131 44.738H174.629V45.338H187.131V44.738ZM174.929 45.038V43.86H174.329V45.038H174.929ZM174.815 44.0958L178.197 41.4358L177.826 40.9642L174.444 43.6242L174.815 44.0958ZM178.311 41.2V30.446H177.711V41.2H178.311ZM178.162 30.187L174.78 28.211L174.478 28.729L177.86 30.705L178.162 30.187ZM174.929 28.47V27.292H174.329V28.47H174.929ZM174.761 27.5613L181.259 24.3693L180.995 23.8307L174.497 27.0227L174.761 27.5613ZM180.836 24.1733L182.014 28.8473L182.596 28.7007L181.418 24.0267L180.836 24.1733ZM182.519 28.9841L186.471 24.9561L186.043 24.5359L182.091 28.5639L182.519 28.9841ZM186.364 25.0263C186.849 24.8416 187.505 24.742 188.347 24.742V24.142C187.466 24.142 186.729 24.2451 186.15 24.4657L186.364 25.0263ZM188.047 24.442V24.48H188.647V24.442H188.047ZM207.292 45.076L207.351 45.3702L207.422 45.356L207.478 45.3113L207.292 45.076ZM199.122 44.088L198.955 44.3369L198.96 44.3405L199.122 44.088ZM196.006 40.516L195.737 40.6483L195.739 40.652L196.006 40.516ZM196.69 30.104L196.936 30.2763L196.937 30.2746L196.69 30.104ZM201.136 26L201.285 26.2605L201.286 26.2598L201.136 26ZM211.928 27.292L211.682 27.4629L211.683 27.4651L211.928 27.292ZM213.942 34.816V35.116H214.242V34.816H213.942ZM199.882 34.816V34.516H199.56L199.583 34.8371L199.882 34.816ZM201.63 40.098L201.389 40.2766L201.391 40.2794L201.63 40.098ZM212.878 38.312L213.114 38.1261L212.922 37.8831L212.685 38.0825L212.878 38.312ZM214.018 39.756L214.204 39.9913L214.439 39.8054L214.254 39.5701L214.018 39.756ZM199.844 33.258L199.544 33.2479L199.534 33.558H199.844V33.258ZM208.736 33.258V33.558H209.09L209.032 33.2087L208.736 33.258ZM208.014 30.142L207.727 30.231L207.732 30.2429L208.014 30.142ZM206.76 28.356L206.569 28.5875L206.58 28.596L206.76 28.356ZM207.233 44.7818C206.245 44.9795 205.05 45.08 203.644 45.08V45.68C205.076 45.68 206.313 45.5778 207.351 45.3702L207.233 44.7818ZM203.644 45.08C202.027 45.08 200.576 44.6643 199.284 43.8355L198.96 44.3405C200.354 45.2344 201.918 45.68 203.644 45.68V45.08ZM199.29 43.8391C198.017 42.9826 197.012 41.8318 196.274 40.38L195.739 40.652C196.521 42.1895 197.593 43.4201 198.955 44.3369L199.29 43.8391ZM196.275 40.3837C195.563 38.9334 195.204 37.3325 195.204 35.576H194.604C194.604 37.4168 194.98 39.1093 195.737 40.6483L196.275 40.3837ZM195.204 35.576C195.204 33.691 195.778 31.9265 196.936 30.2763L196.445 29.9317C195.221 31.6762 194.604 33.5597 194.604 35.576H195.204ZM196.937 30.2746C198.103 28.5879 199.552 27.251 201.285 26.2605L200.987 25.7395C199.174 26.7757 197.659 28.1748 196.443 29.9334L196.937 30.2746ZM201.286 26.2598C203.05 25.2411 204.734 24.742 206.342 24.742V24.142C204.606 24.142 202.819 24.6815 200.986 25.7402L201.286 26.2598ZM206.342 24.742C208.655 24.742 210.423 25.6476 211.682 27.4629L212.175 27.1211C210.799 25.1364 208.842 24.142 206.342 24.142V24.742ZM211.683 27.4651C212.98 29.2999 213.642 31.7413 213.642 34.816H214.242C214.242 31.6587 213.562 29.0841 212.173 27.1189L211.683 27.4651ZM213.942 34.516H199.882V35.116H213.942V34.516ZM199.583 34.8371C199.738 37.0323 200.334 38.8519 201.389 40.2766L201.871 39.9194C200.9 38.6081 200.33 36.9064 200.181 34.7949L199.583 34.8371ZM201.391 40.2794C202.489 41.7249 203.985 42.45 205.848 42.45V41.85C204.165 41.85 202.849 41.2071 201.869 39.9166L201.391 40.2794ZM205.848 42.45C206.744 42.45 207.793 42.1042 208.984 41.4538C210.18 40.8011 211.543 39.8281 213.071 38.5415L212.685 38.0825C211.174 39.3545 209.845 40.3005 208.697 40.9272C207.545 41.5561 206.599 41.85 205.848 41.85V42.45ZM212.643 38.4979L213.783 39.9419L214.254 39.5701L213.114 38.1261L212.643 38.4979ZM213.832 39.5207L207.106 44.8407L207.478 45.3113L214.204 39.9913L213.832 39.5207ZM204.138 27.334C202.694 27.334 201.556 27.8338 200.774 28.8579C200.004 29.8663 199.609 31.3449 199.544 33.2479L200.144 33.2681C200.206 31.4218 200.59 30.0884 201.251 29.2221C201.9 28.3716 202.847 27.934 204.138 27.934V27.334ZM199.844 33.558H208.736V32.958H199.844V33.558ZM209.032 33.2087C208.803 31.8351 208.559 30.7757 208.297 30.0411L207.732 30.2429C207.976 30.927 208.213 31.9449 208.44 33.3073L209.032 33.2087ZM208.301 30.0531C208.054 29.2589 207.599 28.6104 206.94 28.116L206.58 28.596C207.137 29.0136 207.518 29.5558 207.728 30.2309L208.301 30.0531ZM206.951 28.1247C206.292 27.5805 205.337 27.334 204.138 27.334V27.934C205.27 27.934 206.063 28.1689 206.569 28.5873L206.951 28.1247Z" fill="#444444" fill-opacity="0.8"/>
</g>
<ellipse id="Ellipse 4" cx="137" cy="23" rx="47" ry="36" fill="#FF0000" fill-opacity="0.05"/>
<ellipse id="Ellipse 5" cx="170" cy="37" rx="47" ry="36" fill="#FF0000" fill-opacity="0.05"/>
<ellipse id="Ellipse 6" cx="176" cy="55" rx="47" ry="36" fill="#FF0000" fill-opacity="0.05"/>
<ellipse id="Ellipse 8" cx="209" cy="56" rx="47" ry="36" fill="#FF0000" fill-opacity="0.05"/>
<ellipse id="Ellipse 9" cx="200" cy="36" rx="47" ry="36" fill="#FF0000" fill-opacity="0.05"/>
<ellipse id="Ellipse 7" cx="178" cy="25" rx="47" ry="36" fill="#FF0000" fill-opacity="0.05"/>
</g>
<defs>
<clipPath id="clip0_1_3">
<rect width="250" height="80" fill="white"/>
</clipPath>
</defs>
</svg>
