<svg width="100" height="100" viewBox="0 0 100 100" fill="none" xmlns="http://www.w3.org/2000/svg">
<g clip-path="url(#clip0_1_2)">
<rect width="100" height="100" fill="white"/>
<circle cx="50" cy="50" r="49.85" stroke="black" stroke-width="0.3"/>
<rect x="22" y="16" width="6" height="34" rx="3" fill="#404040"/>
<rect x="33" y="16" width="6" height="34" rx="3" fill="#404040"/>
<rect x="44" y="16" width="6" height="34" rx="3" fill="#404040"/>
<rect x="11" y="16" width="6" height="34" rx="3" fill="#404040"/>
<rect y="16" width="6" height="34" rx="3" fill="#404040"/>
<rect x="55" y="16" width="6" height="34" rx="3" fill="#404040"/>
<rect x="66" y="16" width="6" height="34" rx="3" fill="#404040"/>
<rect x="77" y="16" width="6" height="34" rx="3" fill="#404040"/>
<rect x="88" y="16" width="6" height="34" rx="3" fill="#404040"/>
<rect x="99" y="16" width="6" height="34" rx="3" fill="#404040"/>
<circle cx="50" cy="50" r="55" stroke="black" stroke-width="10"/>
<path d="M27.9773 53.2727V62H26.9545L22.1989 55.1477H22.1136V62H21.0568V53.2727H22.0795L26.8523 60.142H26.9375V53.2727H27.9773Z" fill="#404040"/>
<path d="M87.642 62L85.2557 53.2727H86.3295L88.1534 60.3807H88.2386L90.0966 53.2727H91.2898L93.1477 60.3807H93.233L95.0568 53.2727H96.1307L93.7443 62H92.6534L90.7273 55.0455H90.6591L88.733 62H87.642Z" fill="#404040"/>
<path d="M23.25 78.956C23.106 79.1 22.884 79.304 22.584 79.568C22.296 79.82 21.99 80.06 21.666 80.288C21.354 80.516 21.09 80.66 20.874 80.72C20.622 80.792 20.394 80.87 20.19 80.954C19.986 81.038 19.764 81.11 19.524 81.17C19.284 81.242 18.984 81.278 18.624 81.278C18.12 81.278 17.58 81.188 17.004 81.008C16.428 80.84 15.888 80.63 15.384 80.378C14.88 80.138 14.472 79.904 14.16 79.676C13.536 79.208 13.056 78.578 12.72 77.786C12.396 76.982 12.234 76.04 12.234 74.96C12.234 74.66 12.264 74.336 12.324 73.988C12.384 73.628 12.456 73.292 12.54 72.98C12.624 72.656 12.708 72.398 12.792 72.206C13.044 71.63 13.35 71.066 13.71 70.514C14.082 69.962 14.562 69.5 15.15 69.128C15.462 68.924 15.858 68.714 16.338 68.498C16.818 68.27 17.448 68.156 18.228 68.156C18.336 68.156 18.45 68.162 18.57 68.174C18.69 68.174 18.81 68.18 18.93 68.192C19.59 68.264 20.172 68.468 20.676 68.804C21.192 69.14 21.594 69.494 21.882 69.866C22.014 70.034 22.128 70.256 22.224 70.532C22.32 70.808 22.368 71.102 22.368 71.414C22.368 71.558 22.356 71.702 22.332 71.846C22.32 71.99 22.284 72.134 22.224 72.278C22.08 72.722 21.882 73.136 21.63 73.52C21.39 73.904 21.09 74.216 20.73 74.456C20.37 74.684 19.938 74.798 19.434 74.798C18.99 74.798 18.648 74.768 18.408 74.708C18.168 74.648 17.97 74.552 17.814 74.42C17.658 74.276 17.478 74.084 17.274 73.844C17.106 73.64 16.992 73.412 16.932 73.16C16.872 72.896 16.842 72.65 16.842 72.422C16.842 72.194 16.842 72.032 16.842 71.936C16.842 71.648 16.962 71.36 17.202 71.072C17.454 70.772 17.748 70.52 18.084 70.316C18.432 70.112 18.738 70.01 19.002 70.01C19.242 70.01 19.434 70.106 19.578 70.298C19.722 70.478 19.824 70.682 19.884 70.91C19.956 71.138 19.992 71.318 19.992 71.45C19.992 71.63 19.968 71.834 19.92 72.062C19.872 72.29 19.71 72.506 19.434 72.71C19.386 72.758 19.338 72.782 19.29 72.782C19.206 72.782 19.164 72.722 19.164 72.602C19.164 72.542 19.182 72.47 19.218 72.386C19.254 72.302 19.314 72.23 19.398 72.17C19.494 72.098 19.554 72.014 19.578 71.918C19.602 71.822 19.614 71.732 19.614 71.648C19.614 71.576 19.608 71.51 19.596 71.45C19.596 71.378 19.596 71.318 19.596 71.27C19.596 71.174 19.542 71.042 19.434 70.874C19.326 70.694 19.182 70.604 19.002 70.604C18.822 70.604 18.606 70.676 18.354 70.82C18.114 70.952 17.904 71.12 17.724 71.324C17.544 71.528 17.454 71.732 17.454 71.936C17.454 72.056 17.526 72.242 17.67 72.494C17.826 72.746 18 72.992 18.192 73.232C18.348 73.412 18.456 73.556 18.516 73.664C18.588 73.772 18.684 73.85 18.804 73.898C18.936 73.934 19.176 73.952 19.524 73.952C20.124 73.952 20.58 73.772 20.892 73.412C21.204 73.04 21.456 72.596 21.648 72.08C21.72 71.84 21.756 71.612 21.756 71.396C21.756 71.156 21.72 70.934 21.648 70.73C21.588 70.526 21.51 70.364 21.414 70.244C21.174 69.92 20.892 69.68 20.568 69.524C20.244 69.356 19.8 69.248 19.236 69.2C19.128 69.188 19.02 69.182 18.912 69.182C18.816 69.17 18.72 69.164 18.624 69.164C17.904 69.164 17.328 69.272 16.896 69.488C16.476 69.704 16.11 69.902 15.798 70.082C15.258 70.406 14.826 70.82 14.502 71.324C14.178 71.828 13.896 72.344 13.656 72.872C13.584 73.04 13.506 73.274 13.422 73.574C13.35 73.874 13.29 74.186 13.242 74.51C13.194 74.834 13.17 75.128 13.17 75.392C13.17 76.352 13.254 77.12 13.422 77.696C13.59 78.272 13.956 78.77 14.52 79.19C14.82 79.406 15.204 79.628 15.672 79.856C16.14 80.084 16.632 80.276 17.148 80.432C17.676 80.6 18.168 80.684 18.624 80.684C19.116 80.684 19.5 80.618 19.776 80.486C20.052 80.366 20.358 80.252 20.694 80.144C20.898 80.084 21.156 79.964 21.468 79.784C21.78 79.604 22.08 79.412 22.368 79.208C22.668 79.004 22.884 78.842 23.016 78.722C23.1 78.638 23.184 78.596 23.268 78.596C23.34 78.596 23.376 78.632 23.376 78.704C23.376 78.788 23.334 78.872 23.25 78.956ZM27.567 76.616C27.567 76.868 27.513 77.198 27.405 77.606C27.297 78.014 27.153 78.398 26.973 78.758C26.805 79.13 26.613 79.406 26.397 79.586C26.193 79.754 25.995 79.874 25.803 79.946C25.611 80.006 25.455 80.066 25.335 80.126C25.287 80.138 25.233 80.15 25.173 80.162C25.125 80.186 25.071 80.198 25.011 80.198C24.771 80.198 24.585 80.132 24.453 80C24.405 79.952 24.327 79.904 24.219 79.856C24.123 79.808 24.033 79.724 23.949 79.604C23.865 79.484 23.823 79.286 23.823 79.01C23.823 78.722 23.859 78.446 23.931 78.182C23.715 77.93 23.607 77.654 23.607 77.354C23.607 77.174 23.649 77 23.733 76.832C23.961 76.4 24.249 76.064 24.597 75.824C24.945 75.584 25.275 75.416 25.587 75.32C25.911 75.224 26.133 75.176 26.253 75.176C26.697 75.176 27.027 75.32 27.243 75.608C27.459 75.896 27.567 76.232 27.567 76.616ZM26.829 76.706C26.829 76.43 26.733 76.202 26.541 76.022C26.361 75.842 26.133 75.752 25.857 75.752C25.629 75.752 25.395 75.824 25.155 75.968C24.927 76.1 24.729 76.268 24.561 76.472C24.393 76.676 24.285 76.874 24.237 77.066C24.225 77.138 24.213 77.204 24.201 77.264C24.201 77.324 24.201 77.384 24.201 77.444C24.333 77.156 24.471 76.916 24.615 76.724C24.771 76.532 24.885 76.412 24.957 76.364C25.017 76.316 25.095 76.292 25.191 76.292C25.323 76.292 25.389 76.328 25.389 76.4C25.389 76.448 25.323 76.538 25.191 76.67C25.071 76.79 24.933 76.952 24.777 77.156C24.621 77.348 24.489 77.588 24.381 77.876C24.477 77.996 24.603 78.086 24.759 78.146C24.927 78.194 25.089 78.218 25.245 78.218C25.413 78.218 25.569 78.188 25.713 78.128C25.869 78.056 25.971 77.96 26.019 77.84C26.031 77.804 26.037 77.774 26.037 77.75C26.049 77.714 26.055 77.684 26.055 77.66C26.055 77.54 26.001 77.468 25.893 77.444C25.797 77.408 25.701 77.396 25.605 77.408H25.569C25.437 77.408 25.371 77.378 25.371 77.318C25.371 77.282 25.383 77.246 25.407 77.21C25.443 77.174 25.473 77.144 25.497 77.12C25.569 77.048 25.647 77.012 25.731 77.012C25.851 77.012 25.983 77.09 26.127 77.246C26.259 77.426 26.325 77.6 26.325 77.768C26.325 77.984 26.217 78.152 26.001 78.272C25.797 78.392 25.569 78.476 25.317 78.524C25.065 78.572 24.873 78.596 24.741 78.596C24.549 78.596 24.393 78.554 24.273 78.47C24.261 78.494 24.255 78.548 24.255 78.632C24.255 78.968 24.345 79.196 24.525 79.316C24.705 79.424 24.855 79.508 24.975 79.568C25.047 79.592 25.107 79.604 25.155 79.604C25.323 79.604 25.497 79.532 25.677 79.388C25.869 79.244 26.037 79.046 26.181 78.794C26.289 78.602 26.391 78.374 26.487 78.11C26.583 77.846 26.661 77.588 26.721 77.336C26.793 77.072 26.829 76.862 26.829 76.706ZM33.7264 79.064C33.6904 79.136 33.5764 79.268 33.3844 79.46C33.2044 79.64 32.9764 79.748 32.7004 79.784C32.5084 79.808 32.3704 79.7 32.2864 79.46C32.2144 79.208 32.1784 78.92 32.1784 78.596C32.1784 78.464 32.1844 78.332 32.1964 78.2C32.2084 78.056 32.2264 77.924 32.2504 77.804C32.2744 77.672 32.2984 77.546 32.3224 77.426C32.3464 77.306 32.3584 77.204 32.3584 77.12C32.3584 76.916 32.2804 76.838 32.1244 76.886C32.0164 77.018 31.9144 77.216 31.8184 77.48C31.7344 77.744 31.6624 77.942 31.6024 78.074C31.4704 78.374 31.3624 78.626 31.2784 78.83C31.1944 79.034 31.0864 79.136 30.9544 79.136C30.8464 79.136 30.7924 79.034 30.7924 78.83C30.7924 78.662 30.8164 78.488 30.8644 78.308C30.9124 78.128 30.9364 78.038 30.9364 78.038C30.9964 77.87 31.0504 77.684 31.0984 77.48C31.1584 77.264 31.2064 77.078 31.2424 76.922C31.2784 76.754 31.2964 76.67 31.2964 76.67C31.2964 76.646 31.2964 76.61 31.2964 76.562C31.3084 76.514 31.3144 76.466 31.3144 76.418C31.3144 76.322 31.2964 76.232 31.2604 76.148C31.2364 76.064 31.1644 76.016 31.0444 76.004C30.9724 75.992 30.8524 76.064 30.6844 76.22C30.5284 76.364 30.3664 76.544 30.1984 76.76C30.0424 76.964 29.9164 77.156 29.8204 77.336C29.6644 77.66 29.5564 77.99 29.4964 78.326C29.4364 78.662 29.3824 78.974 29.3344 79.262C29.2984 79.538 29.2324 79.766 29.1364 79.946C29.1004 80.018 29.0284 80.054 28.9204 80.054C28.8364 80.054 28.7464 80.03 28.6504 79.982C28.5664 79.922 28.5244 79.856 28.5244 79.784C28.5484 79.568 28.5964 79.31 28.6684 79.01C28.7524 78.71 28.8424 78.35 28.9384 77.93C28.9744 77.786 29.0044 77.618 29.0284 77.426C29.0524 77.234 29.0704 77.09 29.0824 76.994V76.958C29.0824 76.79 29.0044 76.706 28.8484 76.706C28.7884 76.706 28.7224 76.724 28.6504 76.76C28.4224 76.952 28.2304 77.162 28.0744 77.39C27.9184 77.618 27.7924 77.816 27.6964 77.984C27.5884 78.152 27.4924 78.254 27.4084 78.29C27.3724 78.302 27.3544 78.266 27.3544 78.182C27.3544 78.134 27.3604 78.08 27.3724 78.02C27.3844 77.96 27.4144 77.9 27.4624 77.84C27.5704 77.732 27.6844 77.558 27.8044 77.318C27.9244 77.078 28.0504 76.832 28.1824 76.58C28.3264 76.316 28.4824 76.094 28.6504 75.914C28.8304 75.722 29.0224 75.626 29.2264 75.626C29.3464 75.626 29.4664 75.71 29.5864 75.878C29.7184 76.046 29.7964 76.262 29.8204 76.526C30.0244 76.358 30.2164 76.178 30.3964 75.986C30.5764 75.782 30.7864 75.602 31.0264 75.446C31.1224 75.398 31.2244 75.374 31.3324 75.374C31.5124 75.374 31.6324 75.428 31.6924 75.536C31.7764 75.644 31.8244 75.8 31.8364 76.004C31.8484 76.208 31.8664 76.316 31.8904 76.328C31.9144 76.34 31.9684 76.304 32.0524 76.22C32.1484 76.124 32.2804 76.088 32.4484 76.112C32.5084 76.112 32.5924 76.148 32.7004 76.22C32.8084 76.292 32.8624 76.382 32.8624 76.49C32.8624 76.646 32.8504 76.838 32.8264 77.066C32.8024 77.282 32.7724 77.51 32.7364 77.75C32.7244 77.798 32.7184 77.864 32.7184 77.948C32.7184 78.02 32.7184 78.104 32.7184 78.2C32.7184 78.356 32.7304 78.524 32.7544 78.704C32.7904 78.872 32.8684 78.998 32.9884 79.082C33.0244 79.118 33.0724 79.136 33.1324 79.136C33.2644 79.136 33.4384 79.022 33.6544 78.794C33.6904 78.758 33.7204 78.74 33.7444 78.74C33.7804 78.74 33.7984 78.776 33.7984 78.848C33.7984 78.944 33.7744 79.016 33.7264 79.064ZM39.5071 78.614C39.1711 79.046 38.8651 79.364 38.5891 79.568C38.3251 79.76 38.0551 79.88 37.7791 79.928C37.5151 79.976 37.2151 80 36.8791 80C36.5791 80 36.2971 79.976 36.0331 79.928C35.7691 79.88 35.5771 79.814 35.4571 79.73C35.4211 79.97 35.3851 80.258 35.3491 80.594C35.3251 80.942 35.2471 81.452 35.1151 82.124C34.9231 83.06 34.6591 83.834 34.3231 84.446C33.9991 85.058 33.5851 85.4 33.0811 85.472C32.9011 85.496 32.7751 85.412 32.7031 85.22C32.6311 85.04 32.5951 84.818 32.5951 84.554C32.5951 84.314 32.6191 84.062 32.6671 83.798C32.7151 83.534 32.7691 83.294 32.8291 83.078C32.9731 82.586 33.0931 82.214 33.1891 81.962C33.2731 81.722 33.3511 81.524 33.4231 81.368C33.4831 81.224 33.5491 81.056 33.6211 80.864C33.6931 80.684 33.7831 80.42 33.8911 80.072C33.9271 79.952 33.9691 79.814 34.0171 79.658C34.0771 79.49 34.1431 79.31 34.2151 79.118C34.2031 79.022 34.1791 78.956 34.1431 78.92C34.1071 78.884 34.0891 78.83 34.0891 78.758C34.0891 78.542 34.1971 78.374 34.4131 78.254C34.6411 78.134 34.8211 78.092 34.9531 78.128C34.9771 77.888 34.9951 77.594 35.0071 77.246C35.0191 76.898 35.0431 76.55 35.0791 76.202C35.1271 75.842 35.1931 75.524 35.2771 75.248C35.3611 74.972 35.4751 74.78 35.6191 74.672C35.7151 74.648 35.7931 74.636 35.8531 74.636C36.0331 74.636 36.1471 74.69 36.1951 74.798C36.2071 74.822 36.2131 74.87 36.2131 74.942V75.104C36.2131 75.188 36.2311 75.242 36.2671 75.266C36.4231 75.338 36.6211 75.374 36.8611 75.374C37.1011 75.374 37.2991 75.422 37.4551 75.518C37.6231 75.614 37.7731 75.77 37.9051 75.986C38.0371 76.19 38.1031 76.472 38.1031 76.832C38.1031 76.952 38.0731 77.162 38.0131 77.462C37.9651 77.762 37.8511 78.08 37.6711 78.416C37.5031 78.752 37.2391 79.028 36.8791 79.244C37.1071 79.34 37.3291 79.388 37.5451 79.388C37.8451 79.388 38.1511 79.298 38.4631 79.118C38.7751 78.926 39.0991 78.608 39.4351 78.164C39.4951 78.092 39.5431 78.056 39.5791 78.056C39.6511 78.056 39.6871 78.104 39.6871 78.2C39.6871 78.308 39.6271 78.446 39.5071 78.614ZM37.5451 76.598C37.5451 76.382 37.4371 76.184 37.2211 76.004C37.0171 75.812 36.8071 75.716 36.5911 75.716C36.3271 75.716 36.1231 75.842 35.9791 76.094C35.8351 76.334 35.7271 76.658 35.6551 77.066C35.5831 77.462 35.5111 77.894 35.4391 78.362C35.4511 78.374 35.4571 78.38 35.4571 78.38C35.4691 78.38 35.4751 78.38 35.4751 78.38C35.4991 78.38 35.5171 78.374 35.5291 78.362C35.5531 78.35 35.5771 78.344 35.6011 78.344C35.6251 78.344 35.6611 78.35 35.7091 78.362C35.7571 78.374 35.8051 78.41 35.8531 78.47C35.9851 78.578 36.1051 78.668 36.2131 78.74C36.3331 78.812 36.4171 78.848 36.4651 78.848C36.5851 78.848 36.7051 78.782 36.8251 78.65C36.9571 78.518 37.0771 78.356 37.1851 78.164C37.2931 77.972 37.3711 77.798 37.4191 77.642C37.4911 77.426 37.5271 77.216 37.5271 77.012C37.5391 76.796 37.5451 76.658 37.5451 76.598ZM36.3391 79.154C36.3391 79.154 36.2671 79.13 36.1231 79.082C35.9791 79.034 35.8411 78.968 35.7091 78.884C35.6851 78.872 35.6491 78.866 35.6011 78.866C35.5411 78.866 35.5111 78.914 35.5111 79.01C35.5111 79.058 35.5231 79.112 35.5471 79.172C35.5711 79.22 35.6071 79.256 35.6551 79.28C35.7991 79.316 35.9491 79.304 36.1051 79.244C36.2611 79.184 36.3391 79.154 36.3391 79.154ZM34.8451 79.496C34.8211 79.472 34.7791 79.454 34.7191 79.442C34.6711 79.418 34.6231 79.394 34.5751 79.37C34.4071 79.958 34.2391 80.486 34.0711 80.954C33.9151 81.422 33.7651 81.89 33.6211 82.358C33.4891 82.826 33.3691 83.366 33.2611 83.978C33.2491 84.062 33.2431 84.134 33.2431 84.194C33.2311 84.266 33.2251 84.326 33.2251 84.374C33.2251 84.53 33.2551 84.608 33.3151 84.608C33.3751 84.608 33.4471 84.554 33.5311 84.446C33.6151 84.35 33.6871 84.248 33.7471 84.14C34.0591 83.66 34.2571 83.264 34.3411 82.952C34.4371 82.64 34.4911 82.346 34.5031 82.07C34.5151 81.806 34.5571 81.5 34.6291 81.152C34.6771 80.912 34.7191 80.666 34.7551 80.414C34.8031 80.174 34.8331 79.964 34.8451 79.784C34.8691 79.604 34.8691 79.508 34.8451 79.496ZM45.105 78.596C45.141 78.56 45.189 78.542 45.249 78.542C45.333 78.542 45.375 78.584 45.375 78.668C45.375 78.716 45.345 78.788 45.285 78.884C45.237 78.98 45.129 79.094 44.961 79.226C44.793 79.37 44.619 79.502 44.439 79.622C44.271 79.742 44.037 79.802 43.737 79.802C43.413 79.802 43.155 79.742 42.963 79.622C42.783 79.502 42.651 79.37 42.567 79.226C42.495 79.07 42.447 78.95 42.423 78.866C42.279 78.974 42.129 79.118 41.973 79.298C41.829 79.466 41.619 79.622 41.343 79.766C41.067 79.898 40.671 79.964 40.155 79.964C39.867 79.964 39.603 79.898 39.363 79.766C39.135 79.622 39.021 79.316 39.021 78.848C39.021 78.716 39.027 78.578 39.039 78.434C39.063 78.278 39.099 78.11 39.147 77.93C39.291 77.366 39.459 76.922 39.651 76.598C39.843 76.274 40.131 76.034 40.515 75.878C40.755 75.782 41.049 75.692 41.397 75.608C41.745 75.524 42.051 75.452 42.315 75.392C42.399 75.368 42.471 75.29 42.531 75.158C42.603 75.014 42.681 74.882 42.765 74.762C42.813 74.702 42.867 74.654 42.927 74.618C42.987 74.57 43.053 74.546 43.125 74.546C43.185 74.546 43.263 74.576 43.359 74.636C43.443 74.696 43.497 74.81 43.521 74.978C43.557 75.146 43.575 75.302 43.575 75.446C43.563 75.518 43.533 75.608 43.485 75.716C43.449 75.812 43.419 75.92 43.395 76.04C43.371 76.196 43.311 76.418 43.215 76.706C43.119 76.994 43.071 77.234 43.071 77.426C43.071 77.594 43.059 77.804 43.035 78.056C43.011 78.296 43.011 78.464 43.035 78.56C43.167 78.848 43.353 79.04 43.593 79.136C43.833 79.22 44.043 79.244 44.223 79.208C44.355 79.184 44.505 79.106 44.673 78.974C44.841 78.842 44.985 78.716 45.105 78.596ZM42.189 76.544C42.165 76.448 42.105 76.346 42.009 76.238C41.925 76.13 41.817 76.076 41.685 76.076C41.661 76.076 41.613 76.088 41.541 76.112C41.337 76.184 41.121 76.322 40.893 76.526C40.665 76.718 40.467 76.97 40.299 77.282C40.131 77.594 40.035 77.96 40.011 78.38C40.011 78.5 40.047 78.656 40.119 78.848C40.203 79.04 40.311 79.202 40.443 79.334C40.575 79.466 40.707 79.502 40.839 79.442C41.127 79.322 41.367 79.154 41.559 78.938C41.763 78.71 41.931 78.434 42.063 78.11C42.123 77.954 42.165 77.792 42.189 77.624C42.225 77.444 42.243 77.276 42.243 77.12C42.243 76.976 42.237 76.856 42.225 76.76C42.213 76.652 42.201 76.58 42.189 76.544ZM49.2263 78.776C49.0703 78.932 48.9323 79.088 48.8123 79.244C48.6923 79.4 48.4283 79.58 48.0203 79.784C47.9723 79.856 47.8643 79.964 47.6963 80.108C47.5403 80.252 47.2283 80.336 46.7603 80.36C46.4483 80.372 46.1963 80.294 46.0043 80.126C45.8243 79.97 45.6863 79.778 45.5903 79.55C45.4943 79.322 45.4103 79.112 45.3383 78.92C45.3263 78.932 45.2723 78.98 45.1763 79.064C45.0803 79.148 44.9843 79.232 44.8882 79.316C44.7802 79.4 44.7142 79.454 44.6902 79.478C44.6782 79.49 44.6542 79.496 44.6182 79.496C44.5582 79.496 44.5102 79.466 44.4742 79.406C44.4262 79.334 44.4262 79.274 44.4742 79.226C44.7022 78.998 44.8762 78.824 44.9963 78.704C45.1163 78.572 45.2243 78.446 45.3203 78.326C45.4163 78.206 45.5303 78.056 45.6623 77.876C45.8663 77.564 46.0823 77.288 46.3103 77.048C46.5503 76.796 46.7003 76.61 46.7603 76.49C46.7723 76.478 46.7783 76.454 46.7783 76.418C46.7783 76.382 46.7603 76.352 46.7243 76.328C46.7003 76.304 46.6823 76.274 46.6703 76.238C46.6223 76.046 46.5983 75.866 46.5983 75.698C46.5983 75.434 46.7003 75.122 46.9043 74.762C46.9883 74.702 47.1023 74.654 47.2463 74.618C47.3903 74.57 47.5043 74.564 47.5883 74.6C47.6843 74.648 47.7443 74.702 47.7683 74.762C47.8043 74.822 47.8343 74.9 47.8583 74.996C47.8583 75.008 47.8583 75.02 47.8583 75.032C47.8703 75.044 47.8763 75.062 47.8763 75.086C47.8763 75.158 47.8643 75.236 47.8403 75.32C47.8163 75.404 47.7863 75.494 47.7503 75.59C47.7503 75.638 47.6903 75.728 47.5703 75.86C47.4623 75.992 47.4263 76.076 47.4623 76.112C47.5343 76.268 47.6543 76.472 47.8223 76.724C48.0263 77.012 48.1643 77.276 48.2363 77.516C48.3203 77.756 48.3623 77.972 48.3623 78.164C48.3623 78.392 48.3263 78.59 48.2543 78.758C48.1943 78.926 48.1463 79.07 48.1103 79.19C48.2183 79.202 48.3443 79.148 48.4883 79.028C48.6323 78.896 48.7703 78.752 48.9023 78.596C49.0463 78.428 49.1543 78.308 49.2263 78.236C49.2983 78.164 49.3523 78.128 49.3883 78.128C49.4483 78.128 49.4483 78.218 49.3883 78.398C49.3403 78.578 49.2863 78.704 49.2263 78.776ZM47.4803 75.32C47.4803 75.272 47.4743 75.218 47.4623 75.158C47.4503 75.098 47.4143 75.062 47.3543 75.05H47.3363C47.2763 75.05 47.2283 75.08 47.1923 75.14C47.1563 75.188 47.1263 75.236 47.1023 75.284C47.0663 75.38 47.0303 75.464 46.9943 75.536C46.9703 75.596 46.9823 75.656 47.0303 75.716C47.0783 75.74 47.1623 75.692 47.2822 75.572C47.4143 75.44 47.4803 75.356 47.4803 75.32ZM47.5163 78.2C47.5163 78.02 47.4803 77.828 47.4083 77.624C47.3483 77.408 47.2763 77.216 47.1923 77.048C47.1203 76.88 47.0663 76.772 47.0303 76.724C47.0303 76.724 46.9583 76.814 46.8143 76.994C46.6703 77.162 46.5143 77.348 46.3463 77.552C46.2383 77.672 46.1303 77.828 46.0223 78.02C45.9143 78.212 45.8483 78.38 45.8243 78.524C45.8243 78.524 45.8783 78.596 45.9863 78.74C46.0943 78.872 46.2263 78.998 46.3823 79.118C46.5503 79.238 46.7123 79.28 46.8683 79.244C47.1083 79.184 47.2763 79.046 47.3723 78.83C47.4683 78.602 47.5163 78.392 47.5163 78.2ZM46.9043 79.604H46.7423C46.6943 79.604 46.6403 79.604 46.5803 79.604C46.5203 79.592 46.4603 79.58 46.4003 79.568C46.3403 79.544 46.2503 79.496 46.1303 79.424C46.0103 79.352 45.9503 79.316 45.9503 79.316C45.9503 79.316 45.9443 79.328 45.9323 79.352C45.9323 79.376 45.9323 79.406 45.9323 79.442C45.9323 79.49 45.9383 79.544 45.9503 79.604C45.9743 79.664 46.0163 79.724 46.0763 79.784C46.1723 79.856 46.2563 79.916 46.3283 79.964C46.4003 80 46.4963 80 46.6163 79.964C46.7003 79.94 46.7663 79.874 46.8143 79.766C46.8743 79.658 46.9043 79.604 46.9043 79.604ZM53.0407 78.776C52.8847 78.932 52.7467 79.088 52.6267 79.244C52.5067 79.4 52.2427 79.58 51.8347 79.784C51.7867 79.856 51.6787 79.964 51.5107 80.108C51.3547 80.252 51.0427 80.336 50.5747 80.36C50.2627 80.372 50.0107 80.294 49.8187 80.126C49.6387 79.97 49.5007 79.778 49.4047 79.55C49.3087 79.322 49.2247 79.112 49.1527 78.92C49.1407 78.932 49.0867 78.98 48.9907 79.064C48.8947 79.148 48.7987 79.232 48.7027 79.316C48.5947 79.4 48.5287 79.454 48.5047 79.478C48.4927 79.49 48.4687 79.496 48.4327 79.496C48.3727 79.496 48.3247 79.466 48.2887 79.406C48.2407 79.334 48.2407 79.274 48.2887 79.226C48.5167 78.998 48.6907 78.824 48.8107 78.704C48.9307 78.572 49.0387 78.446 49.1347 78.326C49.2307 78.206 49.3447 78.056 49.4767 77.876C49.6807 77.564 49.8967 77.288 50.1247 77.048C50.3647 76.796 50.5147 76.61 50.5747 76.49C50.5867 76.478 50.5927 76.454 50.5927 76.418C50.5927 76.382 50.5747 76.352 50.5387 76.328C50.5147 76.304 50.4967 76.274 50.4847 76.238C50.4367 76.046 50.4127 75.866 50.4127 75.698C50.4127 75.434 50.5147 75.122 50.7187 74.762C50.8027 74.702 50.9167 74.654 51.0607 74.618C51.2047 74.57 51.3187 74.564 51.4027 74.6C51.4987 74.648 51.5587 74.702 51.5827 74.762C51.6187 74.822 51.6487 74.9 51.6727 74.996C51.6727 75.008 51.6727 75.02 51.6727 75.032C51.6847 75.044 51.6907 75.062 51.6907 75.086C51.6907 75.158 51.6787 75.236 51.6547 75.32C51.6307 75.404 51.6007 75.494 51.5647 75.59C51.5647 75.638 51.5047 75.728 51.3847 75.86C51.2767 75.992 51.2407 76.076 51.2767 76.112C51.3487 76.268 51.4687 76.472 51.6367 76.724C51.8407 77.012 51.9787 77.276 52.0507 77.516C52.1347 77.756 52.1767 77.972 52.1767 78.164C52.1767 78.392 52.1407 78.59 52.0687 78.758C52.0087 78.926 51.9607 79.07 51.9247 79.19C52.0327 79.202 52.1587 79.148 52.3027 79.028C52.4467 78.896 52.5847 78.752 52.7167 78.596C52.8607 78.428 52.9687 78.308 53.0407 78.236C53.1127 78.164 53.1667 78.128 53.2027 78.128C53.2627 78.128 53.2627 78.218 53.2027 78.398C53.1547 78.578 53.1007 78.704 53.0407 78.776ZM51.2947 75.32C51.2947 75.272 51.2887 75.218 51.2767 75.158C51.2647 75.098 51.2287 75.062 51.1687 75.05H51.1507C51.0907 75.05 51.0427 75.08 51.0067 75.14C50.9707 75.188 50.9407 75.236 50.9167 75.284C50.8807 75.38 50.8447 75.464 50.8087 75.536C50.7847 75.596 50.7967 75.656 50.8447 75.716C50.8927 75.74 50.9767 75.692 51.0967 75.572C51.2287 75.44 51.2947 75.356 51.2947 75.32ZM51.3307 78.2C51.3307 78.02 51.2947 77.828 51.2227 77.624C51.1627 77.408 51.0907 77.216 51.0067 77.048C50.9347 76.88 50.8807 76.772 50.8447 76.724C50.8447 76.724 50.7727 76.814 50.6287 76.994C50.4847 77.162 50.3287 77.348 50.1607 77.552C50.0527 77.672 49.9447 77.828 49.8367 78.02C49.7287 78.212 49.6627 78.38 49.6387 78.524C49.6387 78.524 49.6927 78.596 49.8007 78.74C49.9087 78.872 50.0407 78.998 50.1967 79.118C50.3647 79.238 50.5267 79.28 50.6827 79.244C50.9227 79.184 51.0907 79.046 51.1867 78.83C51.2827 78.602 51.3307 78.392 51.3307 78.2ZM50.7187 79.604H50.5567C50.5087 79.604 50.4547 79.604 50.3947 79.604C50.3347 79.592 50.2747 79.58 50.2147 79.568C50.1547 79.544 50.0647 79.496 49.9447 79.424C49.8247 79.352 49.7647 79.316 49.7647 79.316C49.7647 79.316 49.7587 79.328 49.7467 79.352C49.7467 79.376 49.7467 79.406 49.7467 79.442C49.7467 79.49 49.7527 79.544 49.7647 79.604C49.7887 79.664 49.8307 79.724 49.8907 79.784C49.9867 79.856 50.0707 79.916 50.1427 79.964C50.2147 80 50.3107 80 50.4307 79.964C50.5147 79.94 50.5807 79.874 50.6287 79.766C50.6887 79.658 50.7187 79.604 50.7187 79.604ZM68.8104 80.486C68.7504 80.726 68.6244 80.888 68.4324 80.972C68.2404 81.056 68.0304 81.098 67.8024 81.098C67.5864 81.098 67.3884 81.08 67.2084 81.044C66.8484 80.972 66.5064 80.81 66.1824 80.558C65.8584 80.306 65.5644 80.018 65.3004 79.694C65.0364 79.37 64.8144 79.058 64.6344 78.758C64.4544 78.458 64.3284 78.23 64.2564 78.074C64.2324 78.014 64.2024 77.954 64.1664 77.894C64.1304 77.834 64.0884 77.78 64.0404 77.732C63.8124 77.768 63.5724 77.786 63.3204 77.786C63.0564 77.786 62.7984 77.744 62.5464 77.66C62.4624 77.96 62.3604 78.236 62.2404 78.488C62.1204 78.74 62.0304 79.004 61.9704 79.28C61.8144 80.108 61.4604 80.768 60.9084 81.26C60.3684 81.764 59.6244 82.016 58.6764 82.016C58.1724 82.016 57.7044 81.902 57.2724 81.674C56.8404 81.458 56.4924 81.158 56.2284 80.774C55.9644 80.39 55.8324 79.958 55.8324 79.478C55.8324 78.938 55.9524 78.446 56.1924 78.002C56.4444 77.558 56.7744 77.204 57.1824 76.94C57.6024 76.676 58.0644 76.544 58.5684 76.544C59.0484 76.544 59.4804 76.658 59.8644 76.886C60.2484 77.114 60.4404 77.498 60.4404 78.038C60.4404 78.494 60.2904 78.902 59.9904 79.262C59.6904 79.622 59.3124 79.802 58.8564 79.802C58.6404 79.802 58.4484 79.706 58.2804 79.514C58.1244 79.31 58.0464 79.1 58.0464 78.884C58.0464 78.644 58.1244 78.482 58.2804 78.398C58.4364 78.302 58.5804 78.218 58.7124 78.146C58.7604 78.122 58.7964 78.11 58.8204 78.11C58.9764 78.11 59.0544 78.2 59.0544 78.38C59.0544 78.476 59.0064 78.548 58.9104 78.596C58.8624 78.608 58.8264 78.632 58.8024 78.668C58.7784 78.692 58.7664 78.752 58.7664 78.848C58.7664 78.896 58.7604 78.95 58.7484 79.01C58.7484 79.058 58.7484 79.106 58.7484 79.154C58.7484 79.262 58.7844 79.316 58.8564 79.316C59.1804 79.316 59.4204 79.208 59.5764 78.992C59.7324 78.776 59.8104 78.5 59.8104 78.164C59.8104 77.78 59.7144 77.546 59.5224 77.462C59.3304 77.366 59.0604 77.318 58.7124 77.318C58.0644 77.318 57.5004 77.51 57.0204 77.894C56.5524 78.278 56.3184 78.806 56.3184 79.478C56.3184 79.874 56.4264 80.228 56.6424 80.54C56.8704 80.852 57.1644 81.092 57.5244 81.26C57.8844 81.44 58.2684 81.53 58.6764 81.53C59.2284 81.53 59.6904 81.386 60.0624 81.098C60.4464 80.822 60.7524 80.456 60.9804 80C61.2084 79.556 61.3644 79.088 61.4484 78.596C61.4844 78.404 61.5324 78.26 61.5924 78.164C61.6524 78.056 61.7184 77.954 61.7904 77.858C61.8624 77.75 61.9284 77.6 61.9884 77.408C61.7124 77.252 61.4784 77.06 61.2864 76.832C61.1064 76.592 61.0164 76.34 61.0164 76.076C61.0164 75.8 61.0764 75.65 61.1964 75.626C61.3164 75.602 61.5144 75.59 61.7904 75.59C61.9464 75.59 62.0964 75.608 62.2404 75.644C62.2884 75.2 62.3364 74.756 62.3844 74.312C62.4444 73.856 62.5344 73.424 62.6544 73.016C62.7264 72.764 62.8524 72.464 63.0324 72.116C63.2124 71.768 63.4284 71.462 63.6804 71.198C63.9324 70.934 64.2024 70.802 64.4904 70.802C64.6584 70.802 64.8204 70.856 64.9764 70.964C65.0604 71.012 65.1024 71.084 65.1024 71.18C65.1024 71.24 65.0784 71.288 65.0304 71.324C64.9824 71.36 64.9164 71.354 64.8324 71.306C64.7124 71.246 64.6164 71.216 64.5444 71.216C64.3164 71.216 64.1184 71.348 63.9504 71.612C63.7824 71.864 63.6444 72.152 63.5364 72.476C63.4284 72.788 63.3444 73.046 63.2844 73.25C63.1764 73.682 63.0924 74.126 63.0324 74.582C62.9724 75.038 62.9124 75.494 62.8524 75.95C63.0684 76.118 63.3024 76.304 63.5544 76.508C63.8064 76.712 64.0344 76.94 64.2384 77.192C64.8264 77.048 65.3724 76.808 65.8764 76.472C66.3804 76.136 66.8004 75.824 67.1364 75.536C67.4124 75.284 67.6224 74.984 67.7664 74.636C67.9224 74.276 68.0244 73.952 68.0724 73.664C68.1084 73.244 68.0724 72.86 67.9644 72.512C67.8564 72.164 67.7244 71.87 67.5684 71.63C67.4244 71.39 67.2864 71.222 67.1544 71.126C66.8064 70.85 66.5184 70.622 66.2904 70.442C66.0624 70.25 65.8464 70.094 65.6424 69.974C65.4384 69.854 65.2104 69.752 64.9584 69.668C64.7064 69.572 64.3884 69.476 64.0044 69.38C63.6204 69.272 63.1224 69.146 62.5104 69.002C62.0904 68.906 61.6524 68.858 61.1964 68.858C60.8244 68.858 60.4404 68.894 60.0444 68.966C59.6484 69.038 59.2524 69.164 58.8564 69.344C58.4484 69.524 58.1184 69.722 57.8664 69.938C57.6144 70.154 57.3684 70.406 57.1284 70.694C56.9004 70.982 56.6064 71.324 56.2464 71.72C56.1624 71.816 56.0604 71.984 55.9404 72.224C55.8204 72.452 55.7124 72.698 55.6164 72.962C55.5324 73.214 55.4904 73.43 55.4904 73.61C55.4904 73.958 55.5804 74.282 55.7604 74.582C55.9404 74.87 56.1744 75.098 56.4624 75.266C56.7624 75.434 57.0804 75.518 57.4164 75.518C57.5844 75.518 57.7464 75.5 57.9024 75.464C58.0584 75.416 58.2144 75.344 58.3704 75.248C58.6704 74.984 58.8504 74.708 58.9104 74.42C58.9704 74.132 59.0004 73.802 59.0004 73.43C59.0004 73.01 58.8084 72.8 58.4244 72.8C58.2324 72.8 58.0704 72.86 57.9384 72.98C57.8184 73.1 57.7584 73.25 57.7584 73.43C57.7584 73.478 57.7704 73.574 57.7944 73.718C57.8304 73.862 57.8484 73.958 57.8484 74.006C57.8484 74.078 57.8244 74.138 57.7764 74.186C57.7284 74.222 57.6744 74.24 57.6144 74.24C57.5544 74.24 57.4944 74.222 57.4344 74.186C57.3864 74.138 57.3624 74.078 57.3624 74.006C57.3624 73.958 57.3444 73.862 57.3084 73.718C57.2844 73.574 57.2724 73.478 57.2724 73.43C57.2724 73.094 57.3804 72.824 57.5964 72.62C57.8124 72.416 58.0884 72.314 58.4244 72.314C58.7964 72.314 59.0904 72.458 59.3064 72.746C59.5224 73.034 59.6304 73.358 59.6304 73.718C59.6304 74.162 59.5164 74.51 59.2884 74.762C59.0604 75.002 58.7724 75.278 58.4244 75.59C58.2684 75.686 58.1064 75.758 57.9384 75.806C57.7704 75.842 57.5964 75.86 57.4164 75.86C56.9604 75.86 56.5104 75.728 56.0664 75.464C55.6344 75.188 55.2804 74.84 55.0044 74.42C54.7284 73.988 54.5904 73.544 54.5904 73.088C54.5904 72.74 54.6984 72.428 54.9144 72.152C55.1184 71.864 55.3044 71.624 55.4724 71.432C55.8564 71 56.2224 70.628 56.5704 70.316C56.9304 69.992 57.3144 69.716 57.7224 69.488C58.1424 69.26 58.6224 69.056 59.1624 68.876C59.5944 68.732 59.9424 68.618 60.2064 68.534C60.4704 68.45 60.8004 68.408 61.1964 68.408C61.5204 68.408 61.9584 68.444 62.5104 68.516C63.1824 68.6 63.7344 68.666 64.1664 68.714C64.6104 68.75 64.9824 68.792 65.2824 68.84C65.5944 68.888 65.8704 68.96 66.1104 69.056C66.3504 69.14 66.6024 69.272 66.8664 69.452C67.1424 69.62 67.4664 69.854 67.8384 70.154C67.9944 70.274 68.1324 70.526 68.2524 70.91C68.3724 71.282 68.4624 71.72 68.5224 72.224C68.5824 72.728 68.5944 73.232 68.5584 73.736C68.4744 74.072 68.3484 74.444 68.1804 74.852C68.0244 75.26 67.7904 75.608 67.4784 75.896C67.1424 76.208 66.7164 76.532 66.2004 76.868C65.6964 77.192 65.1444 77.438 64.5444 77.606C64.5684 77.654 64.5924 77.702 64.6164 77.75C64.6524 77.786 64.6764 77.828 64.6884 77.876C64.7484 78.008 64.8504 78.224 64.9944 78.524C65.1504 78.812 65.3424 79.118 65.5704 79.442C65.7984 79.754 66.0504 80.018 66.3264 80.234C66.6024 80.462 66.8964 80.576 67.2084 80.576C67.3404 80.576 67.4664 80.582 67.5864 80.594C67.7064 80.606 67.8084 80.612 67.8924 80.612C68.0844 80.612 68.2104 80.558 68.2704 80.45C68.2824 80.438 68.2884 80.414 68.2884 80.378C68.2884 80.306 68.2764 80.21 68.2524 80.09C68.2284 79.982 68.2164 79.922 68.2164 79.91C68.2164 79.826 68.2404 79.766 68.2884 79.73C68.3484 79.682 68.4024 79.658 68.4504 79.658C68.6064 79.658 68.6844 79.742 68.6844 79.91C68.6844 79.934 68.7084 80.024 68.7564 80.18C68.8164 80.348 68.8344 80.45 68.8104 80.486ZM62.2044 76.13C62.0844 76.094 61.9464 76.076 61.7904 76.076C61.7064 76.076 61.6344 76.052 61.5744 76.004C61.5144 75.956 61.4844 75.98 61.4844 76.076C61.4844 76.244 61.5384 76.406 61.6464 76.562C61.7664 76.706 61.9104 76.832 62.0784 76.94C62.1024 76.808 62.1264 76.676 62.1504 76.544C62.1744 76.4 62.1924 76.262 62.2044 76.13ZM63.6804 77.3C63.5484 77.144 63.3984 77.006 63.2304 76.886C63.0744 76.754 62.9244 76.628 62.7804 76.508C62.7684 76.628 62.7504 76.748 62.7264 76.868C62.7144 76.976 62.6964 77.09 62.6724 77.21C62.8884 77.282 63.1044 77.318 63.3204 77.318C63.3804 77.318 63.4404 77.318 63.5004 77.318C63.5724 77.306 63.6324 77.3 63.6804 77.3ZM72.6683 72.728C72.5843 72.728 72.5003 72.716 72.4163 72.692C72.3443 72.656 72.2723 72.614 72.2003 72.566C72.0443 72.494 71.9663 72.338 71.9663 72.098C71.9663 71.99 71.9903 71.87 72.0383 71.738C72.0983 71.606 72.1883 71.48 72.3083 71.36C72.3923 71.276 72.4943 71.234 72.6143 71.234C72.7223 71.234 72.8243 71.276 72.9203 71.36C72.9683 71.408 72.9983 71.486 73.0103 71.594C73.0343 71.69 73.0463 71.798 73.0463 71.918C73.0463 72.062 73.0343 72.206 73.0103 72.35C72.9863 72.482 72.9443 72.578 72.8843 72.638C72.8003 72.698 72.7283 72.728 72.6683 72.728ZM70.8323 79.802C70.3883 79.802 70.0823 79.7 69.9143 79.496C69.7463 79.292 69.6623 79.046 69.6623 78.758C69.6623 78.626 69.6743 78.494 69.6983 78.362C69.7223 78.23 69.7523 78.098 69.7883 77.966C69.6683 78.182 69.4823 78.434 69.2303 78.722C68.9783 78.998 68.7443 79.22 68.5283 79.388C68.4803 79.424 68.4323 79.442 68.3843 79.442C68.3123 79.442 68.2763 79.4 68.2763 79.316C68.2763 79.22 68.3123 79.136 68.3843 79.064C68.8883 78.536 69.2723 78.11 69.5363 77.786C69.8003 77.45 70.0043 77.168 70.1483 76.94C70.2923 76.712 70.4303 76.502 70.5623 76.31C70.6703 75.962 70.7663 75.626 70.8503 75.302C70.9463 74.966 71.0903 74.624 71.2823 74.276C71.3423 74.168 71.4623 74.114 71.6423 74.114C71.7623 74.114 71.8703 74.144 71.9663 74.204C72.0623 74.264 72.1103 74.366 72.1103 74.51C72.1103 74.582 72.0923 74.666 72.0563 74.762C71.9243 75.134 71.7803 75.452 71.6243 75.716C71.4803 75.968 71.2883 76.292 71.0483 76.688C70.7963 77.096 70.5923 77.492 70.4363 77.876C70.2923 78.26 70.2203 78.584 70.2203 78.848C70.2203 79.016 70.2563 79.154 70.3283 79.262C70.4123 79.37 70.5323 79.424 70.6883 79.424C71.0243 79.436 71.2823 79.382 71.4623 79.262C71.6423 79.13 71.7923 79.004 71.9123 78.884C72.0683 78.716 72.2003 78.56 72.3083 78.416C72.4283 78.272 72.5363 78.146 72.6323 78.038C72.7043 77.966 72.7403 77.978 72.7403 78.074C72.7403 78.134 72.7223 78.212 72.6863 78.308C72.6623 78.404 72.6323 78.476 72.5963 78.524C72.4763 78.692 72.3323 78.878 72.1643 79.082C72.0083 79.286 71.8223 79.46 71.6063 79.604C71.3903 79.736 71.1323 79.802 70.8323 79.802ZM77.3406 74.672C77.4126 74.756 77.4486 74.894 77.4486 75.086C77.4486 75.35 77.3886 75.686 77.2686 76.094C77.1606 76.502 77.0286 76.94 76.8726 77.408C76.7286 77.876 76.5966 78.344 76.4766 78.812C76.3686 79.268 76.3086 79.688 76.2966 80.072C76.2846 80.552 76.2546 80.966 76.2066 81.314C76.1706 81.662 76.1106 81.998 76.0266 82.322C75.9426 82.646 75.8226 83.012 75.6666 83.42C75.5226 83.828 75.3306 84.338 75.0906 84.95C74.6226 85.526 74.1186 85.922 73.5786 86.138C73.0386 86.366 72.4806 86.456 71.9046 86.408C71.6766 86.384 71.4366 86.234 71.1846 85.958C70.9206 85.682 70.6986 85.316 70.5186 84.86C70.3386 84.404 70.2486 83.906 70.2486 83.366C70.2486 83.15 70.2666 82.934 70.3026 82.718C70.3626 82.358 70.4526 81.998 70.5726 81.638C70.6926 81.278 70.8666 80.978 71.0946 80.738C71.3226 80.498 71.6286 80.378 72.0126 80.378C72.3246 80.378 72.6126 80.492 72.8766 80.72C73.1526 80.96 73.3806 81.23 73.5606 81.53C73.7526 81.83 73.8786 82.094 73.9386 82.322C73.9746 82.466 74.0046 82.616 74.0286 82.772C74.0646 82.94 74.0826 83.102 74.0826 83.258C74.0826 83.534 74.0286 83.726 73.9206 83.834C73.8006 83.966 73.6566 84.032 73.4886 84.032C73.3446 84.032 73.1826 83.996 73.0026 83.924C72.8826 83.9 72.7446 83.816 72.5886 83.672C72.4326 83.54 72.3546 83.366 72.3546 83.15C72.3546 83.006 72.3846 82.868 72.4446 82.736C72.5046 82.604 72.5586 82.514 72.6066 82.466C72.6906 82.382 72.7566 82.34 72.8046 82.34C72.8526 82.34 72.8826 82.364 72.8946 82.412C72.9066 82.472 72.9186 82.532 72.9306 82.592V82.61C72.9306 82.646 72.9126 82.682 72.8766 82.718C72.8406 82.766 72.8226 82.832 72.8226 82.916C72.8226 83.12 72.8766 83.264 72.9846 83.348C73.1046 83.444 73.1886 83.492 73.2366 83.492C73.3926 83.492 73.4706 83.336 73.4706 83.024C73.4706 82.772 73.3986 82.466 73.2546 82.106C73.1346 81.806 72.9666 81.542 72.7506 81.314C72.5346 81.098 72.2886 80.966 72.0126 80.918C71.8566 80.894 71.6946 80.93 71.5266 81.026C71.3466 81.134 71.1906 81.326 71.0586 81.602C70.9746 81.758 70.9206 81.932 70.8966 82.124C70.8606 82.316 70.8426 82.508 70.8426 82.7C70.8426 82.952 70.8606 83.168 70.8966 83.348C70.9206 84.044 71.1066 84.578 71.4546 84.95C71.8026 85.334 72.2526 85.526 72.8046 85.526C72.8646 85.526 72.9246 85.526 72.9846 85.526C73.0446 85.526 73.1046 85.52 73.1646 85.508C73.5246 85.46 73.8726 85.28 74.2086 84.968C74.5446 84.668 74.8266 84.308 75.0546 83.888C75.1986 83.636 75.3006 83.324 75.3606 82.952C75.4206 82.592 75.4626 82.214 75.4866 81.818C75.5226 81.422 75.5646 81.068 75.6126 80.756C75.6366 80.648 75.6486 80.552 75.6486 80.468C75.6486 80.396 75.6486 80.336 75.6486 80.288C75.6486 80.156 75.6366 80.024 75.6126 79.892C75.6006 79.748 75.5946 79.508 75.5946 79.172C75.5946 79.076 75.5946 78.968 75.5946 78.848C75.5946 78.728 75.6006 78.59 75.6126 78.434C75.0486 78.746 74.5446 78.902 74.1006 78.902C73.5606 78.902 73.1106 78.668 72.7506 78.2C72.6186 78.032 72.5526 77.84 72.5526 77.624C72.5526 77.336 72.6486 77.036 72.8406 76.724C73.0446 76.4 73.3086 76.094 73.6326 75.806C73.9686 75.506 74.3286 75.254 74.7126 75.05C75.1086 74.834 75.4926 74.696 75.8646 74.636C76.0326 74.612 76.2006 74.576 76.3686 74.528C76.5486 74.468 76.7106 74.438 76.8546 74.438C77.0586 74.438 77.2206 74.516 77.3406 74.672ZM76.4406 76.004C76.4646 75.896 76.4886 75.794 76.5126 75.698C76.5486 75.59 76.5666 75.494 76.5666 75.41C76.5666 75.35 76.5606 75.29 76.5486 75.23C76.5366 75.158 76.5006 75.098 76.4406 75.05C76.3686 74.966 76.2546 74.924 76.0986 74.924C75.8946 74.924 75.6486 75.002 75.3606 75.158C75.0726 75.314 74.7906 75.53 74.5146 75.806C74.2506 76.07 74.0466 76.388 73.9026 76.76C73.8426 76.916 73.7826 77.114 73.7226 77.354C73.6626 77.582 73.6326 77.798 73.6326 78.002C73.6326 78.194 73.6626 78.338 73.7226 78.434C73.7946 78.518 73.9266 78.56 74.1186 78.56C74.2986 78.56 74.4966 78.524 74.7126 78.452C74.9406 78.368 75.1326 78.26 75.2886 78.128C75.6486 77.792 75.9066 77.444 76.0626 77.084C76.2306 76.712 76.3566 76.352 76.4406 76.004ZM83.3804 79.046C83.1644 79.358 82.9244 79.598 82.6604 79.766C82.4084 79.922 82.1684 80 81.9404 80C81.7124 80 81.5264 79.922 81.3824 79.766C81.2144 79.478 81.0944 79.184 81.0224 78.884C80.9624 78.572 80.9084 78.17 80.8604 77.678C80.8244 77.186 80.7464 76.526 80.6264 75.698C80.6264 75.698 80.5904 75.656 80.5184 75.572C80.4464 75.476 80.3624 75.428 80.2664 75.428C80.2064 75.428 80.1404 75.464 80.0684 75.536C79.9964 75.596 79.9244 75.716 79.8524 75.896C79.6724 76.352 79.5284 76.826 79.4204 77.318C79.3244 77.81 79.2344 78.266 79.1504 78.686C79.0664 79.106 78.9644 79.436 78.8444 79.676C78.7604 79.844 78.6524 79.928 78.5204 79.928C78.4124 79.928 78.3104 79.874 78.2144 79.766C78.2144 79.766 78.2204 79.658 78.2324 79.442C78.2564 79.214 78.2864 78.938 78.3224 78.614C78.3584 78.278 78.3884 77.954 78.4124 77.642C78.3884 77.654 78.3224 77.726 78.2144 77.858C78.1064 77.978 77.9864 78.098 77.8544 78.218C77.7224 78.326 77.6024 78.374 77.4944 78.362C77.4224 78.278 77.4584 78.152 77.6024 77.984C77.7464 77.804 77.9084 77.606 78.0884 77.39C78.2804 77.162 78.4124 76.94 78.4844 76.724C78.6524 76.22 78.7664 75.68 78.8264 75.104C78.8984 74.528 78.9764 73.982 79.0604 73.466C79.2404 72.35 79.4204 71.372 79.6004 70.532C79.7924 69.692 80.0204 69.044 80.2844 68.588C80.5484 68.12 80.8844 67.886 81.2924 67.886C81.4604 67.886 81.5924 67.952 81.6884 68.084C81.7844 68.204 81.8324 68.432 81.8324 68.768C81.8324 68.816 81.8324 68.876 81.8324 68.948C81.8324 69.02 81.8264 69.092 81.8144 69.164C81.7424 69.968 81.5924 70.856 81.3644 71.828C81.1364 72.788 80.7284 73.832 80.1404 74.96C80.2724 74.924 80.4044 74.906 80.5364 74.906C80.7764 74.906 80.9984 74.948 81.2024 75.032C81.4064 75.104 81.5444 75.188 81.6164 75.284C81.6884 75.38 81.7364 75.488 81.7604 75.608C81.7844 75.728 81.7964 75.866 81.7964 76.022C81.7964 76.322 81.7604 76.694 81.6884 77.138C81.6284 77.582 81.5984 78.104 81.5984 78.704C81.5984 78.908 81.6644 79.064 81.7964 79.172C81.9404 79.268 82.1084 79.316 82.3004 79.316C82.4684 79.316 82.6304 79.28 82.7864 79.208C82.9424 79.136 83.0684 79.034 83.1644 78.902C83.1764 78.878 83.2124 78.866 83.2724 78.866C83.3084 78.866 83.3384 78.884 83.3624 78.92C83.3984 78.944 83.4044 78.986 83.3804 79.046ZM81.3824 68.624C81.3824 68.516 81.3584 68.462 81.3104 68.462C81.2384 68.462 81.1244 68.564 80.9684 68.768C80.8244 68.96 80.6804 69.212 80.5364 69.524C80.3924 69.836 80.2724 70.166 80.1764 70.514C80.0324 71.066 79.9124 71.564 79.8164 72.008C79.7204 72.44 79.6424 72.956 79.5824 73.556C79.5704 73.736 79.5584 73.94 79.5464 74.168C79.5344 74.384 79.5224 74.57 79.5104 74.726C79.5104 74.882 79.5104 74.96 79.5104 74.96C79.6904 74.672 79.8824 74.378 80.0864 74.078C80.2904 73.778 80.4584 73.424 80.5904 73.016C80.7704 72.488 80.9144 71.942 81.0224 71.378C81.1424 70.802 81.2324 70.268 81.2924 69.776C81.3524 69.284 81.3824 68.9 81.3824 68.624ZM88.3201 72.89C88.3201 72.89 88.3201 72.932 88.3201 73.016C88.3321 73.1 88.3081 73.202 88.2481 73.322C88.1881 73.442 88.0561 73.562 87.8521 73.682C87.7801 73.73 87.6481 73.766 87.4561 73.79C87.2641 73.814 87.0481 73.832 86.8081 73.844C86.6761 74.192 86.5321 74.546 86.3761 74.906C86.2201 75.254 86.0581 75.584 85.8901 75.896C85.6381 76.376 85.4221 76.73 85.2421 76.958C85.0741 77.186 84.9421 77.36 84.8461 77.48C84.7501 77.588 84.6841 77.72 84.6481 77.876C84.6361 77.948 84.6241 78.014 84.6121 78.074C84.6121 78.134 84.6121 78.194 84.6121 78.254C84.6121 78.698 84.7381 79.022 84.9901 79.226C85.2541 79.43 85.5061 79.532 85.7461 79.532C86.0221 79.532 86.2981 79.436 86.5741 79.244C86.8501 79.04 87.0781 78.854 87.2581 78.686C87.4021 78.566 87.5101 78.506 87.5821 78.506C87.6301 78.506 87.6541 78.53 87.6541 78.578C87.6541 78.662 87.5881 78.794 87.4561 78.974C87.3841 79.07 87.2641 79.202 87.0961 79.37C86.9281 79.538 86.7181 79.694 86.4661 79.838C86.2141 79.97 85.9321 80.036 85.6201 80.036C84.9961 80.036 84.5761 79.892 84.3601 79.604C84.1561 79.316 84.0541 78.836 84.0541 78.164C84.0541 77.636 84.1081 76.988 84.2161 76.22C84.3241 75.44 84.4921 74.618 84.7201 73.754C84.6601 73.754 84.6001 73.754 84.5401 73.754C84.4801 73.742 84.4261 73.736 84.3781 73.736C84.2221 73.736 84.1021 73.76 84.0181 73.808C83.9461 73.844 83.8861 73.862 83.8381 73.862C83.7181 73.862 83.6581 73.772 83.6581 73.592C83.6581 73.388 83.7121 73.232 83.8201 73.124C83.9041 73.04 84.0481 72.998 84.2521 72.998C84.4081 72.998 84.6181 73.028 84.8821 73.088C84.9061 73.016 84.9301 72.95 84.9541 72.89C84.9781 72.83 84.9961 72.77 85.0081 72.71C85.0321 72.59 85.0561 72.494 85.0801 72.422C85.1041 72.35 85.1341 72.26 85.1701 72.152C85.3741 71.54 85.5961 70.952 85.8361 70.388C86.0761 69.824 86.4241 69.32 86.8801 68.876C86.9641 68.744 87.0781 68.678 87.2221 68.678C87.3301 68.678 87.4261 68.726 87.5101 68.822C87.5941 68.906 87.6301 69.008 87.6181 69.128C87.6181 69.128 87.6121 69.278 87.6001 69.578C87.5881 69.878 87.5641 70.244 87.5281 70.676C87.4921 71.096 87.4381 71.498 87.3661 71.882C87.3301 72.11 87.2761 72.356 87.2041 72.62C87.1441 72.872 87.0661 73.13 86.9701 73.394C87.0421 73.406 87.1081 73.418 87.1681 73.43C87.2401 73.43 87.3061 73.43 87.3661 73.43C87.5461 73.43 87.6841 73.406 87.7801 73.358C87.8881 73.298 87.9481 73.238 87.9601 73.178C87.9841 73.118 87.9961 73.088 87.9961 73.088C87.9961 72.848 88.0561 72.728 88.1761 72.728C88.2361 72.728 88.2841 72.782 88.3201 72.89ZM87.0421 69.884C86.9701 69.872 86.8561 70.01 86.7001 70.298C86.5441 70.586 86.3761 70.964 86.1961 71.432C86.0161 71.9 85.8421 72.398 85.6741 72.926C85.6621 72.974 85.6501 73.022 85.6381 73.07C85.6261 73.106 85.6141 73.148 85.6021 73.196C85.6861 73.22 85.7701 73.238 85.8541 73.25C85.9381 73.262 86.0281 73.28 86.1241 73.304C86.1721 73.316 86.2261 73.322 86.2861 73.322C86.3461 73.322 86.4001 73.334 86.4481 73.358C86.4961 73.226 86.5381 73.112 86.5741 73.016C86.6101 72.908 86.6461 72.812 86.6821 72.728C86.8141 72.284 86.9221 71.828 87.0061 71.36C87.0901 70.892 87.1321 70.526 87.1321 70.262C87.1321 70.046 87.1021 69.92 87.0421 69.884ZM86.2501 73.844H85.9261C85.8421 73.844 85.7581 73.844 85.6741 73.844C85.6021 73.844 85.5301 73.838 85.4581 73.826C85.3501 74.282 85.2421 74.774 85.1341 75.302C85.0381 75.818 84.9601 76.28 84.9001 76.688C85.0441 76.52 85.1941 76.28 85.3501 75.968C85.5061 75.656 85.6621 75.314 85.8181 74.942C85.9741 74.558 86.1181 74.192 86.2501 73.844Z" fill="black"/>
</g>
<defs>
<clipPath id="clip0_1_2">
<rect width="100" height="100" fill="white"/>
</clipPath>
</defs>
</svg>
